if (_typeface_js && _typeface_js.loadFace) _typeface_js.loadFace({"glyphs":{"0":{"ha":915,"x_min":47,"x_max":868,"o":"m 457 978 q 778 870 688 978 q 868 479 868 763 q 778 88 868 196 q 457 -19 688 -19 q 138 88 228 -19 q 47 479 47 196 q 138 870 47 763 q 457 978 228 978 m 456 754 q 388 737 408 754 q 356 662 367 719 q 346 479 346 604 q 356 297 346 354 q 388 222 367 239 q 456 204 408 204 q 527 222 506 204 q 559 297 549 239 q 569 479 569 354 q 559 662 569 604 q 527 737 549 719 q 456 754 506 754 z "},"1":{"ha":647,"x_min":3,"x_max":547,"o":"m 547 0 l 247 0 l 247 600 q 258 724 247 676 l 38 681 l 3 865 l 247 958 l 547 958 l 547 0 z "},"2":{"ha":833,"x_min":46,"x_max":789,"o":"m 64 724 l 54 944 q 413 975 221 975 q 677 923 588 975 q 767 736 767 871 q 740 601 767 657 q 621 453 713 544 l 394 239 q 522 253 450 256 l 789 253 l 789 0 l 46 0 l 46 150 q 88 271 46 222 l 288 467 q 458 697 458 638 q 441 722 458 717 q 374 726 424 726 q 64 724 200 726 z "},"3":{"ha":803,"x_min":39,"x_max":754,"o":"m 68 749 l 60 951 q 396 978 224 978 q 656 929 582 978 q 729 754 729 881 q 696 583 729 640 q 571 513 663 525 l 571 507 q 713 437 672 492 q 754 267 753 382 q 675 47 757 113 q 397 -19 593 -19 q 39 7 233 -19 l 47 218 q 314 211 208 211 q 430 228 403 211 q 457 308 457 244 q 435 385 457 365 q 350 404 414 406 l 165 401 l 165 585 l 350 585 q 431 603 414 585 q 449 671 449 622 q 427 733 449 718 q 342 749 406 749 l 68 749 z "},"4":{"ha":915,"x_min":21,"x_max":892,"o":"m 892 386 l 892 222 l 785 194 l 782 194 l 782 0 l 508 0 l 508 194 l 124 194 q 32 238 64 194 q 21 338 0 282 l 253 958 l 531 958 l 336 421 q 338 396 331 406 q 360 386 344 386 l 508 386 l 508 622 l 557 769 l 782 769 l 782 386 l 892 386 z "},"5":{"ha":789,"x_min":33,"x_max":751,"o":"m 713 743 l 318 743 l 310 643 l 488 619 q 751 299 751 588 q 389 -17 751 -17 q 33 8 243 -17 l 58 232 q 310 224 247 224 q 419 242 390 224 q 453 310 449 260 q 428 378 457 358 q 325 404 399 399 l 150 426 q 90 458 113 432 q 68 521 67 485 l 94 958 l 722 958 l 713 743 z "},"6":{"ha":844,"x_min":49,"x_max":810,"o":"m 733 765 l 482 765 q 369 732 397 765 q 338 586 342 699 q 524 633 403 633 q 749 567 688 633 q 810 342 810 500 q 794 178 810 242 q 737 68 778 114 q 622 3 696 22 q 435 -17 549 -17 q 252 3 322 -17 q 134 79 182 24 q 67 228 86 135 q 49 471 49 321 q 60 660 49 579 q 98 796 72 740 q 157 887 124 851 q 242 942 190 922 q 349 968 293 961 q 482 975 404 975 q 744 944 640 975 l 733 765 m 438 193 q 515 219 500 193 q 529 335 529 246 q 512 418 529 400 q 433 436 494 436 q 336 413 385 436 q 354 229 338 265 q 438 193 371 193 z "},"7":{"ha":754,"x_min":19,"x_max":742,"o":"m 19 958 l 635 958 q 728 916 696 958 q 742 818 761 874 l 454 0 l 161 0 l 382 608 q 435 718 407 679 l 32 718 l 19 958 z "},"8":{"ha":888,"x_min":51,"x_max":838,"o":"m 226 494 l 226 500 q 114 573 151 508 q 76 719 76 638 q 105 868 76 815 q 214 949 133 921 q 444 978 294 978 q 676 949 596 978 q 785 868 757 921 q 813 719 813 815 q 775 573 813 638 q 663 500 738 508 l 663 494 q 838 239 838 479 q 758 36 838 92 q 444 -21 678 -19 q 133 35 215 -22 q 51 239 51 92 q 226 494 51 479 m 446 783 q 365 764 385 783 q 346 679 346 744 q 366 606 346 624 q 449 589 386 589 q 526 606 508 589 q 543 679 543 622 q 524 764 543 744 q 446 783 506 783 m 447 406 q 356 383 378 406 q 333 294 333 361 q 355 210 333 231 q 446 190 376 190 q 533 210 513 190 q 554 294 554 231 q 533 384 554 363 q 447 406 513 406 z "},"9":{"ha":844,"x_min":38,"x_max":794,"o":"m 76 14 l 89 194 q 361 193 179 193 q 472 230 443 193 q 506 372 500 267 q 319 325 438 325 q 101 399 164 325 q 38 617 38 474 q 116 894 38 814 q 411 975 194 975 q 603 956 532 975 q 719 878 674 936 q 779 731 764 821 q 794 488 794 642 q 779 267 794 356 q 734 122 764 179 q 649 35 704 65 q 528 -6 594 6 q 361 -17 463 -17 q 76 14 194 -17 m 319 624 q 337 540 319 558 q 411 522 354 522 q 507 547 458 522 q 490 729 506 693 q 408 765 474 765 q 334 738 349 765 q 319 624 319 711 z "}," ":{"ha":292,"x_min":0,"x_max":0,"o":""},"!":{"ha":457,"x_min":83,"x_max":372,"o":"m 372 640 l 342 315 l 114 315 l 83 640 l 83 965 l 372 965 l 372 640 m 196 257 l 261 257 q 340 235 318 257 q 361 157 361 214 l 361 100 q 340 22 361 43 q 261 0 318 0 l 196 0 q 117 22 139 0 q 96 100 96 43 l 96 157 q 117 235 96 214 q 196 257 139 257 z "},"\"":{"ha":546,"x_min":49,"x_max":497,"o":"m 232 642 l 65 642 l 49 958 l 249 958 l 232 642 m 481 642 l 314 642 l 297 958 l 497 958 l 481 642 z "},"#":{"ha":1028,"x_min":31,"x_max":999,"o":"m 811 561 l 788 422 l 940 422 l 907 253 l 758 253 l 714 0 l 499 0 l 543 253 l 410 253 l 365 0 l 150 0 l 194 253 l 31 253 l 64 422 l 224 422 l 247 561 l 89 561 l 122 731 l 276 731 l 317 958 l 532 958 l 492 731 l 625 731 l 665 958 l 881 958 l 840 731 l 999 731 l 965 561 l 811 561 m 596 561 l 463 561 l 439 422 l 572 422 l 596 561 z "},"$":{"ha":826,"x_min":44,"x_max":794,"o":"m 421 638 l 586 565 q 747 447 700 514 q 794 274 794 381 q 724 56 794 121 q 474 -18 654 -10 l 460 -153 l 244 -153 l 260 -11 q 51 28 150 1 l 69 239 q 408 232 331 232 q 481 239 463 232 q 499 265 499 246 q 485 297 499 285 q 433 324 472 310 l 251 407 q 92 525 139 460 q 44 696 44 590 q 120 910 44 849 q 385 978 196 972 l 400 1096 l 617 1096 l 600 968 q 768 929 692 957 l 750 736 q 421 739 589 739 q 354 732 371 739 q 338 703 338 725 q 354 669 338 683 q 421 638 371 656 z "},"%":{"ha":1279,"x_min":31,"x_max":1250,"o":"m 282 978 q 481 917 425 978 q 536 692 536 856 q 481 467 536 528 q 282 406 425 406 q 85 467 140 406 q 31 692 31 528 q 85 917 31 856 q 282 978 140 978 m 463 0 l 288 0 l 815 958 l 990 958 l 463 0 m 282 826 q 249 806 256 826 q 243 692 243 785 q 249 577 243 597 q 282 557 256 557 q 317 578 310 557 q 324 692 324 599 q 317 806 324 785 q 282 826 310 826 m 996 553 q 1194 492 1139 553 q 1250 267 1250 431 q 1194 42 1250 103 q 996 -19 1139 -19 q 799 42 854 -19 q 744 267 744 103 q 799 492 744 431 q 996 553 854 553 m 996 401 q 963 381 969 401 q 957 267 957 361 q 963 153 957 174 q 996 132 969 132 q 1031 153 1024 132 q 1038 267 1038 174 q 1031 381 1038 360 q 996 401 1024 401 z "},"&":{"ha":1057,"x_min":49,"x_max":1031,"o":"m 999 203 l 1031 17 q 822 -19 954 -19 q 638 67 689 -19 q 519 1 583 21 q 349 -19 454 -19 q 118 41 188 -19 q 49 244 49 101 q 93 421 49 358 q 239 493 138 483 l 239 501 q 116 563 153 510 q 79 722 79 615 q 93 835 79 790 q 133 909 107 881 q 208 953 158 938 q 316 973 258 968 q 465 978 374 978 q 696 958 606 978 l 661 764 q 457 768 490 768 q 397 751 411 768 q 382 675 382 733 q 397 601 382 619 q 457 582 411 582 l 621 582 l 636 706 l 883 706 l 883 582 l 1004 582 l 1004 400 l 883 400 l 883 253 q 894 214 883 225 q 929 203 904 203 l 999 203 m 610 400 l 440 400 q 380 383 393 400 q 367 307 367 365 q 380 226 367 244 q 440 208 393 207 q 610 229 528 211 l 610 400 z "},"'":{"ha":297,"x_min":49,"x_max":249,"o":"m 232 642 l 65 642 l 49 958 l 249 958 l 232 642 z "},"(":{"ha":517,"x_min":35,"x_max":508,"o":"m 475 1097 l 508 975 q 361 797 406 933 q 317 435 317 660 q 508 -107 317 -22 l 475 -229 q 141 -9 247 -169 q 35 433 35 151 q 141 878 35 717 q 475 1097 247 1039 z "},")":{"ha":517,"x_min":8,"x_max":482,"o":"m 8 975 l 42 1097 q 376 878 269 1039 q 482 433 482 717 q 376 -9 482 151 q 42 -229 269 -169 l 8 -107 q 200 435 200 -22 q 156 797 200 660 q 8 975 111 933 z "},"*":{"ha":633,"x_min":32,"x_max":601,"o":"m 372 718 l 529 539 l 406 447 l 317 613 l 229 447 l 104 539 l 264 717 l 239 961 l 394 961 l 372 718 m 601 717 l 435 683 l 400 725 l 397 793 l 554 865 l 601 717 m 236 793 l 236 725 l 201 683 l 32 717 l 79 864 l 236 793 z "},"+":{"ha":726,"x_min":36,"x_max":690,"o":"m 690 314 l 469 314 l 469 94 l 257 94 l 257 314 l 36 314 l 36 529 l 257 529 l 257 749 l 469 749 l 469 529 l 690 529 l 690 314 z "},",":{"ha":354,"x_min":44,"x_max":304,"o":"m 147 257 l 204 257 q 281 235 260 257 q 304 157 303 214 l 304 68 q 282 -94 304 -31 q 211 -225 260 -158 l 103 -190 q 129 0 126 -119 q 44 89 47 0 l 49 157 q 71 235 50 214 q 147 257 92 257 z "},"-":{"ha":526,"x_min":61,"x_max":465,"o":"m 465 272 l 61 272 l 61 442 l 465 442 l 465 272 z "},".":{"ha":360,"x_min":47,"x_max":313,"o":"m 147 257 l 213 257 q 291 235 269 257 q 313 157 313 214 l 313 100 q 291 22 313 43 q 213 0 269 0 l 147 0 q 69 22 90 0 q 47 100 47 43 l 47 157 q 69 235 47 214 q 147 257 90 257 z "},"/":{"ha":817,"x_min":21,"x_max":796,"o":"m 250 -110 l 21 -110 l 567 958 l 796 958 l 250 -110 z "},":":{"ha":385,"x_min":49,"x_max":314,"o":"m 149 642 l 214 642 q 292 620 271 642 q 314 542 314 599 l 314 485 q 292 406 314 428 q 214 385 271 385 l 149 385 q 70 406 92 385 q 49 485 49 428 l 49 542 q 70 620 49 599 q 149 642 92 642 m 149 258 l 214 258 q 292 237 271 258 q 314 158 314 215 l 314 101 q 292 23 314 44 q 214 1 271 1 l 149 1 q 70 23 92 1 q 49 101 49 44 l 49 158 q 70 237 49 215 q 149 258 92 258 z "},";":{"ha":385,"x_min":58,"x_max":326,"o":"m 161 642 l 226 642 q 305 620 283 642 q 326 542 326 599 l 326 485 q 305 406 326 428 q 226 385 283 385 l 161 385 q 83 406 104 385 q 61 485 61 428 l 61 542 q 83 620 61 599 q 161 642 104 642 m 161 257 l 218 257 q 295 235 274 257 q 318 157 317 214 l 318 68 q 296 -94 318 -31 q 225 -225 274 -158 l 117 -190 q 143 0 140 -119 q 58 89 61 0 l 63 157 q 85 235 64 214 q 161 257 106 257 z "},"<":{"ha":701,"x_min":36,"x_max":640,"o":"m 640 525 l 281 421 l 640 317 l 640 90 l 36 310 l 36 533 l 640 751 l 640 525 z "},"=":{"ha":793,"x_min":63,"x_max":731,"o":"m 731 468 l 63 468 l 63 671 l 731 671 l 731 468 m 731 168 l 63 168 l 63 371 l 731 371 l 731 168 z "},">":{"ha":697,"x_min":61,"x_max":661,"o":"m 661 533 l 661 310 l 61 90 l 61 317 l 417 421 l 61 525 l 61 751 l 661 533 z "},"?":{"ha":744,"x_min":33,"x_max":715,"o":"m 40 758 l 33 950 q 85 960 44 953 q 138 970 126 968 q 184 978 149 972 q 244 985 219 983 q 310 988 269 986 q 400 989 351 989 q 638 936 561 989 q 715 774 715 883 q 692 672 715 718 q 634 590 668 625 q 564 518 600 554 q 499 430 528 482 q 463 315 469 378 l 235 315 q 254 465 231 394 q 310 576 278 536 q 372 655 342 617 q 406 713 401 693 q 394 749 411 739 q 328 758 376 758 l 40 758 m 315 257 l 381 257 q 459 235 438 257 q 481 157 481 214 l 481 100 q 459 22 481 43 q 381 0 438 0 l 315 0 q 237 22 258 0 q 215 100 215 43 l 215 157 q 237 235 215 214 q 315 257 258 257 z "},"@":{"ha":1113,"x_min":54,"x_max":1056,"o":"m 554 857 l 779 857 q 986 797 918 857 q 1054 594 1054 738 l 1054 192 l 842 192 l 819 279 q 603 174 736 174 q 449 221 511 174 q 388 351 388 268 l 388 414 q 442 534 388 490 q 592 578 497 578 l 788 578 l 788 596 q 772 644 788 629 q 718 658 757 658 l 554 658 q 483 658 504 658 q 429 653 461 657 q 387 642 397 649 q 359 622 376 636 q 338 589 342 607 q 327 538 333 571 q 320 469 321 506 q 319 375 319 432 q 325 210 319 263 q 367 127 331 157 q 444 94 404 97 q 592 92 483 92 q 626 92 614 92 l 1056 92 l 1056 -86 q 626 -110 788 -110 q 405 -104 490 -110 q 250 -77 319 -99 q 147 -26 181 -56 q 89 63 113 3 q 60 192 65 122 q 54 375 54 261 q 59 558 54 489 q 84 686 64 626 q 135 774 104 746 q 226 824 165 803 q 360 851 286 846 q 554 857 435 857 m 788 457 l 692 450 q 644 411 644 446 l 644 392 q 696 353 644 353 q 788 382 740 353 l 788 457 z "},"A":{"ha":949,"x_min":-12,"x_max":961,"o":"m 606 207 l 343 207 l 294 0 l -12 0 l 236 881 q 274 937 246 915 q 338 958 301 958 l 611 958 q 675 937 647 958 q 713 881 703 915 l 961 0 l 654 0 l 606 207 m 557 418 l 510 624 q 493 733 497 689 l 456 733 q 439 624 447 668 l 392 418 l 557 418 z "},"B":{"ha":917,"x_min":72,"x_max":879,"o":"m 672 501 l 672 493 q 831 421 783 483 q 879 239 879 358 q 799 42 879 96 q 532 -11 719 -11 q 72 0 228 -11 l 72 958 q 486 969 214 969 q 769 917 690 969 q 847 719 847 865 q 806 563 847 615 q 672 501 765 510 m 367 585 l 474 585 q 543 603 526 585 q 560 676 560 621 q 542 749 560 732 q 471 765 525 765 l 367 765 l 367 585 m 367 193 l 478 193 q 560 214 540 193 q 579 300 579 235 q 560 388 579 367 q 476 408 540 408 l 367 408 l 367 193 z "},"C":{"ha":840,"x_min":44,"x_max":815,"o":"m 793 249 l 815 29 q 479 -17 682 -17 q 142 94 240 -17 q 44 479 44 206 q 142 864 44 753 q 479 975 240 975 q 794 938 658 975 l 772 718 q 479 721 578 721 q 385 673 408 721 q 361 479 361 625 q 385 285 361 333 q 479 238 408 238 q 793 249 686 238 z "},"D":{"ha":974,"x_min":72,"x_max":929,"o":"m 72 0 l 72 958 q 482 972 317 972 q 747 930 653 972 q 885 781 840 888 q 929 479 929 675 q 885 177 929 283 q 747 28 840 71 q 482 -14 653 -14 q 72 0 274 -14 m 374 206 l 482 204 q 585 259 560 204 q 611 479 611 314 q 585 699 611 644 q 482 754 560 754 l 374 754 l 374 206 z "},"E":{"ha":828,"x_min":65,"x_max":789,"o":"m 775 225 l 789 13 q 290 -6 650 -6 q 128 55 192 -6 q 65 213 65 115 l 65 746 q 128 903 65 843 q 290 964 192 964 q 789 946 650 964 l 775 733 l 424 733 q 382 719 397 733 q 367 683 367 706 l 367 590 l 725 590 l 725 390 l 367 390 l 367 275 q 382 239 367 253 q 424 225 397 225 l 775 225 z "},"F":{"ha":797,"x_min":69,"x_max":779,"o":"m 765 733 l 431 733 q 387 719 403 733 q 371 683 371 706 l 371 571 l 714 571 l 714 371 l 371 371 l 371 0 l 69 0 l 69 746 q 133 903 69 843 q 297 964 197 964 q 779 944 647 964 l 765 733 z "},"G":{"ha":928,"x_min":44,"x_max":876,"o":"m 876 551 l 876 0 l 654 0 l 628 99 q 520 15 589 50 q 363 -19 451 -19 q 119 95 194 -19 q 44 479 44 210 q 146 866 44 754 q 496 978 247 978 q 836 938 696 978 l 814 721 q 497 724 603 724 q 389 675 417 724 q 361 479 361 626 q 386 286 361 335 q 483 238 411 238 q 588 246 532 238 l 588 551 l 876 551 z "},"H":{"ha":992,"x_min":74,"x_max":918,"o":"m 918 958 l 918 0 l 617 0 l 617 403 l 375 403 l 375 0 l 74 0 l 74 958 l 375 958 l 375 614 l 617 614 l 617 958 l 918 958 z "},"I":{"ha":446,"x_min":74,"x_max":372,"o":"m 372 0 l 74 0 l 74 958 l 372 958 l 372 0 z "},"J":{"ha":561,"x_min":14,"x_max":492,"o":"m 492 958 l 492 176 q 424 32 492 83 q 238 -19 356 -19 q 115 -10 183 -19 q 14 17 46 0 l 46 206 l 111 206 q 193 254 193 206 l 193 958 l 492 958 z "},"K":{"ha":939,"x_min":74,"x_max":951,"o":"m 414 400 l 364 400 q 375 313 375 351 l 375 0 l 74 0 l 74 958 l 375 958 l 375 717 q 361 594 375 651 l 414 594 l 614 958 l 938 958 l 717 583 q 632 499 682 519 l 632 493 q 683 456 653 485 q 728 399 713 428 l 951 0 l 617 0 l 414 400 z "},"L":{"ha":774,"x_min":69,"x_max":765,"o":"m 371 958 l 371 289 q 387 253 371 267 q 429 239 403 239 l 751 239 l 765 14 q 297 -6 622 -6 q 132 55 194 -6 q 69 213 69 115 l 69 958 l 371 958 z "},"M":{"ha":1322,"x_min":56,"x_max":1267,"o":"m 863 958 l 1128 958 q 1233 854 1229 958 l 1267 0 l 996 0 l 967 733 l 946 733 l 851 244 q 738 153 836 153 l 582 153 q 467 244 483 153 l 371 733 l 350 733 l 326 0 l 56 0 l 89 854 q 194 958 93 958 l 454 958 q 568 865 551 958 l 638 485 q 653 342 644 440 l 665 342 q 672 401 665 346 q 682 485 678 457 l 747 865 q 863 958 764 958 z "},"N":{"ha":1025,"x_min":72,"x_max":954,"o":"m 954 958 l 954 104 q 850 0 954 0 l 735 0 q 669 19 692 0 q 618 88 646 39 l 410 417 q 346 581 375 479 l 336 581 q 350 406 350 483 l 350 0 l 72 0 l 72 854 q 176 958 72 958 l 292 958 q 357 939 335 958 q 408 871 379 919 l 608 557 q 682 393 646 490 l 692 393 q 678 567 679 496 l 678 958 l 954 958 z "},"O":{"ha":982,"x_min":44,"x_max":938,"o":"m 490 978 q 755 935 661 978 q 893 785 849 893 q 938 479 938 678 q 893 173 938 281 q 755 23 849 65 q 490 -19 661 -19 q 227 23 321 -19 q 89 173 133 65 q 44 479 44 281 q 89 785 44 678 q 227 935 133 893 q 490 978 321 978 m 594 699 q 581 727 594 699 q 490 754 568 754 q 387 699 413 754 q 361 479 361 644 q 387 259 361 314 q 490 204 413 204 q 594 259 568 204 q 619 479 619 314 q 594 699 619 644 z "},"P":{"ha":897,"x_min":72,"x_max":875,"o":"m 72 0 l 72 958 q 478 972 214 972 q 791 904 707 972 q 875 646 875 836 q 797 390 875 458 q 519 322 719 322 q 374 331 444 322 l 374 0 l 72 0 m 374 535 l 471 535 q 553 557 532 535 q 574 646 574 579 q 553 737 574 714 q 471 760 532 760 l 374 760 l 374 535 z "},"Q":{"ha":982,"x_min":44,"x_max":938,"o":"m 490 978 q 755 935 661 978 q 893 785 849 893 q 938 479 938 678 q 893 173 938 281 q 755 23 849 65 q 490 -19 661 -19 q 227 23 321 -19 q 89 173 133 65 q 44 479 44 281 q 89 785 44 678 q 227 935 133 893 q 490 978 321 978 m 594 699 q 581 727 594 699 q 490 754 568 754 q 387 699 413 754 q 361 479 361 644 q 387 259 361 314 q 490 204 413 204 q 594 259 568 204 q 619 479 619 314 q 594 699 619 644 m 344 -179 l 408 -36 q 865 -139 564 -94 l 792 -382 q 344 -179 517 -303 z "},"R":{"ha":939,"x_min":72,"x_max":921,"o":"m 921 0 l 606 0 l 543 285 q 517 337 535 324 q 461 350 500 350 l 368 350 l 368 0 l 72 0 l 72 958 q 479 972 214 972 q 790 908 696 972 q 883 681 883 844 q 689 453 883 472 l 689 444 q 846 294 819 428 l 921 0 m 368 563 l 472 563 q 559 582 538 563 q 581 661 581 601 q 559 740 581 721 q 472 760 538 760 l 368 760 l 368 563 z "},"S":{"ha":847,"x_min":42,"x_max":813,"o":"m 446 324 l 256 407 q 90 524 139 458 q 42 696 42 590 q 129 917 42 857 q 436 978 217 978 q 785 929 646 978 l 767 736 q 429 739 600 739 q 358 732 376 739 q 340 703 340 725 q 358 670 340 683 q 424 638 375 657 l 597 565 q 764 447 715 514 q 813 274 813 381 q 728 46 813 111 q 421 -19 643 -19 q 50 28 233 -19 l 68 239 q 417 232 343 232 q 492 239 474 232 q 511 265 511 246 q 498 297 511 285 q 446 324 485 310 z "},"T":{"ha":865,"x_min":14,"x_max":851,"o":"m 851 733 l 583 733 l 583 0 l 282 0 l 282 733 l 14 733 l 14 958 l 851 958 l 851 733 z "},"U":{"ha":979,"x_min":65,"x_max":914,"o":"m 914 958 l 914 396 q 822 74 914 167 q 506 -19 731 -19 q 164 74 263 -19 q 65 396 65 167 l 65 958 l 367 958 l 367 396 q 392 242 367 281 q 490 204 417 204 q 588 242 563 204 q 613 396 613 281 l 613 958 l 914 958 z "},"V":{"ha":931,"x_min":-3,"x_max":933,"o":"m 933 958 l 700 81 q 664 22 692 44 q 597 0 636 0 l 333 0 q 267 22 294 0 q 231 81 239 44 l -3 958 l 307 958 l 431 335 q 449 225 433 322 l 482 225 q 500 335 488 274 l 624 958 l 933 958 z "},"W":{"ha":1393,"x_min":28,"x_max":1365,"o":"m 1365 958 l 1246 81 q 1211 22 1240 44 q 1143 0 1182 0 l 888 0 q 819 22 849 0 q 785 81 789 44 l 719 610 q 708 750 714 653 l 685 750 q 674 608 679 653 l 610 81 q 576 22 606 44 q 507 0 546 0 l 250 0 q 182 22 211 0 q 147 81 153 44 l 28 958 l 325 958 l 374 371 q 379 211 379 276 l 401 211 q 424 372 421 347 l 488 869 q 520 933 492 908 q 589 958 549 958 l 804 958 q 872 934 844 958 q 906 869 900 910 l 971 369 q 992 211 975 328 l 1014 211 q 1021 368 1014 250 l 1068 958 l 1365 958 z "},"X":{"ha":940,"x_min":-7,"x_max":947,"o":"m 649 0 l 471 403 l 292 0 l -7 0 l 231 489 l 13 958 l 310 958 l 471 579 l 631 958 l 928 958 l 710 489 l 947 0 l 649 0 z "},"Y":{"ha":908,"x_min":-14,"x_max":922,"o":"m 606 299 l 606 0 l 304 0 l 304 296 l -14 958 l 296 958 l 417 657 q 446 522 429 626 l 464 522 q 493 658 481 624 l 613 958 l 922 958 l 606 299 z "},"Z":{"ha":840,"x_min":40,"x_max":801,"o":"m 801 211 l 801 0 l 40 0 l 40 211 l 454 747 l 54 747 l 54 958 l 788 958 l 788 747 l 374 211 l 801 211 z "},"[":{"ha":504,"x_min":85,"x_max":471,"o":"m 471 889 l 388 889 q 357 858 357 889 l 357 -21 q 388 -51 357 -51 l 471 -51 l 471 -229 l 225 -229 q 121 -198 157 -229 q 85 -89 85 -167 l 85 926 q 124 1028 85 989 q 225 1067 163 1067 l 471 1067 l 471 889 z "},"\\":{"ha":817,"x_min":21,"x_max":796,"o":"m 796 -110 l 567 -110 l 21 958 l 250 958 l 796 -110 z "},"]":{"ha":504,"x_min":33,"x_max":419,"o":"m 33 1067 l 279 1067 q 381 1028 342 1067 q 419 926 419 989 l 419 -89 q 381 -190 419 -151 q 279 -229 342 -229 l 33 -229 l 33 -51 l 117 -51 q 147 -21 147 -51 l 147 858 q 117 889 147 889 l 33 889 l 33 1067 z "},"^":{"ha":690,"x_min":42,"x_max":649,"o":"m 649 575 l 536 517 l 353 735 l 342 735 l 153 517 l 42 575 l 242 907 l 453 907 l 649 575 z "},"_":{"ha":738,"x_min":56,"x_max":682,"o":"m 682 -169 l 56 -169 l 56 0 l 682 0 l 682 -169 z "},"`":{"ha":544,"x_min":56,"x_max":489,"o":"m 489 829 l 410 710 l 56 853 l 165 1038 l 489 829 z "},"a":{"ha":819,"x_min":29,"x_max":767,"o":"m 93 494 l 67 679 q 463 714 256 714 q 692 650 617 714 q 767 431 767 586 l 767 0 l 535 0 l 508 97 q 268 -19 417 -19 q 97 32 165 -19 q 29 178 29 83 l 29 247 q 90 378 29 331 q 258 426 151 426 l 475 426 l 475 432 q 456 485 474 469 q 393 501 438 501 q 93 494 240 501 m 313 243 l 313 221 q 371 178 313 178 q 475 213 417 178 l 475 286 l 365 286 q 313 243 313 286 z "},"b":{"ha":858,"x_min":58,"x_max":821,"o":"m 350 972 l 353 779 q 332 613 356 692 q 558 714 442 714 q 762 631 703 714 q 821 356 821 549 q 806 217 821 278 q 753 101 792 157 q 638 14 715 44 q 447 -17 561 -17 q 233 -1 353 -17 q 58 42 113 14 l 58 972 l 350 972 m 350 478 l 350 185 q 442 179 408 178 q 504 216 488 182 q 521 354 521 250 q 504 469 521 442 q 436 496 488 496 q 350 478 396 496 z "},"c":{"ha":733,"x_min":36,"x_max":708,"o":"m 682 224 l 708 42 q 406 -17 597 -17 q 119 65 201 -17 q 36 349 36 147 q 119 632 36 550 q 408 714 203 714 q 699 663 592 714 l 669 482 l 458 482 q 366 455 390 482 q 342 349 342 428 q 366 241 342 268 q 458 214 390 214 q 682 224 594 214 z "},"d":{"ha":861,"x_min":39,"x_max":801,"o":"m 801 972 l 801 0 l 569 0 l 546 114 q 290 -17 476 -17 q 99 78 158 -17 q 39 356 39 172 q 102 637 39 560 q 303 714 165 714 q 515 656 436 714 q 510 807 510 753 l 510 972 l 801 972 m 510 238 l 510 506 q 419 524 464 524 q 356 494 372 524 q 339 358 339 464 q 355 242 339 268 q 415 217 371 217 q 510 238 468 217 z "},"e":{"ha":819,"x_min":35,"x_max":790,"o":"m 521 283 l 347 283 q 381 224 356 240 q 463 207 407 207 q 744 222 599 207 l 771 47 q 431 -17 644 -17 q 126 72 218 -17 q 35 342 35 160 q 124 630 35 546 q 429 714 213 714 q 705 653 621 714 q 790 467 789 592 q 731 326 792 368 q 521 283 671 283 m 342 421 l 439 421 q 499 430 486 421 q 511 474 511 439 q 495 516 511 506 q 438 526 479 526 q 363 508 382 528 q 342 421 344 489 z "},"f":{"ha":593,"x_min":11,"x_max":638,"o":"m 610 811 l 488 811 q 435 795 449 811 q 421 739 421 779 l 421 694 l 586 694 l 586 519 l 421 519 l 421 0 l 128 0 l 128 519 l 11 519 l 11 688 l 128 694 l 128 779 q 383 1006 128 1006 q 638 986 540 1006 l 610 811 z "},"g":{"ha":839,"x_min":10,"x_max":835,"o":"m 821 588 l 744 575 q 756 494 756 543 q 676 324 756 374 q 399 275 596 275 q 296 279 342 275 q 290 241 281 264 q 335 217 300 218 l 588 200 q 757 139 704 192 q 810 -18 810 86 q 721 -206 810 -160 q 408 -251 632 -251 q 157 -231 243 -251 q 40 -170 71 -210 q 10 -54 10 -131 q 33 32 10 -3 q 118 93 57 67 q 85 211 72 143 q 157 307 99 279 q 40 494 40 353 q 122 664 40 614 q 400 714 203 714 q 601 694 529 714 l 835 694 l 821 588 m 329 446 q 338 440 329 446 q 399 433 347 433 q 467 446 450 433 q 485 494 485 458 q 467 542 485 531 q 399 554 450 554 q 329 542 347 554 q 311 494 311 531 q 329 446 311 458 m 429 26 l 306 36 q 282 -10 282 18 q 307 -45 282 -36 q 404 -54 332 -54 q 510 -47 483 -54 q 538 -17 538 -39 q 515 15 538 7 q 429 26 493 22 z "},"h":{"ha":863,"x_min":60,"x_max":807,"o":"m 353 972 l 353 765 q 339 611 353 685 q 601 714 467 714 q 807 519 807 714 l 807 0 l 515 0 l 515 426 q 504 458 515 449 q 465 468 493 468 q 351 451 407 468 l 351 0 l 60 0 l 60 972 l 353 972 z "},"i":{"ha":421,"x_min":64,"x_max":357,"o":"m 149 1013 l 272 1013 q 357 926 357 1013 l 357 856 q 272 769 357 769 l 149 769 q 64 856 64 769 l 64 926 q 149 1013 64 1013 m 356 0 l 65 0 l 65 694 l 356 694 l 356 0 z "},"j":{"ha":422,"x_min":-29,"x_max":357,"o":"m 146 1026 l 269 1026 q 354 940 354 1026 l 354 869 q 269 783 354 783 l 146 783 q 61 869 61 783 l 61 940 q 146 1026 61 1026 m 357 694 l 357 81 q 296 -126 357 -31 q 132 -264 235 -222 l -29 -136 q 67 81 67 -40 l 67 694 l 357 694 z "},"k":{"ha":846,"x_min":60,"x_max":858,"o":"m 379 300 l 342 300 q 351 199 351 238 l 351 0 l 60 0 l 60 972 l 351 972 l 351 600 q 340 464 351 535 l 381 464 l 513 694 l 832 694 l 686 467 q 606 383 657 414 l 606 378 q 647 341 622 369 q 686 285 671 313 l 858 0 l 538 0 l 379 300 z "},"l":{"ha":497,"x_min":61,"x_max":500,"o":"m 351 972 l 351 253 q 421 203 351 203 l 468 203 l 500 17 q 409 -10 472 0 q 296 -19 346 -19 q 124 32 186 -19 q 61 175 61 83 l 61 972 l 351 972 z "},"m":{"ha":1229,"x_min":60,"x_max":1174,"o":"m 288 694 l 313 593 q 430 685 372 657 q 561 714 488 714 q 742 611 701 714 q 974 714 846 714 q 1174 519 1174 714 l 1174 0 l 883 0 l 883 426 q 874 459 883 450 q 838 468 864 468 q 757 451 800 468 l 757 0 l 476 0 l 476 426 q 429 468 476 468 q 350 453 393 468 l 350 0 l 60 0 l 60 694 l 288 694 z "},"n":{"ha":863,"x_min":60,"x_max":807,"o":"m 289 694 l 315 592 q 601 714 447 714 q 807 519 807 714 l 807 0 l 515 0 l 515 426 q 504 458 515 449 q 465 468 493 468 q 351 451 407 468 l 351 0 l 60 0 l 60 694 l 289 694 z "},"o":{"ha":849,"x_min":36,"x_max":813,"o":"m 425 714 q 725 631 638 714 q 813 346 813 549 q 725 65 813 146 q 425 -17 638 -17 q 124 65 211 -17 q 36 346 36 146 q 124 631 36 549 q 425 714 211 714 m 425 517 q 358 485 374 517 q 342 346 342 453 q 358 212 342 243 q 425 181 374 181 q 491 212 475 181 q 507 346 507 243 q 491 485 507 453 q 425 517 475 517 z "},"p":{"ha":861,"x_min":60,"x_max":822,"o":"m 293 694 l 317 600 q 421 679 350 647 q 572 711 492 711 q 763 617 704 711 q 822 339 822 522 q 760 57 822 133 q 560 -19 697 -19 q 347 39 425 -19 q 351 -112 353 -60 l 351 -250 l 60 -250 l 60 694 l 293 694 m 351 476 l 351 189 q 443 171 397 171 q 506 201 489 171 q 522 336 522 231 q 506 472 522 442 q 447 501 490 501 q 351 476 401 501 z "},"q":{"ha":858,"x_min":38,"x_max":800,"o":"m 508 -250 l 508 -69 q 528 100 506 18 q 299 -17 422 -17 q 98 74 158 -17 q 38 342 38 164 q 52 491 38 429 q 105 606 67 553 q 219 687 143 660 q 411 714 296 714 q 626 699 506 714 q 800 656 746 683 l 800 -250 l 508 -250 m 508 233 l 508 513 q 417 518 450 519 q 353 481 369 515 q 338 343 338 447 q 354 240 338 264 q 421 215 371 215 q 508 233 460 215 z "},"r":{"ha":628,"x_min":60,"x_max":625,"o":"m 625 714 l 600 447 l 526 447 q 351 433 453 447 l 351 0 l 60 0 l 60 694 l 288 694 l 314 593 q 585 714 443 714 l 625 714 z "},"s":{"ha":768,"x_min":33,"x_max":740,"o":"m 368 242 l 215 283 q 71 368 108 314 q 33 511 33 422 q 107 663 33 611 q 356 714 181 714 q 711 683 563 714 l 693 514 l 419 514 q 330 512 344 514 q 315 497 315 510 q 363 474 315 485 q 397 464 383 468 l 557 424 q 697 349 653 397 q 740 214 740 301 q 665 34 740 83 q 404 -15 589 -15 q 43 14 213 -15 l 61 183 l 308 183 q 435 186 411 183 q 458 204 458 189 q 458 209 458 207 q 455 213 457 211 q 451 217 453 215 q 444 220 449 218 q 435 223 440 222 q 423 226 431 224 q 408 231 415 229 q 390 235 401 232 q 368 242 379 239 z "},"t":{"ha":608,"x_min":14,"x_max":592,"o":"m 424 519 l 424 253 q 438 215 424 226 q 483 203 451 203 l 557 203 l 589 17 q 353 -19 503 -19 q 192 32 251 -19 q 132 175 132 83 l 132 519 l 14 519 l 14 688 l 131 693 l 131 876 l 424 876 l 424 694 l 592 694 l 592 519 l 424 519 z "},"u":{"ha":854,"x_min":56,"x_max":794,"o":"m 794 694 l 794 0 l 565 0 l 539 101 q 261 -19 406 -19 q 56 175 56 -19 l 56 694 l 347 694 l 347 268 q 399 225 347 225 q 501 242 449 225 l 501 694 l 794 694 z "},"v":{"ha":835,"x_min":-4,"x_max":839,"o":"m 839 694 l 633 68 q 542 0 613 0 l 293 0 q 201 68 222 0 l -4 694 l 304 694 l 389 311 q 408 181 397 271 l 426 181 q 447 311 428 188 l 531 694 l 839 694 z "},"w":{"ha":1217,"x_min":11,"x_max":1206,"o":"m 1206 694 l 1064 74 q 1031 20 1057 40 q 969 0 1006 0 l 765 0 q 698 24 726 0 q 665 86 669 49 l 625 401 q 617 524 625 407 l 599 524 q 589 401 593 449 l 549 86 q 516 24 544 49 q 449 0 488 0 l 247 0 q 185 20 211 0 q 153 74 160 40 l 11 694 l 300 694 l 350 304 q 361 181 358 218 l 378 181 q 381 219 379 199 q 386 265 383 240 q 390 304 389 290 l 429 610 q 461 671 433 647 q 528 694 489 694 l 688 694 q 754 671 726 694 q 786 608 782 647 l 824 304 q 831 247 825 290 q 838 181 836 204 l 854 181 q 867 304 867 300 l 915 694 l 1206 694 z "},"x":{"ha":842,"x_min":-4,"x_max":846,"o":"m 557 0 l 421 261 l 285 0 l -4 0 l 197 354 l 11 694 l 299 694 l 421 451 l 543 694 l 831 694 l 644 354 l 846 0 l 557 0 z "},"y":{"ha":836,"x_min":-4,"x_max":839,"o":"m 839 694 l 618 19 q 588 -60 606 -22 q 541 -138 569 -97 q 477 -208 513 -179 q 393 -259 442 -236 q 286 -284 344 -282 q 156 -274 228 -286 l 136 -117 q 265 -74 218 -100 q 340 0 313 -47 l 293 0 q 201 68 222 0 l -4 694 l 306 694 l 388 311 q 406 181 393 274 l 418 181 q 447 311 428 214 l 529 694 l 839 694 z "},"z":{"ha":751,"x_min":40,"x_max":711,"o":"m 711 188 l 711 0 l 40 0 l 40 188 l 363 507 l 49 507 l 49 694 l 703 694 l 703 507 l 381 188 l 711 188 z "},"{":{"ha":499,"x_min":31,"x_max":464,"o":"m 458 1067 l 458 889 q 415 888 426 889 q 391 883 404 888 q 374 867 378 878 q 371 836 371 857 l 371 663 q 338 518 374 568 q 210 456 303 468 q 339 382 303 431 q 376 254 375 333 l 376 -3 q 377 -17 376 -11 q 378 -28 378 -24 q 383 -37 379 -33 q 388 -43 386 -40 q 395 -47 389 -46 q 404 -50 401 -49 q 416 -51 407 -51 q 429 -51 425 -51 q 446 -51 433 -51 q 464 -51 458 -51 l 464 -229 q 190 -200 281 -258 q 99 -26 99 -142 l 99 282 q 96 317 99 304 q 81 339 93 329 q 63 352 69 349 q 31 365 57 356 l 31 546 q 72 561 63 556 q 87 583 81 567 q 93 635 93 599 l 93 864 q 184 1038 93 979 q 458 1067 275 1096 z "},"|":{"ha":383,"x_min":90,"x_max":293,"o":"m 293 -235 l 90 -235 l 90 1085 l 293 1085 l 293 -235 z "},"}":{"ha":499,"x_min":35,"x_max":468,"o":"m 40 889 l 40 1067 q 315 1038 224 1096 q 406 864 406 979 l 406 635 q 412 583 406 599 q 427 561 418 567 q 468 546 436 556 l 468 365 q 442 354 446 356 q 424 345 438 353 q 409 331 411 338 q 403 313 407 325 q 400 282 400 300 l 400 -26 q 309 -200 400 -142 q 35 -229 218 -258 l 35 -51 q 53 -51 40 -51 q 69 -51 65 -51 q 83 -51 74 -51 q 94 -50 92 -51 q 103 -47 97 -49 q 111 -43 110 -46 q 116 -37 113 -40 q 120 -28 119 -33 q 122 -17 121 -24 q 122 -3 122 -11 l 122 254 q 160 382 124 333 q 289 456 196 431 q 160 518 196 468 q 128 663 125 568 l 128 836 q 112 881 128 874 q 40 889 96 889 z "},"~":{"ha":694,"x_min":63,"x_max":632,"o":"m 183 288 l 63 288 q 78 464 42 404 q 181 522 115 524 q 272 509 210 522 q 398 480 335 496 q 471 463 461 464 q 506 467 500 457 q 511 515 511 478 l 632 515 q 618 339 653 400 q 514 281 583 278 q 424 294 485 281 q 299 322 363 307 q 222 340 236 338 q 189 336 194 344 q 183 296 183 328 q 183 288 183 290 z "}," ":{"ha":292,"x_min":0,"x_max":0,"o":""},"¡":{"ha":433,"x_min":72,"x_max":361,"o":"m 185 722 l 250 722 q 328 701 307 722 q 350 622 350 679 l 350 565 q 328 487 350 508 q 250 465 307 465 l 185 465 q 106 487 128 465 q 85 565 85 508 l 85 622 q 106 701 85 679 q 185 722 128 722 m 361 82 l 361 -243 l 72 -243 l 72 82 l 103 407 l 331 407 l 361 82 z "},"¢":{"ha":751,"x_min":35,"x_max":714,"o":"m 688 343 l 714 175 q 482 119 625 129 l 468 0 l 253 0 l 268 128 q 88 235 142 153 q 35 482 35 318 q 110 756 35 672 q 365 846 185 839 l 379 958 l 596 958 l 581 833 q 704 796 651 819 l 675 629 l 461 629 q 350 601 378 629 q 322 482 322 572 q 350 363 322 392 q 461 333 378 333 q 688 343 599 333 z "},"£":{"ha":838,"x_min":49,"x_max":799,"o":"m 799 232 l 799 0 l 53 0 l 53 232 q 144 310 122 264 q 158 422 165 356 l 157 436 l 51 436 l 49 575 l 146 575 l 135 707 q 195 919 124 863 q 443 976 267 976 q 768 963 586 976 l 754 747 l 497 747 q 442 734 458 747 q 429 693 426 721 l 442 575 l 651 575 l 644 436 l 457 436 l 458 422 q 447 326 463 367 q 417 270 432 285 q 365 226 403 256 q 356 218 358 221 q 475 232 394 232 l 799 232 z "},"¤":{"ha":799,"x_min":42,"x_max":753,"o":"m 753 721 l 656 624 q 689 489 689 560 q 654 351 689 417 l 753 256 l 633 138 l 536 233 q 399 199 474 199 q 263 232 329 199 l 169 139 l 42 267 l 138 361 q 108 489 108 424 q 143 628 108 563 l 50 721 l 169 839 l 263 744 q 399 779 325 779 q 539 743 475 779 l 635 839 l 753 721 m 311 401 q 330 382 311 401 q 399 363 349 363 q 486 401 449 363 q 524 490 524 439 q 486 581 524 543 q 399 618 449 618 q 311 581 349 618 q 274 490 274 543 q 311 401 274 439 z "},"¥":{"ha":986,"x_min":25,"x_max":961,"o":"m 753 525 l 849 525 l 849 372 l 140 372 l 138 525 l 233 525 l 25 958 l 335 958 l 456 671 q 485 536 468 643 l 503 536 q 532 672 519 643 l 651 958 l 961 958 l 753 525 m 138 331 l 849 331 l 849 178 l 644 178 l 644 0 l 343 0 l 343 178 l 140 178 l 138 331 z "},"¦":{"ha":386,"x_min":92,"x_max":294,"o":"m 294 529 l 92 529 l 92 1085 l 294 1085 l 294 529 m 294 -235 l 92 -235 l 92 321 l 294 321 l 294 -235 z "},"§":{"ha":785,"x_min":46,"x_max":739,"o":"m 390 410 l 189 515 q 94 583 121 551 q 46 746 46 644 q 128 928 46 878 q 393 978 211 978 q 721 961 567 978 l 701 764 q 483 765 679 765 q 388 760 413 765 q 358 736 363 756 q 418 675 351 704 l 578 600 q 731 455 704 540 q 706 246 758 369 l 506 246 q 486 343 506 318 q 390 410 467 368 m 79 458 l 279 458 q 299 360 279 386 q 394 294 318 335 l 596 189 q 642 163 628 172 q 685 126 657 153 q 726 58 713 100 q 739 -43 739 15 q 656 -224 739 -174 q 392 -274 574 -274 q 64 -257 197 -274 l 83 -60 q 301 -62 128 -62 q 396 -56 369 -62 q 426 -32 422 -50 q 420 -6 429 -18 q 400 12 411 6 q 367 28 389 18 l 207 104 q 53 249 81 164 q 79 458 26 335 z "},"¨":{"ha":606,"x_min":69,"x_max":536,"o":"m 124 1000 l 219 1000 q 274 946 274 1000 l 274 858 q 219 804 274 804 l 124 804 q 69 858 69 804 l 69 946 q 124 1000 69 1000 m 386 1000 l 482 1000 q 536 946 536 1000 l 536 858 q 482 804 536 804 l 386 804 q 332 858 332 804 l 332 946 q 386 1000 332 1000 z "},"©":{"ha":1086,"x_min":38,"x_max":1049,"o":"m 543 978 q 903 837 758 978 q 1049 479 1049 696 q 903 122 1049 263 q 543 -19 758 -19 q 183 122 329 -19 q 38 479 38 264 q 183 836 38 694 q 543 978 329 978 m 543 843 q 285 739 392 843 q 179 479 179 635 q 285 219 179 324 q 543 115 392 115 q 801 219 696 115 q 907 479 907 322 q 801 740 907 636 q 543 843 696 843 m 739 388 l 754 238 q 549 208 668 208 q 340 269 400 208 q 279 481 279 331 q 340 691 279 631 q 549 751 400 751 q 742 729 654 751 l 726 578 l 549 578 q 508 561 515 578 q 500 481 500 544 q 508 399 500 415 q 549 383 515 383 q 739 388 681 383 z "},"ª":{"ha":601,"x_min":42,"x_max":546,"o":"m 88 708 l 68 842 q 338 865 199 865 q 494 822 443 865 q 546 669 546 778 l 546 385 l 378 385 l 361 446 q 203 371 303 371 q 88 406 135 371 q 42 504 42 442 l 42 550 q 83 640 42 607 q 197 672 125 672 l 336 672 q 288 713 336 713 q 88 708 165 713 m 244 547 l 244 536 q 279 513 244 513 q 336 529 303 513 l 336 578 l 278 572 q 244 547 244 568 z "},"«":{"ha":767,"x_min":29,"x_max":728,"o":"m 401 557 l 282 349 l 401 132 l 249 36 l 29 318 l 29 379 l 249 653 l 401 557 m 728 557 l 608 349 l 728 132 l 575 36 l 356 318 l 356 379 l 575 653 l 728 557 z "},"¬":{"ha":793,"x_min":57,"x_max":726,"o":"m 726 529 l 726 190 l 511 190 l 511 329 l 57 329 l 57 529 l 726 529 z "},"­":{"ha":528,"x_min":61,"x_max":465,"o":"m 465 272 l 61 272 l 61 442 l 465 442 l 465 272 z "},"®":{"ha":685,"x_min":33,"x_max":651,"o":"m 343 978 q 561 888 471 978 q 651 669 651 797 q 561 450 651 540 q 343 360 471 360 q 124 450 214 360 q 33 669 33 540 q 124 888 33 797 q 343 978 214 978 m 343 439 q 503 506 436 439 q 571 669 571 574 q 503 831 571 764 q 343 899 436 899 q 181 831 249 899 q 114 669 114 764 q 181 506 114 574 q 343 439 249 439 m 506 532 l 381 532 l 365 615 q 340 631 360 631 l 324 631 l 324 532 l 206 532 l 206 821 q 349 825 250 825 q 460 806 426 825 q 493 736 493 786 q 425 669 493 676 l 425 667 q 482 619 472 664 l 506 532 m 324 701 l 344 701 q 368 706 363 701 q 374 724 374 711 q 369 740 374 736 q 344 743 364 743 l 324 743 l 324 701 z "},"¯":{"ha":556,"x_min":56,"x_max":500,"o":"m 500 819 l 56 819 l 56 990 l 500 990 l 500 819 z "},"°":{"ha":451,"x_min":28,"x_max":424,"o":"m 226 978 q 365 922 307 978 q 424 785 424 865 q 365 647 424 703 q 226 590 307 590 q 86 647 144 590 q 28 785 28 703 q 86 922 28 865 q 226 978 144 978 m 226 853 q 180 833 199 853 q 161 785 161 814 q 180 735 161 756 q 226 715 199 715 q 272 735 253 715 q 290 785 290 756 q 272 833 290 814 q 226 853 253 853 z "},"±":{"ha":775,"x_min":61,"x_max":714,"o":"m 714 646 l 714 432 l 494 432 l 494 283 l 282 283 l 282 432 l 61 432 l 61 646 l 282 646 l 282 796 l 493 796 l 493 646 l 714 646 m 61 242 l 714 242 l 714 26 l 61 26 l 61 242 z "},"²":{"ha":599,"x_min":51,"x_max":550,"o":"m 63 906 l 57 1068 q 279 1085 157 1085 q 477 1051 418 1085 q 536 921 536 1018 q 513 853 536 892 q 447 779 489 814 l 321 675 q 400 686 364 688 l 550 682 l 550 500 l 51 500 l 51 610 q 82 699 51 669 l 186 786 q 294 889 279 865 q 283 901 301 900 q 256 903 275 903 q 63 906 147 903 z "},"³":{"ha":571,"x_min":44,"x_max":533,"o":"m 64 919 l 58 1071 q 288 1088 175 1088 q 467 1058 417 1088 q 517 953 517 1029 q 494 849 517 882 q 406 807 472 815 l 406 804 q 505 763 478 794 q 533 660 532 732 q 479 526 535 565 q 288 488 424 488 q 44 504 175 488 l 50 661 q 224 660 94 660 q 292 665 279 660 q 306 692 306 669 q 296 718 306 713 q 249 725 286 724 l 128 729 l 128 858 l 249 864 q 293 869 285 865 q 301 892 301 874 q 292 913 301 908 q 247 917 283 917 q 64 919 161 917 z "},"´":{"ha":544,"x_min":56,"x_max":489,"o":"m 489 853 l 135 710 l 56 829 l 379 1038 l 489 853 z "},"¶":{"ha":863,"x_min":28,"x_max":763,"o":"m 356 -292 l 356 279 q 103 375 179 294 q 28 625 28 456 q 135 896 28 817 q 496 975 242 975 q 763 951 656 975 l 763 0 l 586 0 l 586 803 l 532 804 l 532 -292 l 356 -292 z "},"·":{"ha":368,"x_min":51,"x_max":317,"o":"m 151 488 l 217 488 q 295 466 274 488 q 317 388 317 444 l 317 331 q 295 252 317 274 q 217 231 274 231 l 151 231 q 73 252 94 231 q 51 331 51 274 l 51 388 q 73 466 51 444 q 151 488 94 488 z "},"¸":{"ha":365,"x_min":19,"x_max":344,"o":"m 74 -146 l 100 -46 q 290 -42 231 -25 q 344 -136 349 -58 q 247 -305 339 -251 q 19 -340 156 -358 l 50 -232 q 136 -219 106 -232 q 171 -161 167 -206 q 156 -146 172 -147 q 74 -146 153 -146 z "},"¹":{"ha":446,"x_min":8,"x_max":382,"o":"m 382 500 l 160 500 l 160 821 q 168 904 160 869 l 33 885 l 8 1021 l 160 1075 l 382 1075 l 382 500 z "},"º":{"ha":604,"x_min":38,"x_max":567,"o":"m 97 809 q 127 837 97 809 q 303 865 157 865 q 508 809 449 865 q 567 617 567 753 q 508 428 567 482 q 303 374 449 374 q 97 428 157 374 q 38 617 38 482 q 97 809 38 753 m 303 724 q 265 704 274 724 q 257 617 257 685 q 265 533 257 551 q 303 514 274 514 q 339 533 331 514 q 347 617 347 551 q 339 704 347 685 q 303 724 331 724 z "},"»":{"ha":767,"x_min":39,"x_max":738,"o":"m 411 379 l 411 318 l 192 36 l 39 132 l 158 349 l 39 557 l 192 653 l 411 379 m 738 379 l 738 318 l 518 36 l 365 132 l 485 349 l 365 557 l 518 653 l 738 379 z "},"¼":{"ha":1311,"x_min":26,"x_max":1278,"o":"m 167 383 l 167 704 q 175 788 167 753 l 51 768 l 26 904 l 167 958 l 389 958 l 389 383 l 167 383 m 949 958 l 411 0 l 236 0 l 774 958 l 949 958 m 1278 246 l 1278 125 l 1217 106 l 1215 106 l 1215 0 l 1011 0 l 1011 106 l 772 106 q 711 133 732 106 q 704 196 690 161 l 847 575 l 1043 575 l 928 260 q 942 246 922 246 l 1011 246 l 1011 375 l 1046 460 l 1215 460 l 1215 246 l 1278 246 z "},"½":{"ha":1310,"x_min":26,"x_max":1268,"o":"m 389 383 l 167 383 l 167 704 q 175 788 167 753 l 51 768 l 26 904 l 167 958 l 389 958 l 389 383 m 411 0 l 236 0 l 772 958 l 949 958 l 411 0 m 789 406 l 783 568 q 1001 585 882 585 q 1198 551 1140 585 q 1256 421 1256 518 q 1233 353 1256 393 q 1168 279 1210 314 l 1047 175 q 1124 186 1090 188 l 1268 182 l 1268 0 l 778 0 l 778 110 q 808 199 778 169 l 908 286 q 1014 389 1004 375 q 1001 403 1021 400 q 978 403 993 403 q 789 406 872 403 z "},"¾":{"ha":1413,"x_min":42,"x_max":1382,"o":"m 396 686 l 396 683 q 494 642 468 674 q 521 539 519 611 q 468 406 522 444 q 281 367 414 367 q 42 383 171 367 l 47 540 q 217 539 92 539 q 281 544 269 539 q 293 571 293 549 q 284 602 293 596 q 242 607 275 608 l 124 607 l 124 739 l 242 739 q 281 744 274 739 q 289 771 289 750 q 281 791 289 788 q 240 796 274 794 q 61 799 107 799 l 56 950 q 282 967 169 967 q 456 938 408 967 q 504 832 504 908 q 483 727 504 760 q 396 686 461 694 m 1054 958 l 517 0 l 342 0 l 878 958 l 1054 958 m 1382 246 l 1382 125 l 1321 106 l 1319 106 l 1319 0 l 1115 0 l 1115 106 l 878 106 q 816 133 838 106 q 808 196 794 161 l 951 575 l 1147 575 l 1032 260 q 1033 249 1029 251 q 1047 246 1036 246 l 1115 246 l 1115 375 l 1150 460 l 1319 460 l 1319 246 l 1382 246 z "},"¿":{"ha":738,"x_min":26,"x_max":708,"o":"m 361 719 l 426 719 q 505 698 483 719 q 526 619 526 676 l 526 563 q 505 484 526 506 q 426 463 483 463 l 361 463 q 283 484 304 463 q 261 563 261 506 l 261 619 q 283 698 261 676 q 361 719 304 719 m 279 404 l 507 404 q 488 254 511 325 q 432 143 464 183 q 370 65 400 103 q 336 7 340 26 q 348 -29 331 -19 q 414 -39 365 -39 l 701 -39 l 708 -231 q 656 -241 697 -233 q 604 -251 615 -249 q 558 -258 593 -253 q 497 -265 522 -264 q 431 -268 472 -267 q 342 -269 390 -269 q 103 -217 181 -269 q 26 -54 26 -164 q 50 48 26 1 q 108 130 74 94 q 178 201 142 165 q 243 290 214 238 q 279 404 272 342 z "},"À":{"ha":949,"x_min":-12,"x_max":961,"o":"m 536 1000 l 182 1143 l 292 1328 l 615 1119 l 536 1000 m 606 207 l 343 207 l 294 0 l -12 0 l 236 881 q 274 937 246 915 q 338 958 301 958 l 611 958 q 675 937 647 958 q 713 881 703 915 l 961 0 l 654 0 l 606 207 m 557 418 l 510 624 q 493 733 497 689 l 456 733 q 439 624 447 668 l 392 418 l 557 418 z "},"Á":{"ha":949,"x_min":-12,"x_max":961,"o":"m 414 1000 l 335 1119 l 658 1328 l 768 1143 l 414 1000 m 606 207 l 343 207 l 294 0 l -12 0 l 236 881 q 274 937 246 915 q 338 958 301 958 l 611 958 q 675 937 647 958 q 713 881 703 915 l 961 0 l 654 0 l 606 207 m 557 418 l 510 624 q 493 733 497 689 l 456 733 q 439 624 447 668 l 392 418 l 557 418 z "},"Â":{"ha":949,"x_min":-12,"x_max":961,"o":"m 247 986 l 178 1093 l 372 1278 l 583 1278 l 771 1082 l 704 986 l 483 1115 l 472 1115 l 247 986 m 606 207 l 343 207 l 294 0 l -12 0 l 236 881 q 274 937 246 915 q 338 958 301 958 l 611 958 q 675 937 647 958 q 713 881 703 915 l 961 0 l 654 0 l 606 207 m 557 418 l 510 624 q 493 733 497 689 l 456 733 q 439 624 447 668 l 392 418 l 557 418 z "},"Ã":{"ha":949,"x_min":-12,"x_max":961,"o":"m 332 1043 l 211 1043 q 228 1220 190 1158 q 329 1278 267 1282 q 465 1248 385 1274 q 564 1218 546 1222 q 599 1223 593 1213 q 604 1271 604 1233 l 725 1271 q 710 1095 746 1158 q 607 1036 675 1032 q 471 1067 553 1040 q 371 1096 389 1093 q 338 1092 343 1100 q 332 1051 332 1083 q 332 1043 332 1046 m 606 207 l 343 207 l 294 0 l -12 0 l 236 881 q 274 937 246 915 q 338 958 301 958 l 611 958 q 675 937 647 958 q 713 881 703 915 l 961 0 l 654 0 l 606 207 m 557 418 l 510 624 q 493 733 497 689 l 456 733 q 439 624 447 668 l 392 418 l 557 418 z "},"Ä":{"ha":949,"x_min":-12,"x_max":961,"o":"m 390 1060 l 294 1060 q 240 1114 240 1060 l 240 1201 q 294 1256 240 1256 l 390 1256 q 444 1201 444 1256 l 444 1114 q 390 1060 444 1060 m 653 1060 l 557 1060 q 503 1114 503 1060 l 503 1201 q 557 1256 503 1256 l 653 1256 q 707 1201 707 1256 l 707 1114 q 653 1060 707 1060 m 606 207 l 343 207 l 294 0 l -12 0 l 236 881 q 274 937 246 915 q 338 958 301 958 l 611 958 q 675 937 647 958 q 713 881 703 915 l 961 0 l 654 0 l 606 207 m 557 418 l 510 624 q 493 733 497 689 l 456 733 q 439 624 447 668 l 392 418 l 557 418 z "},"Å":{"ha":949,"x_min":-12,"x_max":961,"o":"m 603 1041 q 576 1016 603 1041 q 476 990 550 990 q 350 1041 403 990 q 297 1164 297 1092 q 350 1287 297 1236 q 476 1338 403 1338 q 603 1287 550 1338 q 656 1164 656 1236 q 603 1041 656 1092 m 519 1208 q 510 1217 519 1208 q 476 1226 501 1226 q 433 1208 451 1226 q 415 1164 415 1189 q 433 1119 415 1138 q 476 1101 451 1101 q 519 1119 501 1101 q 538 1164 538 1138 q 519 1208 538 1189 m 606 207 l 343 207 l 294 0 l -12 0 l 236 881 q 274 937 246 915 q 338 958 301 958 l 611 958 q 675 937 647 958 q 713 881 703 915 l 961 0 l 654 0 l 606 207 m 557 418 l 510 624 q 493 733 497 689 l 456 733 q 439 624 447 668 l 392 418 l 557 418 z "},"Æ":{"ha":1325,"x_min":-26,"x_max":1286,"o":"m 1272 221 l 1286 13 q 813 -6 1142 -6 q 665 54 719 -6 q 610 213 610 114 l 610 224 l 374 224 l 281 0 l -26 0 l 308 742 q 394 869 346 825 q 540 938 443 914 q 800 961 636 961 q 1286 946 1118 961 l 1272 738 l 944 738 q 906 724 921 738 q 890 688 890 710 l 890 583 l 1225 583 l 1225 397 l 890 397 l 890 271 q 905 235 890 249 q 944 221 919 221 l 1272 221 m 610 429 l 610 692 q 631 778 610 736 l 611 778 q 579 717 606 771 l 460 429 l 610 429 z "},"Ç":{"ha":840,"x_min":44,"x_max":815,"o":"m 793 249 l 815 29 q 479 -17 682 -17 q 142 94 240 -17 q 44 479 44 206 q 142 864 44 753 q 479 975 240 975 q 794 938 658 975 l 772 718 q 479 721 578 721 q 385 673 408 721 q 361 479 361 625 q 385 285 361 333 q 479 238 408 238 q 793 249 686 238 m 328 -190 l 354 -90 q 544 -86 485 -69 q 599 -181 603 -103 q 501 -349 593 -296 q 274 -385 410 -403 l 304 -276 q 390 -263 360 -276 q 425 -206 421 -250 q 410 -190 426 -192 q 328 -190 407 -190 z "},"È":{"ha":828,"x_min":65,"x_max":789,"o":"m 508 1000 l 154 1143 l 264 1328 l 588 1119 l 508 1000 m 775 225 l 789 13 q 290 -6 650 -6 q 128 55 192 -6 q 65 213 65 115 l 65 746 q 128 903 65 843 q 290 964 192 964 q 789 946 650 964 l 775 733 l 424 733 q 382 719 397 733 q 367 683 367 706 l 367 590 l 725 590 l 725 390 l 367 390 l 367 275 q 382 239 367 253 q 424 225 397 225 l 775 225 z "},"É":{"ha":828,"x_min":65,"x_max":789,"o":"m 386 1000 l 307 1119 l 631 1328 l 740 1143 l 386 1000 m 775 225 l 789 13 q 290 -6 650 -6 q 128 55 192 -6 q 65 213 65 115 l 65 746 q 128 903 65 843 q 290 964 192 964 q 789 946 650 964 l 775 733 l 424 733 q 382 719 397 733 q 367 683 367 706 l 367 590 l 725 590 l 725 390 l 367 390 l 367 275 q 382 239 367 253 q 424 225 397 225 l 775 225 z "},"Ê":{"ha":828,"x_min":65,"x_max":789,"o":"m 219 986 l 150 1093 l 344 1278 l 556 1278 l 743 1082 l 676 986 l 456 1115 l 444 1115 l 219 986 m 775 225 l 789 13 q 290 -6 650 -6 q 128 55 192 -6 q 65 213 65 115 l 65 746 q 128 903 65 843 q 290 964 192 964 q 789 946 650 964 l 775 733 l 424 733 q 382 719 397 733 q 367 683 367 706 l 367 590 l 725 590 l 725 390 l 367 390 l 367 275 q 382 239 367 253 q 424 225 397 225 l 775 225 z "},"Ë":{"ha":828,"x_min":65,"x_max":789,"o":"m 363 1060 l 267 1060 q 213 1114 213 1060 l 213 1201 q 267 1256 213 1256 l 363 1256 q 417 1201 417 1256 l 417 1114 q 363 1060 417 1060 m 625 1060 l 529 1060 q 475 1114 475 1060 l 475 1201 q 529 1256 475 1256 l 625 1256 q 679 1201 679 1256 l 679 1114 q 625 1060 679 1060 m 775 225 l 789 13 q 290 -6 650 -6 q 128 55 192 -6 q 65 213 65 115 l 65 746 q 128 903 65 843 q 290 964 192 964 q 789 946 650 964 l 775 733 l 424 733 q 382 719 397 733 q 367 683 367 706 l 367 590 l 725 590 l 725 390 l 367 390 l 367 275 q 382 239 367 253 q 424 225 397 225 l 775 225 z "},"Ì":{"ha":446,"x_min":-71,"x_max":372,"o":"m 363 1119 l 283 1000 l -71 1143 l 39 1328 l 363 1119 m 372 0 l 74 0 l 74 958 l 372 958 l 372 0 z "},"Í":{"ha":446,"x_min":74,"x_max":515,"o":"m 515 1143 l 161 1000 l 82 1119 l 406 1328 l 515 1143 m 372 0 l 74 0 l 74 958 l 372 958 l 372 0 z "},"Î":{"ha":446,"x_min":-75,"x_max":518,"o":"m 518 1082 l 451 986 l 231 1115 l 219 1115 l -6 986 l -75 1093 l 119 1278 l 331 1278 l 518 1082 m 372 0 l 74 0 l 74 958 l 372 958 l 372 0 z "},"Ï":{"ha":446,"x_min":-12,"x_max":454,"o":"m 42 1256 l 138 1256 q 192 1201 192 1256 l 192 1114 q 138 1060 192 1060 l 42 1060 q -12 1114 -12 1060 l -12 1201 q 42 1256 -12 1256 m 304 1256 l 400 1256 q 454 1201 454 1256 l 454 1114 q 400 1060 454 1060 l 304 1060 q 250 1114 250 1060 l 250 1201 q 304 1256 250 1256 m 372 0 l 74 0 l 74 958 l 372 958 l 372 0 z "},"Ð":{"ha":974,"x_min":10,"x_max":929,"o":"m 72 568 l 72 958 q 482 972 317 972 q 747 930 653 972 q 885 781 840 888 q 929 479 929 675 q 885 177 929 283 q 747 28 840 71 q 482 -14 653 -14 q 72 0 274 -14 l 72 424 l 10 424 l 10 568 l 72 568 m 374 206 l 482 204 q 585 259 560 204 q 611 479 611 314 q 585 699 611 644 q 482 754 560 754 l 374 754 l 374 568 l 511 568 l 511 424 l 374 424 l 374 206 z "},"Ñ":{"ha":1025,"x_min":72,"x_max":954,"o":"m 379 1043 l 258 1043 q 276 1220 238 1158 q 376 1278 314 1282 q 513 1248 432 1274 q 611 1218 593 1222 q 646 1223 640 1213 q 651 1271 651 1233 l 772 1271 q 758 1095 793 1158 q 654 1036 722 1032 q 518 1067 600 1040 q 418 1096 436 1093 q 385 1092 390 1100 q 379 1051 379 1083 q 379 1043 379 1046 m 954 958 l 954 104 q 850 0 954 0 l 735 0 q 669 19 692 0 q 618 88 646 39 l 410 417 q 346 581 375 479 l 336 581 q 350 406 350 483 l 350 0 l 72 0 l 72 854 q 176 958 72 958 l 292 958 q 357 939 335 958 q 408 871 379 919 l 608 557 q 682 393 646 490 l 692 393 q 678 567 679 496 l 678 958 l 954 958 z "},"Ò":{"ha":982,"x_min":44,"x_max":938,"o":"m 629 1119 l 550 1000 l 196 1143 l 306 1328 l 629 1119 m 490 978 q 755 935 661 978 q 893 785 849 893 q 938 479 938 678 q 893 173 938 281 q 755 23 849 65 q 490 -19 661 -19 q 227 23 321 -19 q 89 173 133 65 q 44 479 44 281 q 89 785 44 678 q 227 935 133 893 q 490 978 321 978 m 594 699 q 581 727 594 699 q 490 754 568 754 q 387 699 413 754 q 361 479 361 644 q 387 259 361 314 q 490 204 413 204 q 594 259 568 204 q 619 479 619 314 q 594 699 619 644 z "},"Ó":{"ha":982,"x_min":44,"x_max":938,"o":"m 782 1143 l 428 1000 l 349 1119 l 672 1328 l 782 1143 m 490 978 q 755 935 661 978 q 893 785 849 893 q 938 479 938 678 q 893 173 938 281 q 755 23 849 65 q 490 -19 661 -19 q 227 23 321 -19 q 89 173 133 65 q 44 479 44 281 q 89 785 44 678 q 227 935 133 893 q 490 978 321 978 m 594 699 q 581 727 594 699 q 490 754 568 754 q 387 699 413 754 q 361 479 361 644 q 387 259 361 314 q 490 204 413 204 q 594 259 568 204 q 619 479 619 314 q 594 699 619 644 z "},"Ô":{"ha":982,"x_min":44,"x_max":938,"o":"m 785 1082 l 718 986 l 497 1115 l 486 1115 l 261 986 l 192 1093 l 386 1278 l 597 1278 l 785 1082 m 490 978 q 755 935 661 978 q 893 785 849 893 q 938 479 938 678 q 893 173 938 281 q 755 23 849 65 q 490 -19 661 -19 q 227 23 321 -19 q 89 173 133 65 q 44 479 44 281 q 89 785 44 678 q 227 935 133 893 q 490 978 321 978 m 594 699 q 581 727 594 699 q 490 754 568 754 q 387 699 413 754 q 361 479 361 644 q 387 259 361 314 q 490 204 413 204 q 594 259 568 204 q 619 479 619 314 q 594 699 619 644 z "},"Õ":{"ha":982,"x_min":44,"x_max":938,"o":"m 346 1043 l 225 1043 q 242 1220 204 1158 q 343 1278 281 1282 q 479 1248 399 1274 q 578 1218 560 1222 q 613 1223 607 1213 q 618 1271 618 1233 l 739 1271 q 724 1095 760 1158 q 621 1036 689 1032 q 485 1067 567 1040 q 385 1096 403 1093 q 351 1092 357 1100 q 346 1051 346 1083 q 346 1043 346 1046 m 490 978 q 755 935 661 978 q 893 785 849 893 q 938 479 938 678 q 893 173 938 281 q 755 23 849 65 q 490 -19 661 -19 q 227 23 321 -19 q 89 173 133 65 q 44 479 44 281 q 89 785 44 678 q 227 935 133 893 q 490 978 321 978 m 594 699 q 581 727 594 699 q 490 754 568 754 q 387 699 413 754 q 361 479 361 644 q 387 259 361 314 q 490 204 413 204 q 594 259 568 204 q 619 479 619 314 q 594 699 619 644 z "},"Ö":{"ha":982,"x_min":44,"x_max":938,"o":"m 308 1256 l 404 1256 q 458 1201 458 1256 l 458 1114 q 404 1060 458 1060 l 308 1060 q 254 1114 254 1060 l 254 1201 q 308 1256 254 1256 m 571 1256 l 667 1256 q 721 1201 721 1256 l 721 1114 q 667 1060 721 1060 l 571 1060 q 517 1114 517 1060 l 517 1201 q 571 1256 517 1256 m 490 978 q 755 935 661 978 q 893 785 849 893 q 938 479 938 678 q 893 173 938 281 q 755 23 849 65 q 490 -19 661 -19 q 227 23 321 -19 q 89 173 133 65 q 44 479 44 281 q 89 785 44 678 q 227 935 133 893 q 490 978 321 978 m 594 699 q 581 727 594 699 q 490 754 568 754 q 387 699 413 754 q 361 479 361 644 q 387 259 361 314 q 490 204 413 204 q 594 259 568 204 q 619 479 619 314 q 594 699 619 644 z "},"×":{"ha":703,"x_min":26,"x_max":679,"o":"m 26 257 l 160 97 l 679 556 l 544 717 l 26 257 z "},"Ø":{"ha":982,"x_min":44,"x_max":938,"o":"m 878 1014 l 822 892 q 910 738 883 838 q 938 479 938 639 q 893 173 938 281 q 755 23 849 65 q 490 -19 661 -19 q 393 -15 439 -19 l 324 -164 l 100 -57 l 160 68 q 44 479 44 169 q 89 785 44 678 q 227 935 133 893 q 490 978 321 978 q 588 974 542 978 l 654 1119 l 878 1014 m 387 259 q 400 232 387 259 q 490 204 413 204 q 594 259 568 204 q 619 479 619 314 q 594 699 619 644 q 490 754 568 754 q 387 699 413 754 q 361 479 361 644 q 387 259 361 314 z "},"Ù":{"ha":979,"x_min":65,"x_max":914,"o":"m 629 1119 l 550 1000 l 196 1143 l 306 1328 l 629 1119 m 914 958 l 914 396 q 822 74 914 167 q 506 -19 731 -19 q 164 74 263 -19 q 65 396 65 167 l 65 958 l 367 958 l 367 396 q 392 242 367 281 q 490 204 417 204 q 588 242 563 204 q 613 396 613 281 l 613 958 l 914 958 z "},"Ú":{"ha":979,"x_min":65,"x_max":914,"o":"m 782 1143 l 428 1000 l 349 1119 l 672 1328 l 782 1143 m 914 958 l 914 396 q 822 74 914 167 q 506 -19 731 -19 q 164 74 263 -19 q 65 396 65 167 l 65 958 l 367 958 l 367 396 q 392 242 367 281 q 490 204 417 204 q 588 242 563 204 q 613 396 613 281 l 613 958 l 914 958 z "},"Û":{"ha":979,"x_min":65,"x_max":914,"o":"m 785 1082 l 718 986 l 497 1115 l 486 1115 l 261 986 l 192 1093 l 386 1278 l 597 1278 l 785 1082 m 914 958 l 914 396 q 822 74 914 167 q 506 -19 731 -19 q 164 74 263 -19 q 65 396 65 167 l 65 958 l 367 958 l 367 396 q 392 242 367 281 q 490 204 417 204 q 588 242 563 204 q 613 396 613 281 l 613 958 l 914 958 z "},"Ü":{"ha":979,"x_min":65,"x_max":914,"o":"m 308 1256 l 404 1256 q 458 1201 458 1256 l 458 1114 q 404 1060 458 1060 l 308 1060 q 254 1114 254 1060 l 254 1201 q 308 1256 254 1256 m 571 1256 l 667 1256 q 721 1201 721 1256 l 721 1114 q 667 1060 721 1060 l 571 1060 q 517 1114 517 1060 l 517 1201 q 571 1256 517 1256 m 914 958 l 914 396 q 822 74 914 167 q 506 -19 731 -19 q 164 74 263 -19 q 65 396 65 167 l 65 958 l 367 958 l 367 396 q 392 242 367 281 q 490 204 417 204 q 588 242 563 204 q 613 396 613 281 l 613 958 l 914 958 z "},"Ý":{"ha":908,"x_min":-14,"x_max":922,"o":"m 392 1000 l 313 1119 l 636 1328 l 746 1143 l 392 1000 m 606 299 l 606 0 l 304 0 l 304 296 l -14 958 l 296 958 l 417 657 q 446 522 429 626 l 464 522 q 493 658 481 624 l 613 958 l 922 958 l 606 299 z "},"Þ":{"ha":879,"x_min":74,"x_max":856,"o":"m 375 803 l 468 803 q 774 735 692 803 q 856 476 856 667 q 780 221 856 289 q 510 153 704 153 q 375 160 449 153 l 375 0 l 74 0 l 74 958 l 375 958 l 375 803 m 375 365 l 461 365 q 535 388 517 365 q 554 476 554 410 q 535 568 554 546 q 461 590 517 590 l 375 590 l 375 365 z "},"ß":{"ha":1025,"x_min":11,"x_max":1017,"o":"m 831 443 l 903 385 q 995 290 974 324 q 1017 196 1017 257 q 954 37 1017 89 q 731 -15 892 -15 q 479 0 644 -15 l 497 178 l 660 178 q 717 186 710 178 q 721 206 721 192 q 715 224 721 214 q 698 245 710 233 q 675 267 686 257 q 644 293 664 276 q 611 321 624 310 l 569 349 q 497 426 521 389 q 474 514 474 463 q 481 556 474 536 q 496 587 488 575 q 524 626 504 599 q 558 672 544 653 q 597 734 588 714 q 606 778 606 754 q 588 825 606 814 q 514 836 571 836 q 435 820 453 836 q 417 751 417 804 l 417 0 l 125 0 l 125 519 l 11 519 l 11 688 l 125 694 l 125 786 q 211 976 125 922 q 511 1031 297 1031 q 737 1006 658 1031 q 843 933 815 981 q 871 797 871 885 q 859 724 871 754 q 807 640 847 693 q 749 536 749 564 q 753 519 749 528 q 767 500 757 510 q 783 483 776 490 q 806 463 790 476 q 831 443 822 450 z "},"à":{"ha":819,"x_min":29,"x_max":767,"o":"m 481 739 l 126 882 l 236 1067 l 560 858 l 481 739 m 93 494 l 67 679 q 463 714 256 714 q 692 650 617 714 q 767 431 767 586 l 767 0 l 535 0 l 508 97 q 268 -19 417 -19 q 97 32 165 -19 q 29 178 29 83 l 29 247 q 90 378 29 331 q 258 426 151 426 l 475 426 l 475 432 q 456 485 474 469 q 393 501 438 501 q 93 494 240 501 m 313 243 l 313 221 q 371 178 313 178 q 475 213 417 178 l 475 286 l 365 286 q 313 243 313 286 z "},"á":{"ha":819,"x_min":29,"x_max":767,"o":"m 358 739 l 279 858 l 603 1067 l 713 882 l 358 739 m 93 494 l 67 679 q 463 714 256 714 q 692 650 617 714 q 767 431 767 586 l 767 0 l 535 0 l 508 97 q 268 -19 417 -19 q 97 32 165 -19 q 29 178 29 83 l 29 247 q 90 378 29 331 q 258 426 151 426 l 475 426 l 475 432 q 456 485 474 469 q 393 501 438 501 q 93 494 240 501 m 313 243 l 313 221 q 371 178 313 178 q 475 213 417 178 l 475 286 l 365 286 q 313 243 313 286 z "},"â":{"ha":819,"x_min":29,"x_max":767,"o":"m 192 725 l 122 832 l 317 1017 l 528 1017 l 715 821 l 649 725 l 428 854 l 417 854 l 192 725 m 93 494 l 67 679 q 463 714 256 714 q 692 650 617 714 q 767 431 767 586 l 767 0 l 535 0 l 508 97 q 268 -19 417 -19 q 97 32 165 -19 q 29 178 29 83 l 29 247 q 90 378 29 331 q 258 426 151 426 l 475 426 l 475 432 q 456 485 474 469 q 393 501 438 501 q 93 494 240 501 m 313 243 l 313 221 q 371 178 313 178 q 475 213 417 178 l 475 286 l 365 286 q 313 243 313 286 z "},"ã":{"ha":819,"x_min":29,"x_max":767,"o":"m 276 782 l 156 782 q 173 959 135 897 q 274 1017 211 1021 q 410 987 329 1013 q 508 957 490 961 q 543 962 538 951 q 549 1010 549 972 l 669 1010 q 655 834 690 897 q 551 775 619 771 q 415 806 497 779 q 315 835 333 832 q 282 831 288 839 q 276 790 276 822 q 276 782 276 785 m 93 494 l 67 679 q 463 714 256 714 q 692 650 617 714 q 767 431 767 586 l 767 0 l 535 0 l 508 97 q 268 -19 417 -19 q 97 32 165 -19 q 29 178 29 83 l 29 247 q 90 378 29 331 q 258 426 151 426 l 475 426 l 475 432 q 456 485 474 469 q 393 501 438 501 q 93 494 240 501 m 313 243 l 313 221 q 371 178 313 178 q 475 213 417 178 l 475 286 l 365 286 q 313 243 313 286 z "},"ä":{"ha":819,"x_min":29,"x_max":767,"o":"m 335 799 l 239 799 q 185 853 185 799 l 185 940 q 239 994 185 994 l 335 994 q 389 940 389 994 l 389 853 q 335 799 389 799 m 597 799 l 501 799 q 447 853 447 799 l 447 940 q 501 994 447 994 l 597 994 q 651 940 651 994 l 651 853 q 597 799 651 799 m 93 494 l 67 679 q 463 714 256 714 q 692 650 617 714 q 767 431 767 586 l 767 0 l 535 0 l 508 97 q 268 -19 417 -19 q 97 32 165 -19 q 29 178 29 83 l 29 247 q 90 378 29 331 q 258 426 151 426 l 475 426 l 475 432 q 456 485 474 469 q 393 501 438 501 q 93 494 240 501 m 313 243 l 313 221 q 371 178 313 178 q 475 213 417 178 l 475 286 l 365 286 q 313 243 313 286 z "},"å":{"ha":819,"x_min":29,"x_max":767,"o":"m 547 780 q 521 755 547 780 q 421 729 494 729 q 294 780 347 729 q 242 903 242 831 q 294 1026 242 975 q 421 1076 347 1076 q 547 1026 494 1076 q 600 903 600 975 q 547 780 600 831 m 464 947 q 455 956 464 947 q 421 965 446 965 q 378 947 396 965 q 360 903 360 928 q 378 858 360 876 q 421 840 396 840 q 464 858 446 840 q 482 903 482 876 q 464 947 482 928 m 93 494 l 67 679 q 463 714 256 714 q 692 650 617 714 q 767 431 767 586 l 767 0 l 535 0 l 508 97 q 268 -19 417 -19 q 97 32 165 -19 q 29 178 29 83 l 29 247 q 90 378 29 331 q 258 426 151 426 l 475 426 l 475 432 q 456 485 474 469 q 393 501 438 501 q 93 494 240 501 m 313 243 l 313 221 q 371 178 313 178 q 475 213 417 178 l 475 286 l 365 286 q 313 243 313 286 z "},"æ":{"ha":1231,"x_min":29,"x_max":1201,"o":"m 933 283 l 758 283 q 794 224 768 240 q 881 207 821 207 q 1156 222 1011 207 l 1182 47 q 849 -17 1058 -17 q 521 106 610 -17 q 263 -19 428 -19 q 96 32 163 -19 q 29 178 29 83 l 29 247 q 90 375 29 328 q 253 422 150 422 l 460 422 l 460 432 q 443 485 460 469 q 385 501 426 501 q 92 494 236 501 l 65 679 q 454 714 249 714 q 632 682 564 714 q 847 714 711 714 q 1117 653 1035 714 q 1201 467 1200 592 q 1143 326 1203 368 q 933 283 1083 283 m 754 421 l 851 421 q 910 430 897 421 q 922 474 922 439 q 908 516 922 506 q 856 526 893 526 q 777 508 797 528 q 754 421 757 489 m 313 243 l 313 221 q 367 178 313 178 q 472 215 414 178 q 463 286 464 260 l 363 286 q 313 243 313 286 z "},"ç":{"ha":733,"x_min":36,"x_max":708,"o":"m 682 224 l 708 42 q 406 -17 597 -17 q 119 65 201 -17 q 36 349 36 147 q 119 632 36 550 q 408 714 203 714 q 699 663 592 714 l 669 482 l 458 482 q 366 455 390 482 q 342 349 342 428 q 366 241 342 268 q 458 214 390 214 q 682 224 594 214 m 263 -169 l 289 -69 q 478 -65 419 -49 q 533 -160 538 -82 q 436 -328 528 -275 q 208 -364 344 -382 l 239 -256 q 325 -242 294 -256 q 360 -185 356 -229 q 344 -169 361 -171 q 263 -169 342 -169 z "},"è":{"ha":819,"x_min":35,"x_max":790,"o":"m 493 739 l 139 882 l 249 1067 l 572 858 l 493 739 m 521 283 l 347 283 q 381 224 356 240 q 463 207 407 207 q 744 222 599 207 l 771 47 q 431 -17 644 -17 q 126 72 218 -17 q 35 342 35 160 q 124 630 35 546 q 429 714 213 714 q 705 653 621 714 q 790 467 789 592 q 731 326 792 368 q 521 283 671 283 m 342 421 l 439 421 q 499 430 486 421 q 511 474 511 439 q 495 516 511 506 q 438 526 479 526 q 363 508 382 528 q 342 421 344 489 z "},"é":{"ha":819,"x_min":35,"x_max":790,"o":"m 371 739 l 292 858 l 615 1067 l 725 882 l 371 739 m 521 283 l 347 283 q 381 224 356 240 q 463 207 407 207 q 744 222 599 207 l 771 47 q 431 -17 644 -17 q 126 72 218 -17 q 35 342 35 160 q 124 630 35 546 q 429 714 213 714 q 705 653 621 714 q 790 467 789 592 q 731 326 792 368 q 521 283 671 283 m 342 421 l 439 421 q 499 430 486 421 q 511 474 511 439 q 495 516 511 506 q 438 526 479 526 q 363 508 382 528 q 342 421 344 489 z "},"ê":{"ha":819,"x_min":35,"x_max":790,"o":"m 204 725 l 135 832 l 329 1017 l 540 1017 l 728 821 l 661 725 l 440 854 l 429 854 l 204 725 m 521 283 l 347 283 q 381 224 356 240 q 463 207 407 207 q 744 222 599 207 l 771 47 q 431 -17 644 -17 q 126 72 218 -17 q 35 342 35 160 q 124 630 35 546 q 429 714 213 714 q 705 653 621 714 q 790 467 789 592 q 731 326 792 368 q 521 283 671 283 m 342 421 l 439 421 q 499 430 486 421 q 511 474 511 439 q 495 516 511 506 q 438 526 479 526 q 363 508 382 528 q 342 421 344 489 z "},"ë":{"ha":819,"x_min":35,"x_max":790,"o":"m 347 799 l 251 799 q 197 853 197 799 l 197 940 q 251 994 197 994 l 347 994 q 401 940 401 994 l 401 853 q 347 799 401 799 m 610 799 l 514 799 q 460 853 460 799 l 460 940 q 514 994 460 994 l 610 994 q 664 940 664 994 l 664 853 q 610 799 664 799 m 521 283 l 347 283 q 381 224 356 240 q 463 207 407 207 q 744 222 599 207 l 771 47 q 431 -17 644 -17 q 126 72 218 -17 q 35 342 35 160 q 124 630 35 546 q 429 714 213 714 q 705 653 621 714 q 790 467 789 592 q 731 326 792 368 q 521 283 671 283 m 342 421 l 439 421 q 499 430 486 421 q 511 474 511 439 q 495 516 511 506 q 438 526 479 526 q 363 508 382 528 q 342 421 344 489 z "},"ì":{"ha":424,"x_min":-82,"x_max":358,"o":"m 351 858 l 272 739 l -82 882 l 28 1067 l 351 858 m 358 0 l 65 0 l 65 694 l 358 694 l 358 0 z "},"í":{"ha":424,"x_min":65,"x_max":504,"o":"m 504 882 l 150 739 l 71 858 l 394 1067 l 504 882 m 358 0 l 65 0 l 65 694 l 358 694 l 358 0 z "},"î":{"ha":424,"x_min":-86,"x_max":507,"o":"m 507 821 l 440 725 l 219 854 l 208 854 l -17 725 l -86 832 l 108 1017 l 319 1017 l 507 821 m 358 0 l 65 0 l 65 694 l 358 694 l 358 0 z "},"ï":{"ha":424,"x_min":-24,"x_max":443,"o":"m 31 994 l 126 994 q 181 940 181 994 l 181 853 q 126 799 181 799 l 31 799 q -24 853 -24 799 l -24 940 q 31 994 -24 994 m 293 994 l 389 994 q 443 940 443 994 l 443 853 q 389 799 443 799 l 293 799 q 239 853 239 799 l 239 940 q 293 994 239 994 m 358 0 l 65 0 l 65 694 l 358 694 l 358 0 z "},"ð":{"ha":839,"x_min":38,"x_max":800,"o":"m 775 890 l 682 797 q 800 404 800 649 q 709 75 800 169 q 413 -19 618 -19 q 128 58 219 -19 q 38 297 38 135 q 109 550 38 471 q 350 629 181 629 q 481 613 425 629 q 393 759 460 718 q 179 789 326 800 l 203 969 q 496 932 371 982 l 610 1047 l 775 890 m 415 181 q 481 221 467 181 q 494 403 494 261 l 494 428 q 419 432 458 432 q 360 410 376 432 q 343 303 343 388 q 357 204 343 228 q 415 181 371 181 z "},"ñ":{"ha":863,"x_min":60,"x_max":807,"o":"m 300 782 l 179 782 q 197 959 158 897 q 297 1017 235 1021 q 433 987 353 1013 q 532 957 514 961 q 567 962 561 951 q 572 1010 572 972 l 693 1010 q 678 834 714 897 q 575 775 643 771 q 439 806 521 779 q 339 835 357 832 q 306 831 311 839 q 300 790 300 822 q 300 782 300 785 m 289 694 l 315 592 q 601 714 447 714 q 807 519 807 714 l 807 0 l 515 0 l 515 426 q 504 458 515 449 q 465 468 493 468 q 351 451 407 468 l 351 0 l 60 0 l 60 694 l 289 694 z "},"ò":{"ha":849,"x_min":36,"x_max":813,"o":"m 568 858 l 489 739 l 135 882 l 244 1067 l 568 858 m 425 714 q 725 631 638 714 q 813 346 813 549 q 725 65 813 146 q 425 -17 638 -17 q 124 65 211 -17 q 36 346 36 146 q 124 631 36 549 q 425 714 211 714 m 425 517 q 358 485 374 517 q 342 346 342 453 q 358 212 342 243 q 425 181 374 181 q 491 212 475 181 q 507 346 507 243 q 491 485 507 453 q 425 517 475 517 z "},"ó":{"ha":849,"x_min":36,"x_max":813,"o":"m 721 882 l 367 739 l 288 858 l 611 1067 l 721 882 m 425 714 q 725 631 638 714 q 813 346 813 549 q 725 65 813 146 q 425 -17 638 -17 q 124 65 211 -17 q 36 346 36 146 q 124 631 36 549 q 425 714 211 714 m 425 517 q 358 485 374 517 q 342 346 342 453 q 358 212 342 243 q 425 181 374 181 q 491 212 475 181 q 507 346 507 243 q 491 485 507 453 q 425 517 475 517 z "},"ô":{"ha":849,"x_min":36,"x_max":813,"o":"m 724 821 l 657 725 l 436 854 l 425 854 l 200 725 l 131 832 l 325 1017 l 536 1017 l 724 821 m 425 714 q 725 631 638 714 q 813 346 813 549 q 725 65 813 146 q 425 -17 638 -17 q 124 65 211 -17 q 36 346 36 146 q 124 631 36 549 q 425 714 211 714 m 425 517 q 358 485 374 517 q 342 346 342 453 q 358 212 342 243 q 425 181 374 181 q 491 212 475 181 q 507 346 507 243 q 491 485 507 453 q 425 517 475 517 z "},"õ":{"ha":849,"x_min":36,"x_max":813,"o":"m 285 782 l 164 782 q 181 959 143 897 q 282 1017 219 1021 q 418 987 338 1013 q 517 957 499 961 q 551 962 546 951 q 557 1010 557 972 l 678 1010 q 663 834 699 897 q 560 775 628 771 q 424 806 506 779 q 324 835 342 832 q 290 831 296 839 q 285 790 285 822 q 285 782 285 785 m 425 714 q 725 631 638 714 q 813 346 813 549 q 725 65 813 146 q 425 -17 638 -17 q 124 65 211 -17 q 36 346 36 146 q 124 631 36 549 q 425 714 211 714 m 425 517 q 358 485 374 517 q 342 346 342 453 q 358 212 342 243 q 425 181 374 181 q 491 212 475 181 q 507 346 507 243 q 491 485 507 453 q 425 517 475 517 z "},"ö":{"ha":849,"x_min":36,"x_max":813,"o":"m 247 994 l 343 994 q 397 940 397 994 l 397 853 q 343 799 397 799 l 247 799 q 193 853 193 799 l 193 940 q 247 994 193 994 m 510 994 l 606 994 q 660 940 660 994 l 660 853 q 606 799 660 799 l 510 799 q 456 853 456 799 l 456 940 q 510 994 456 994 m 425 714 q 725 631 638 714 q 813 346 813 549 q 725 65 813 146 q 425 -17 638 -17 q 124 65 211 -17 q 36 346 36 146 q 124 631 36 549 q 425 714 211 714 m 425 517 q 358 485 374 517 q 342 346 342 453 q 358 212 342 243 q 425 181 374 181 q 491 212 475 181 q 507 346 507 243 q 491 485 507 453 q 425 517 475 517 z "},"÷":{"ha":743,"x_min":38,"x_max":706,"o":"m 336 801 l 406 801 q 490 778 467 801 q 513 694 513 756 l 513 669 q 490 585 513 608 q 406 563 467 563 l 336 563 q 252 585 275 563 q 229 669 229 608 l 229 694 q 252 778 229 756 q 336 801 275 801 m 706 304 l 38 304 l 38 507 l 706 507 l 706 304 m 336 244 l 406 244 q 490 222 467 244 q 513 138 513 199 l 513 113 q 490 29 513 53 q 406 6 467 6 l 336 6 q 252 28 275 6 q 229 113 229 51 l 229 138 q 252 222 229 199 q 336 244 275 244 z "},"ø":{"ha":849,"x_min":36,"x_max":813,"o":"m 736 751 l 690 658 q 813 346 813 579 q 725 65 813 146 q 425 -17 638 -17 q 367 -15 385 -17 l 304 -144 l 110 -46 l 153 42 q 36 346 36 119 q 124 631 36 549 q 425 714 211 714 l 475 713 l 542 851 l 736 751 m 425 181 q 491 212 475 181 q 507 346 507 243 q 491 485 507 453 q 425 517 475 517 q 358 485 374 517 q 342 346 342 453 q 358 212 342 243 q 425 181 374 181 z "},"ù":{"ha":854,"x_min":56,"x_max":794,"o":"m 489 754 l 135 897 l 244 1082 l 568 874 l 489 754 m 794 694 l 794 0 l 565 0 l 539 101 q 261 -19 406 -19 q 56 175 56 -19 l 56 694 l 347 694 l 347 268 q 399 225 347 225 q 501 242 449 225 l 501 694 l 794 694 z "},"ú":{"ha":854,"x_min":56,"x_max":794,"o":"m 367 754 l 288 874 l 611 1082 l 721 897 l 367 754 m 794 694 l 794 0 l 565 0 l 539 101 q 261 -19 406 -19 q 56 175 56 -19 l 56 694 l 347 694 l 347 268 q 399 225 347 225 q 501 242 449 225 l 501 694 l 794 694 z "},"û":{"ha":854,"x_min":56,"x_max":794,"o":"m 200 740 l 131 847 l 325 1032 l 536 1032 l 724 836 l 657 740 l 436 869 l 425 869 l 200 740 m 794 694 l 794 0 l 565 0 l 539 101 q 261 -19 406 -19 q 56 175 56 -19 l 56 694 l 347 694 l 347 268 q 399 225 347 225 q 501 242 449 225 l 501 694 l 794 694 z "},"ü":{"ha":854,"x_min":56,"x_max":794,"o":"m 343 814 l 247 814 q 193 868 193 814 l 193 956 q 247 1010 193 1010 l 343 1010 q 397 956 397 1010 l 397 868 q 343 814 397 814 m 606 814 l 510 814 q 456 868 456 814 l 456 956 q 510 1010 456 1010 l 606 1010 q 660 956 660 1010 l 660 868 q 606 814 660 814 m 794 694 l 794 0 l 565 0 l 539 101 q 261 -19 406 -19 q 56 175 56 -19 l 56 694 l 347 694 l 347 268 q 399 225 347 225 q 501 242 449 225 l 501 694 l 794 694 z "},"ý":{"ha":836,"x_min":-4,"x_max":839,"o":"m 361 739 l 282 858 l 606 1067 l 715 882 l 361 739 m 839 694 l 618 19 q 588 -60 606 -22 q 541 -138 569 -97 q 477 -208 513 -179 q 393 -259 442 -236 q 286 -284 344 -282 q 156 -274 228 -286 l 136 -117 q 265 -74 218 -100 q 340 0 313 -47 l 293 0 q 201 68 222 0 l -4 694 l 306 694 l 388 311 q 406 181 393 274 l 418 181 q 447 311 428 214 l 529 694 l 839 694 z "},"þ":{"ha":861,"x_min":60,"x_max":822,"o":"m 351 972 l 351 833 q 343 635 353 772 q 569 711 422 711 q 763 617 703 711 q 822 339 822 522 q 760 57 822 133 q 560 -19 697 -19 q 346 38 425 -19 q 351 -112 353 -49 l 351 -250 l 60 -250 l 60 972 l 351 972 m 351 478 l 351 189 q 442 171 397 171 q 506 201 489 171 q 522 336 522 231 q 506 472 522 442 q 446 501 490 501 q 351 478 401 501 z "},"ÿ":{"ha":836,"x_min":-4,"x_max":839,"o":"m 338 799 l 242 799 q 188 853 188 799 l 188 940 q 242 994 188 994 l 338 994 q 392 940 392 994 l 392 853 q 338 799 392 799 m 600 799 l 504 799 q 450 853 450 799 l 450 940 q 504 994 450 994 l 600 994 q 654 940 654 994 l 654 853 q 600 799 654 799 m 839 694 l 618 19 q 588 -60 606 -22 q 541 -138 569 -97 q 477 -208 513 -179 q 393 -259 442 -236 q 286 -284 344 -282 q 156 -274 228 -286 l 136 -117 q 265 -74 218 -100 q 340 0 313 -47 l 293 0 q 201 68 222 0 l -4 694 l 306 694 l 388 311 q 406 181 393 274 l 418 181 q 447 311 428 214 l 529 694 l 839 694 z "},"Ā":{"ha":949,"x_min":-12,"x_max":961,"o":"m 700 1072 l 256 1072 l 256 1243 l 700 1243 l 700 1072 m 606 207 l 343 207 l 294 0 l -12 0 l 236 881 q 274 937 246 915 q 338 958 301 958 l 611 958 q 675 937 647 958 q 713 881 703 915 l 961 0 l 654 0 l 606 207 m 557 418 l 510 624 q 493 733 497 689 l 456 733 q 439 624 447 668 l 392 418 l 557 418 z "},"ā":{"ha":819,"x_min":29,"x_max":767,"o":"m 644 811 l 200 811 l 200 982 l 644 982 l 644 811 m 93 494 l 67 679 q 463 714 256 714 q 692 650 617 714 q 767 431 767 586 l 767 0 l 535 0 l 508 97 q 268 -19 417 -19 q 97 32 165 -19 q 29 178 29 83 l 29 247 q 90 378 29 331 q 258 426 151 426 l 475 426 l 475 432 q 456 485 474 469 q 393 501 438 501 q 93 494 240 501 m 313 243 l 313 221 q 371 178 313 178 q 475 213 417 178 l 475 286 l 365 286 q 313 243 313 286 z "},"Ă":{"ha":949,"x_min":-12,"x_max":961,"o":"m 589 1281 l 724 1263 q 671 1095 740 1167 q 476 1024 601 1024 q 281 1095 351 1024 q 228 1263 211 1167 l 363 1281 q 388 1217 363 1236 q 476 1199 414 1199 q 563 1217 538 1199 q 589 1281 589 1236 m 606 207 l 343 207 l 294 0 l -12 0 l 236 881 q 274 937 246 915 q 338 958 301 958 l 611 958 q 675 937 647 958 q 713 881 703 915 l 961 0 l 654 0 l 606 207 m 557 418 l 510 624 q 493 733 497 689 l 456 733 q 439 624 447 668 l 392 418 l 557 418 z "},"ă":{"ha":819,"x_min":29,"x_max":767,"o":"m 533 1019 l 668 1001 q 615 834 685 906 q 421 763 546 763 q 226 834 296 763 q 172 1001 156 906 l 307 1019 q 333 956 307 975 q 421 938 358 938 q 508 956 482 938 q 533 1019 533 975 m 93 494 l 67 679 q 463 714 256 714 q 692 650 617 714 q 767 431 767 586 l 767 0 l 535 0 l 508 97 q 268 -19 417 -19 q 97 32 165 -19 q 29 178 29 83 l 29 247 q 90 378 29 331 q 258 426 151 426 l 475 426 l 475 432 q 456 485 474 469 q 393 501 438 501 q 93 494 240 501 m 313 243 l 313 221 q 371 178 313 178 q 475 213 417 178 l 475 286 l 365 286 q 313 243 313 286 z "},"Ą":{"ha":949,"x_min":-12,"x_max":979,"o":"m 963 -167 l 979 -267 q 801 -296 867 -308 q 710 -241 735 -283 q 704 -146 686 -199 q 846 0 729 -68 l 654 0 l 606 207 l 343 207 l 294 0 l -12 0 l 236 881 q 274 937 246 915 q 338 958 301 958 l 611 958 q 675 937 647 958 q 713 881 703 915 l 961 0 q 896 -121 906 -100 q 899 -165 879 -156 q 963 -167 918 -174 m 557 418 l 510 624 q 493 733 497 689 l 456 733 q 439 624 447 668 l 392 418 l 557 418 z "},"ą":{"ha":819,"x_min":29,"x_max":785,"o":"m 768 -167 l 785 -267 q 606 -296 672 -308 q 516 -241 540 -283 q 510 -146 492 -199 q 651 0 535 -68 l 535 0 l 508 97 q 268 -19 417 -19 q 97 32 165 -19 q 29 178 29 83 l 29 247 q 90 378 29 331 q 258 426 151 426 l 475 426 l 475 432 q 456 485 474 469 q 393 501 438 501 q 93 494 240 501 l 67 679 q 463 714 256 714 q 692 650 617 714 q 767 431 767 586 l 767 0 q 701 -121 711 -100 q 704 -165 685 -156 q 768 -167 724 -174 m 313 243 l 313 221 q 371 178 313 178 q 475 213 417 178 l 475 286 l 365 286 q 313 243 313 286 z "},"Ć":{"ha":840,"x_min":44,"x_max":815,"o":"m 769 1143 l 415 1000 l 336 1119 l 660 1328 l 769 1143 m 793 249 l 815 29 q 479 -17 682 -17 q 142 94 240 -17 q 44 479 44 206 q 142 864 44 753 q 479 975 240 975 q 794 938 658 975 l 772 718 q 479 721 578 721 q 385 673 408 721 q 361 479 361 625 q 385 285 361 333 q 479 238 408 238 q 793 249 686 238 z "},"ć":{"ha":733,"x_min":36,"x_max":708,"o":"m 697 882 l 343 739 l 264 858 l 588 1067 l 697 882 m 682 224 l 708 42 q 406 -17 597 -17 q 119 65 201 -17 q 36 349 36 147 q 119 632 36 550 q 408 714 203 714 q 699 663 592 714 l 669 482 l 458 482 q 366 455 390 482 q 342 349 342 428 q 366 241 342 268 q 458 214 390 214 q 682 224 594 214 z "},"Ċ":{"ha":840,"x_min":44,"x_max":815,"o":"m 435 1268 l 522 1268 q 604 1189 604 1268 l 604 1124 q 522 1044 604 1044 l 435 1044 q 353 1124 353 1044 l 353 1189 q 435 1268 353 1268 m 793 249 l 815 29 q 479 -17 682 -17 q 142 94 240 -17 q 44 479 44 206 q 142 864 44 753 q 479 975 240 975 q 794 938 658 975 l 772 718 q 479 721 578 721 q 385 673 408 721 q 361 479 361 625 q 385 285 361 333 q 479 238 408 238 q 793 249 686 238 z "},"ċ":{"ha":733,"x_min":36,"x_max":708,"o":"m 363 1007 l 450 1007 q 532 928 532 1007 l 532 863 q 450 783 532 783 l 363 783 q 281 863 281 783 l 281 928 q 363 1007 281 1007 m 682 224 l 708 42 q 406 -17 597 -17 q 119 65 201 -17 q 36 349 36 147 q 119 632 36 550 q 408 714 203 714 q 699 663 592 714 l 669 482 l 458 482 q 366 455 390 482 q 342 349 342 428 q 366 241 342 268 q 458 214 390 214 q 682 224 594 214 z "},"Č":{"ha":840,"x_min":44,"x_max":815,"o":"m 761 1204 l 535 1022 l 421 1022 l 193 1204 l 263 1311 l 472 1206 l 483 1206 l 694 1311 l 761 1204 m 793 249 l 815 29 q 479 -17 682 -17 q 142 94 240 -17 q 44 479 44 206 q 142 864 44 753 q 479 975 240 975 q 794 938 658 975 l 772 718 q 479 721 578 721 q 385 673 408 721 q 361 479 361 625 q 385 285 361 333 q 479 238 408 238 q 793 249 686 238 z "},"č":{"ha":733,"x_min":36,"x_max":708,"o":"m 689 943 l 463 761 l 349 761 l 121 943 l 190 1050 l 400 944 l 411 944 l 622 1050 l 689 943 m 682 224 l 708 42 q 406 -17 597 -17 q 119 65 201 -17 q 36 349 36 147 q 119 632 36 550 q 408 714 203 714 q 699 663 592 714 l 669 482 l 458 482 q 366 455 390 482 q 342 349 342 428 q 366 241 342 268 q 458 214 390 214 q 682 224 594 214 z "},"Ď":{"ha":974,"x_min":72,"x_max":929,"o":"m 426 1022 l 199 1204 l 268 1311 l 478 1206 l 489 1206 l 700 1311 l 767 1204 l 540 1022 l 426 1022 m 72 0 l 72 958 q 482 972 317 972 q 747 930 653 972 q 885 781 840 888 q 929 479 929 675 q 885 177 929 283 q 747 28 840 71 q 482 -14 653 -14 q 72 0 274 -14 m 374 206 l 482 204 q 585 259 560 204 q 611 479 611 314 q 585 699 611 644 q 482 754 560 754 l 374 754 l 374 206 z "},"ď":{"ha":861,"x_min":39,"x_max":1063,"o":"m 939 976 l 983 976 q 1044 962 1028 976 q 1063 908 1061 947 l 1063 847 q 1044 735 1063 779 q 989 644 1026 690 l 904 668 q 924 800 924 722 q 857 861 860 800 l 861 908 q 878 962 863 947 q 939 976 894 976 m 510 972 l 801 972 l 801 0 l 569 0 l 546 114 q 290 -17 476 -17 q 99 78 158 -17 q 39 356 39 172 q 102 637 39 560 q 303 714 165 714 q 515 656 436 714 q 510 807 510 753 l 510 972 m 510 238 l 510 506 q 419 524 464 524 q 356 494 372 524 q 339 358 339 464 q 355 242 339 268 q 415 217 371 217 q 510 238 468 217 z "},"Đ":{"ha":974,"x_min":10,"x_max":929,"o":"m 72 568 l 72 958 q 482 972 317 972 q 747 930 653 972 q 885 781 840 888 q 929 479 929 675 q 885 177 929 283 q 747 28 840 71 q 482 -14 653 -14 q 72 0 274 -14 l 72 424 l 10 424 l 10 568 l 72 568 m 374 206 l 482 204 q 585 259 560 204 q 611 479 611 314 q 585 699 611 644 q 482 754 560 754 l 374 754 l 374 568 l 511 568 l 511 424 l 374 424 l 374 206 z "},"đ":{"ha":857,"x_min":39,"x_max":876,"o":"m 876 760 l 801 760 l 801 0 l 569 0 l 546 114 q 290 -17 476 -17 q 99 78 158 -17 q 39 356 39 172 q 102 637 39 560 q 303 714 165 714 q 515 656 436 714 q 510 760 513 688 l 361 760 l 361 876 l 510 876 l 510 972 l 801 972 l 801 876 l 876 876 l 876 760 m 510 238 l 510 506 q 419 524 464 524 q 356 494 372 524 q 339 358 339 464 q 355 242 339 268 q 415 217 371 217 q 510 238 468 217 z "},"Ē":{"ha":828,"x_min":65,"x_max":789,"o":"m 672 1072 l 228 1072 l 228 1243 l 672 1243 l 672 1072 m 775 225 l 789 13 q 290 -6 650 -6 q 128 55 192 -6 q 65 213 65 115 l 65 746 q 128 903 65 843 q 290 964 192 964 q 789 946 650 964 l 775 733 l 424 733 q 382 719 397 733 q 367 683 367 706 l 367 590 l 725 590 l 725 390 l 367 390 l 367 275 q 382 239 367 253 q 424 225 397 225 l 775 225 z "},"ē":{"ha":819,"x_min":35,"x_max":790,"o":"m 657 811 l 213 811 l 213 982 l 657 982 l 657 811 m 521 283 l 347 283 q 381 224 356 240 q 463 207 407 207 q 744 222 599 207 l 771 47 q 431 -17 644 -17 q 126 72 218 -17 q 35 342 35 160 q 124 630 35 546 q 429 714 213 714 q 705 653 621 714 q 790 467 789 592 q 731 326 792 368 q 521 283 671 283 m 342 421 l 439 421 q 499 430 486 421 q 511 474 511 439 q 495 516 511 506 q 438 526 479 526 q 363 508 382 528 q 342 421 344 489 z "},"Ė":{"ha":828,"x_min":65,"x_max":789,"o":"m 493 1044 l 406 1044 q 324 1124 324 1044 l 324 1189 q 406 1268 324 1268 l 493 1268 q 575 1189 575 1268 l 575 1124 q 493 1044 575 1044 m 775 225 l 789 13 q 290 -6 650 -6 q 128 55 192 -6 q 65 213 65 115 l 65 746 q 128 903 65 843 q 290 964 192 964 q 789 946 650 964 l 775 733 l 424 733 q 382 719 397 733 q 367 683 367 706 l 367 590 l 725 590 l 725 390 l 367 390 l 367 275 q 382 239 367 253 q 424 225 397 225 l 775 225 z "},"ė":{"ha":819,"x_min":35,"x_max":790,"o":"m 478 783 l 390 783 q 308 863 308 783 l 308 928 q 390 1007 308 1007 l 478 1007 q 560 928 560 1007 l 560 863 q 478 783 560 783 m 521 283 l 347 283 q 381 224 356 240 q 463 207 407 207 q 744 222 599 207 l 771 47 q 431 -17 644 -17 q 126 72 218 -17 q 35 342 35 160 q 124 630 35 546 q 429 714 213 714 q 705 653 621 714 q 790 467 789 592 q 731 326 792 368 q 521 283 671 283 m 342 421 l 439 421 q 499 430 486 421 q 511 474 511 439 q 495 516 511 506 q 438 526 479 526 q 363 508 382 528 q 342 421 344 489 z "},"Ę":{"ha":828,"x_min":65,"x_max":807,"o":"m 790 -154 l 807 -254 q 628 -283 694 -296 q 538 -228 563 -271 q 532 -133 514 -186 q 654 1 554 -64 q 290 -6 538 -6 q 128 55 192 -6 q 65 213 65 115 l 65 746 q 128 903 65 843 q 290 964 192 964 q 789 946 650 964 l 775 733 l 424 733 q 382 719 397 733 q 367 683 367 706 l 367 590 l 725 590 l 725 390 l 367 390 l 367 275 q 382 239 367 253 q 424 225 397 225 l 775 225 l 789 13 q 724 -108 733 -87 q 726 -152 707 -143 q 790 -154 746 -161 z "},"ę":{"ha":819,"x_min":35,"x_max":790,"o":"m 744 222 l 771 47 q 706 -74 715 -53 q 708 -117 689 -108 q 772 -119 728 -126 l 789 -219 q 610 -249 676 -261 q 520 -194 544 -236 q 514 -99 496 -151 q 578 -8 526 -56 q 431 -17 507 -17 q 126 72 218 -17 q 35 342 35 160 q 124 630 35 546 q 429 714 213 714 q 705 653 621 714 q 790 467 789 592 q 731 326 792 368 q 521 283 671 283 l 347 283 q 381 224 356 240 q 463 207 407 207 q 744 222 599 207 m 342 421 l 439 421 q 499 430 486 421 q 511 474 511 439 q 495 516 511 506 q 438 526 479 526 q 363 508 382 528 q 342 421 344 489 z "},"Ě":{"ha":828,"x_min":65,"x_max":789,"o":"m 392 1022 l 164 1204 l 233 1311 l 443 1206 l 454 1206 l 665 1311 l 732 1204 l 506 1022 l 392 1022 m 775 225 l 789 13 q 290 -6 650 -6 q 128 55 192 -6 q 65 213 65 115 l 65 746 q 128 903 65 843 q 290 964 192 964 q 789 946 650 964 l 775 733 l 424 733 q 382 719 397 733 q 367 683 367 706 l 367 590 l 725 590 l 725 390 l 367 390 l 367 275 q 382 239 367 253 q 424 225 397 225 l 775 225 z "},"ě":{"ha":819,"x_min":35,"x_max":790,"o":"m 376 761 l 149 943 l 218 1050 l 428 944 l 439 944 l 650 1050 l 717 943 l 490 761 l 376 761 m 521 283 l 347 283 q 381 224 356 240 q 463 207 407 207 q 744 222 599 207 l 771 47 q 431 -17 644 -17 q 126 72 218 -17 q 35 342 35 160 q 124 630 35 546 q 429 714 213 714 q 705 653 621 714 q 790 467 789 592 q 731 326 792 368 q 521 283 671 283 m 342 421 l 439 421 q 499 430 486 421 q 511 474 511 439 q 495 516 511 506 q 438 526 479 526 q 363 508 382 528 q 342 421 344 489 z "},"Ğ":{"ha":928,"x_min":44,"x_max":876,"o":"m 601 1281 l 736 1263 q 683 1095 753 1167 q 489 1024 614 1024 q 294 1095 364 1024 q 240 1263 224 1167 l 375 1281 q 401 1217 375 1236 q 489 1199 426 1199 q 576 1217 550 1199 q 601 1281 601 1236 m 876 551 l 876 0 l 654 0 l 628 99 q 520 15 589 50 q 363 -19 451 -19 q 119 95 194 -19 q 44 479 44 210 q 146 866 44 754 q 496 978 247 978 q 836 938 696 978 l 814 721 q 497 724 603 724 q 389 675 417 724 q 361 479 361 626 q 386 286 361 335 q 483 238 411 238 q 588 246 532 238 l 588 551 l 876 551 z "},"ğ":{"ha":839,"x_min":10,"x_max":835,"o":"m 518 1019 l 653 1001 q 600 834 669 906 q 406 763 531 763 q 210 834 281 763 q 157 1001 140 906 l 292 1019 q 317 956 292 975 q 406 938 343 938 q 492 956 467 938 q 518 1019 518 975 m 821 588 l 744 575 q 756 494 756 543 q 676 324 756 374 q 399 275 596 275 q 296 279 342 275 q 290 241 281 264 q 335 217 300 218 l 588 200 q 757 139 704 192 q 810 -18 810 86 q 721 -206 810 -160 q 408 -251 632 -251 q 157 -231 243 -251 q 40 -170 71 -210 q 10 -54 10 -131 q 33 32 10 -3 q 118 93 57 67 q 85 211 72 143 q 157 307 99 279 q 40 494 40 353 q 122 664 40 614 q 400 714 203 714 q 601 694 529 714 l 835 694 l 821 588 m 329 446 q 338 440 329 446 q 399 433 347 433 q 467 446 450 433 q 485 494 485 458 q 467 542 485 531 q 399 554 450 554 q 329 542 347 554 q 311 494 311 531 q 329 446 311 458 m 429 26 l 306 36 q 282 -10 282 18 q 307 -45 282 -36 q 404 -54 332 -54 q 510 -47 483 -54 q 538 -17 538 -39 q 515 15 538 7 q 429 26 493 22 z "},"Ġ":{"ha":928,"x_min":44,"x_max":876,"o":"m 533 1044 l 446 1044 q 364 1124 364 1044 l 364 1189 q 446 1268 364 1268 l 533 1268 q 615 1189 615 1268 l 615 1124 q 533 1044 615 1044 m 876 551 l 876 0 l 654 0 l 628 99 q 520 15 589 50 q 363 -19 451 -19 q 119 95 194 -19 q 44 479 44 210 q 146 866 44 754 q 496 978 247 978 q 836 938 696 978 l 814 721 q 497 724 603 724 q 389 675 417 724 q 361 479 361 626 q 386 286 361 335 q 483 238 411 238 q 588 246 532 238 l 588 551 l 876 551 z "},"ġ":{"ha":839,"x_min":10,"x_max":835,"o":"m 450 783 l 363 783 q 281 863 281 783 l 281 928 q 363 1007 281 1007 l 450 1007 q 532 928 532 1007 l 532 863 q 450 783 532 783 m 821 588 l 744 575 q 756 494 756 543 q 676 324 756 374 q 399 275 596 275 q 296 279 342 275 q 290 241 281 264 q 335 217 300 218 l 588 200 q 757 139 704 192 q 810 -18 810 86 q 721 -206 810 -160 q 408 -251 632 -251 q 157 -231 243 -251 q 40 -170 71 -210 q 10 -54 10 -131 q 33 32 10 -3 q 118 93 57 67 q 85 211 72 143 q 157 307 99 279 q 40 494 40 353 q 122 664 40 614 q 400 714 203 714 q 601 694 529 714 l 835 694 l 821 588 m 329 446 q 338 440 329 446 q 399 433 347 433 q 467 446 450 433 q 485 494 485 458 q 467 542 485 531 q 399 554 450 554 q 329 542 347 554 q 311 494 311 531 q 329 446 311 458 m 429 26 l 306 36 q 282 -10 282 18 q 307 -45 282 -36 q 404 -54 332 -54 q 510 -47 483 -54 q 538 -17 538 -39 q 515 15 538 7 q 429 26 493 22 z "},"Ģ":{"ha":928,"x_min":44,"x_max":876,"o":"m 876 551 l 876 0 l 654 0 l 628 99 q 520 15 589 50 q 363 -19 451 -19 q 119 95 194 -19 q 44 479 44 210 q 146 866 44 754 q 496 978 247 978 q 836 938 696 978 l 814 721 q 497 724 603 724 q 389 675 417 724 q 361 479 361 626 q 386 286 361 335 q 483 238 411 238 q 588 246 532 238 l 588 551 l 876 551 m 460 -67 l 513 -67 q 582 -83 563 -67 q 603 -142 601 -99 l 603 -208 q 583 -330 603 -282 q 518 -429 563 -378 l 419 -403 q 444 -260 442 -349 q 367 -193 369 -260 l 371 -142 q 391 -83 372 -99 q 460 -67 410 -67 z "},"ģ":{"ha":839,"x_min":10,"x_max":835,"o":"m 447 761 l 394 761 q 325 777 344 761 q 304 836 306 793 l 304 903 q 324 1024 304 976 q 389 1124 344 1072 l 488 1097 q 463 954 465 1043 q 540 888 538 954 l 536 836 q 516 777 535 793 q 447 761 497 761 m 821 588 l 744 575 q 756 494 756 543 q 676 324 756 374 q 399 275 596 275 q 296 279 342 275 q 290 241 281 264 q 335 217 300 218 l 588 200 q 757 139 704 192 q 810 -18 810 86 q 721 -206 810 -160 q 408 -251 632 -251 q 157 -231 243 -251 q 40 -170 71 -210 q 10 -54 10 -131 q 33 32 10 -3 q 118 93 57 67 q 85 211 72 143 q 157 307 99 279 q 40 494 40 353 q 122 664 40 614 q 400 714 203 714 q 601 694 529 714 l 835 694 l 821 588 m 329 446 q 338 440 329 446 q 399 433 347 433 q 467 446 450 433 q 485 494 485 458 q 467 542 485 531 q 399 554 450 554 q 329 542 347 554 q 311 494 311 531 q 329 446 311 458 m 429 26 l 306 36 q 282 -10 282 18 q 307 -45 282 -36 q 404 -54 332 -54 q 510 -47 483 -54 q 538 -17 538 -39 q 515 15 538 7 q 429 26 493 22 z "},"Ħ":{"ha":992,"x_min":6,"x_max":989,"o":"m 989 704 l 918 704 l 918 0 l 617 0 l 617 403 l 375 403 l 375 0 l 74 0 l 74 704 l 6 704 l 6 835 l 74 835 l 74 958 l 375 958 l 375 835 l 617 835 l 617 958 l 918 958 l 918 835 l 989 835 l 989 704 m 617 704 l 375 704 l 375 614 l 617 614 l 617 704 z "},"ħ":{"ha":867,"x_min":-12,"x_max":811,"o":"m 503 760 l 357 760 q 343 611 357 697 q 606 714 471 714 q 811 519 811 714 l 811 0 l 519 0 l 519 426 q 508 458 519 449 q 469 468 497 468 q 356 451 411 468 l 356 0 l 64 0 l 64 760 l -12 760 l -12 876 l 64 876 l 64 972 l 356 972 l 356 876 l 503 876 l 503 760 z "},"Ī":{"ha":446,"x_min":3,"x_max":447,"o":"m 447 1072 l 3 1072 l 3 1243 l 447 1243 l 447 1072 m 372 0 l 74 0 l 74 958 l 372 958 l 372 0 z "},"ī":{"ha":424,"x_min":-8,"x_max":436,"o":"m 436 811 l -8 811 l -8 982 l 436 982 l 436 811 m 358 0 l 65 0 l 65 694 l 358 694 l 358 0 z "},"Į":{"ha":446,"x_min":74,"x_max":372,"o":"m 372 0 l 333 0 q 268 -121 278 -100 q 271 -165 251 -156 q 335 -167 290 -174 l 351 -267 q 173 -296 239 -308 q 83 -241 107 -283 q 76 -146 58 -199 q 218 0 101 -68 l 74 0 l 74 958 l 372 958 l 372 0 z "},"į":{"ha":424,"x_min":65,"x_max":358,"o":"m 257 783 l 169 783 q 88 863 88 783 l 88 928 q 169 1007 88 1007 l 257 1007 q 339 928 339 1007 l 339 863 q 257 783 339 783 m 358 0 l 331 0 q 265 -121 275 -100 q 268 -165 249 -156 q 332 -167 288 -174 l 349 -267 q 170 -296 236 -308 q 80 -241 104 -283 q 74 -146 56 -199 q 215 0 99 -68 l 65 0 l 65 694 l 358 694 l 358 0 z "},"İ":{"ha":446,"x_min":74,"x_max":372,"o":"m 181 1268 l 268 1268 q 350 1189 350 1268 l 350 1124 q 268 1044 350 1044 l 181 1044 q 99 1124 99 1044 l 99 1189 q 181 1268 99 1268 m 372 0 l 74 0 l 74 958 l 372 958 l 372 0 z "},"ı":{"ha":424,"x_min":65,"x_max":358,"o":"m 358 0 l 65 0 l 65 694 l 358 694 l 358 0 z "},"Ĳ":{"ha":1007,"x_min":74,"x_max":938,"o":"m 372 0 l 74 0 l 74 958 l 372 958 l 372 0 m 938 958 l 938 176 q 869 32 938 83 q 683 -19 801 -19 q 560 -10 629 -19 q 460 17 492 0 l 492 206 l 557 206 q 639 254 639 206 l 639 958 l 938 958 z "},"ĳ":{"ha":843,"x_min":64,"x_max":778,"o":"m 567 1026 l 690 1026 q 775 940 775 1026 l 775 869 q 690 783 775 783 l 567 783 q 482 869 482 783 l 482 940 q 567 1026 482 1026 m 149 1013 l 272 1013 q 357 926 357 1013 l 357 856 q 272 769 357 769 l 149 769 q 64 856 64 769 l 64 926 q 149 1013 64 1013 m 356 0 l 65 0 l 65 694 l 356 694 l 356 0 m 778 694 l 778 81 q 717 -126 778 -31 q 553 -264 656 -222 l 392 -136 q 488 81 488 -40 l 488 694 l 778 694 z "},"Ķ":{"ha":939,"x_min":74,"x_max":951,"o":"m 951 0 l 617 0 l 414 400 l 364 400 q 375 313 375 351 l 375 0 l 74 0 l 74 958 l 375 958 l 375 717 q 361 594 375 651 l 414 594 l 614 958 l 938 958 l 717 583 q 632 499 682 519 l 632 493 q 683 456 653 485 q 728 399 713 428 l 951 0 m 457 -67 l 510 -67 q 579 -83 560 -67 q 600 -142 599 -99 l 600 -208 q 580 -330 600 -282 q 515 -429 560 -378 l 417 -403 q 442 -260 439 -349 q 364 -193 367 -260 l 368 -142 q 388 -83 369 -99 q 457 -67 407 -67 z "},"ķ":{"ha":846,"x_min":60,"x_max":858,"o":"m 351 0 l 60 0 l 60 972 l 351 972 l 351 600 q 340 464 351 535 l 381 464 l 513 694 l 832 694 l 686 467 q 606 383 657 414 l 606 378 q 647 341 622 369 q 686 285 671 313 l 858 0 l 538 0 l 379 300 l 342 300 q 351 199 351 238 l 351 0 m 399 -53 l 451 -53 q 521 -69 501 -53 q 542 -128 540 -85 l 542 -194 q 522 -316 542 -268 q 457 -415 501 -364 l 358 -389 q 383 -246 381 -335 q 306 -179 308 -246 l 310 -128 q 330 -69 311 -85 q 399 -53 349 -53 z "},"Ĺ":{"ha":774,"x_min":69,"x_max":765,"o":"m 519 1143 l 165 1000 l 86 1119 l 410 1328 l 519 1143 m 371 958 l 371 289 q 387 253 371 267 q 429 239 403 239 l 751 239 l 765 14 q 297 -6 622 -6 q 132 55 194 -6 q 69 213 69 115 l 69 958 l 371 958 z "},"ĺ":{"ha":497,"x_min":61,"x_max":507,"o":"m 507 1150 l 153 1007 l 74 1126 l 397 1335 l 507 1150 m 351 972 l 351 253 q 421 203 351 203 l 468 203 l 500 17 q 409 -10 472 0 q 296 -19 346 -19 q 124 32 186 -19 q 61 175 61 83 l 61 972 l 351 972 z "},"Ļ":{"ha":774,"x_min":69,"x_max":765,"o":"m 371 958 l 371 289 q 387 253 371 267 q 429 239 403 239 l 751 239 l 765 14 q 297 -6 622 -6 q 132 55 194 -6 q 69 213 69 115 l 69 958 l 371 958 m 382 -67 l 435 -67 q 504 -83 485 -67 q 525 -142 524 -99 l 525 -208 q 505 -330 525 -282 q 440 -429 485 -378 l 342 -403 q 367 -260 364 -349 q 289 -193 292 -260 l 293 -142 q 313 -83 294 -99 q 382 -67 332 -67 z "},"ļ":{"ha":497,"x_min":61,"x_max":500,"o":"m 351 972 l 351 253 q 421 203 351 203 l 468 203 l 500 17 q 409 -10 472 0 q 296 -19 346 -19 q 124 32 186 -19 q 61 175 61 83 l 61 972 l 351 972 m 239 -67 l 292 -67 q 361 -83 342 -67 q 382 -142 381 -99 l 382 -208 q 362 -330 382 -282 q 297 -429 342 -378 l 199 -403 q 224 -260 221 -349 q 146 -193 149 -260 l 150 -142 q 170 -83 151 -99 q 239 -67 189 -67 z "},"Ľ":{"ha":774,"x_min":69,"x_max":765,"o":"m 371 958 l 371 289 q 387 253 371 267 q 429 239 403 239 l 751 239 l 765 14 q 297 -6 622 -6 q 132 55 194 -6 q 69 213 69 115 l 69 958 l 371 958 m 542 957 l 594 957 q 664 941 644 957 q 685 882 683 925 l 685 815 q 665 694 685 742 q 600 594 644 646 l 501 621 q 526 764 524 675 q 449 831 451 764 l 453 882 q 473 941 454 925 q 542 957 492 957 z "},"ľ":{"ha":497,"x_min":61,"x_max":611,"o":"m 488 976 l 532 976 q 593 962 576 976 q 611 908 610 947 l 611 847 q 593 735 611 779 q 538 644 575 690 l 453 668 q 472 800 472 722 q 406 861 408 800 l 410 908 q 427 962 411 947 q 488 976 443 976 m 351 972 l 351 253 q 421 203 351 203 l 468 203 l 500 17 q 409 -10 472 0 q 296 -19 346 -19 q 124 32 186 -19 q 61 175 61 83 l 61 972 l 351 972 z "},"Ŀ":{"ha":774,"x_min":69,"x_max":765,"o":"m 371 958 l 371 289 q 387 253 371 267 q 429 239 403 239 l 751 239 l 765 14 q 297 -6 622 -6 q 132 55 194 -6 q 69 213 69 115 l 69 958 l 371 958 m 649 476 l 561 476 q 479 556 479 476 l 479 621 q 561 700 479 700 l 649 700 q 731 621 731 700 l 731 556 q 649 476 731 476 z "},"ŀ":{"ha":664,"x_min":61,"x_max":661,"o":"m 351 972 l 351 253 q 421 203 351 203 l 468 203 l 500 17 q 409 -10 472 0 q 296 -19 346 -19 q 124 32 186 -19 q 61 175 61 83 l 61 972 l 351 972 m 579 432 l 492 432 q 410 511 410 432 l 410 576 q 492 656 410 656 l 579 656 q 661 576 661 656 l 661 511 q 579 432 661 432 z "},"Ł":{"ha":774,"x_min":10,"x_max":765,"o":"m 751 239 l 765 14 q 297 -6 622 -6 q 132 55 194 -6 q 69 213 69 115 l 69 397 l 10 374 l 10 518 l 69 542 l 69 958 l 371 958 l 371 657 l 515 713 l 515 568 l 371 513 l 371 289 q 387 253 371 267 q 429 239 403 239 l 751 239 z "},"ł":{"ha":542,"x_min":6,"x_max":540,"o":"m 508 203 l 540 17 q 449 -10 513 0 q 336 -19 386 -19 q 164 32 226 -19 q 101 175 101 83 l 101 397 l 6 360 l 6 504 l 101 542 l 101 972 l 392 972 l 392 654 l 507 699 l 507 554 l 392 510 l 392 253 q 461 203 392 203 l 508 203 z "},"Ń":{"ha":1025,"x_min":72,"x_max":954,"o":"m 815 1143 l 461 1000 l 382 1119 l 706 1328 l 815 1143 m 954 958 l 954 104 q 850 0 954 0 l 735 0 q 669 19 692 0 q 618 88 646 39 l 410 417 q 346 581 375 479 l 336 581 q 350 406 350 483 l 350 0 l 72 0 l 72 854 q 176 958 72 958 l 292 958 q 357 939 335 958 q 408 871 379 919 l 608 557 q 682 393 646 490 l 692 393 q 678 567 679 496 l 678 958 l 954 958 z "},"ń":{"ha":863,"x_min":60,"x_max":807,"o":"m 382 739 l 303 858 l 626 1067 l 736 882 l 382 739 m 289 694 l 315 592 q 601 714 447 714 q 807 519 807 714 l 807 0 l 515 0 l 515 426 q 504 458 515 449 q 465 468 493 468 q 351 451 407 468 l 351 0 l 60 0 l 60 694 l 289 694 z "},"Ņ":{"ha":1025,"x_min":72,"x_max":954,"o":"m 954 958 l 954 104 q 850 0 954 0 l 735 0 q 669 19 692 0 q 618 88 646 39 l 410 417 q 346 581 375 479 l 336 581 q 350 406 350 483 l 350 0 l 72 0 l 72 854 q 176 958 72 958 l 292 958 q 357 939 335 958 q 408 871 379 919 l 608 557 q 682 393 646 490 l 692 393 q 678 567 679 496 l 678 958 l 954 958 m 500 -67 l 553 -67 q 622 -83 603 -67 q 643 -142 642 -99 l 643 -208 q 623 -330 643 -282 q 558 -429 603 -378 l 460 -403 q 485 -260 482 -349 q 407 -193 410 -260 l 411 -142 q 431 -83 413 -99 q 500 -67 450 -67 z "},"ņ":{"ha":863,"x_min":60,"x_max":807,"o":"m 289 694 l 315 592 q 601 714 447 714 q 807 519 807 714 l 807 0 l 515 0 l 515 426 q 504 458 515 449 q 465 468 493 468 q 351 451 407 468 l 351 0 l 60 0 l 60 694 l 289 694 m 389 -53 l 442 -53 q 511 -69 492 -53 q 532 -128 531 -85 l 532 -194 q 512 -316 532 -268 q 447 -415 492 -364 l 349 -389 q 374 -246 371 -335 q 296 -179 299 -246 l 300 -128 q 320 -69 301 -85 q 389 -53 339 -53 z "},"Ň":{"ha":1025,"x_min":72,"x_max":954,"o":"m 807 1204 l 581 1022 l 467 1022 l 239 1204 l 308 1311 l 518 1206 l 529 1206 l 740 1311 l 807 1204 m 954 958 l 954 104 q 850 0 954 0 l 735 0 q 669 19 692 0 q 618 88 646 39 l 410 417 q 346 581 375 479 l 336 581 q 350 406 350 483 l 350 0 l 72 0 l 72 854 q 176 958 72 958 l 292 958 q 357 939 335 958 q 408 871 379 919 l 608 557 q 682 393 646 490 l 692 393 q 678 567 679 496 l 678 958 l 954 958 z "},"ň":{"ha":863,"x_min":60,"x_max":807,"o":"m 388 761 l 160 943 l 229 1050 l 439 944 l 450 944 l 661 1050 l 728 943 l 501 761 l 388 761 m 289 694 l 315 592 q 601 714 447 714 q 807 519 807 714 l 807 0 l 515 0 l 515 426 q 504 458 515 449 q 465 468 493 468 q 351 451 407 468 l 351 0 l 60 0 l 60 694 l 289 694 z "},"Ŋ":{"ha":1028,"x_min":72,"x_max":954,"o":"m 954 958 l 954 -46 q 899 -220 954 -157 q 753 -283 844 -283 q 553 -247 633 -283 l 585 -58 l 635 -58 q 694 -21 694 -58 l 694 13 l 688 13 q 625 88 669 13 l 410 417 q 344 581 383 463 l 336 581 q 349 419 349 483 l 349 0 l 72 0 l 72 854 q 176 958 72 958 l 290 958 q 358 938 333 958 q 408 871 382 918 l 608 557 q 681 393 649 489 l 690 393 q 676 564 676 488 l 676 958 l 954 958 z "},"ŋ":{"ha":863,"x_min":60,"x_max":807,"o":"m 288 694 l 314 593 q 601 714 451 714 q 807 519 807 714 l 807 -33 q 750 -208 807 -146 q 589 -271 693 -271 q 473 -261 538 -271 q 376 -235 408 -251 l 408 -46 l 458 -46 q 515 -8 515 -46 l 515 426 q 504 458 515 449 q 465 468 493 468 q 351 453 407 468 l 351 0 l 60 0 l 60 694 l 288 694 z "},"Ō":{"ha":982,"x_min":44,"x_max":938,"o":"m 714 1072 l 269 1072 l 269 1243 l 714 1243 l 714 1072 m 490 978 q 755 935 661 978 q 893 785 849 893 q 938 479 938 678 q 893 173 938 281 q 755 23 849 65 q 490 -19 661 -19 q 227 23 321 -19 q 89 173 133 65 q 44 479 44 281 q 89 785 44 678 q 227 935 133 893 q 490 978 321 978 m 594 699 q 581 727 594 699 q 490 754 568 754 q 387 699 413 754 q 361 479 361 644 q 387 259 361 314 q 490 204 413 204 q 594 259 568 204 q 619 479 619 314 q 594 699 619 644 z "},"ō":{"ha":849,"x_min":36,"x_max":813,"o":"m 653 811 l 208 811 l 208 982 l 653 982 l 653 811 m 425 714 q 725 631 638 714 q 813 346 813 549 q 725 65 813 146 q 425 -17 638 -17 q 124 65 211 -17 q 36 346 36 146 q 124 631 36 549 q 425 714 211 714 m 425 517 q 358 485 374 517 q 342 346 342 453 q 358 212 342 243 q 425 181 374 181 q 491 212 475 181 q 507 346 507 243 q 491 485 507 453 q 425 517 475 517 z "},"Ő":{"ha":982,"x_min":44,"x_max":938,"o":"m 558 1228 l 324 983 l 208 1076 l 379 1344 l 558 1228 m 857 1228 l 621 983 l 507 1075 l 678 1344 l 857 1228 m 490 978 q 755 935 661 978 q 893 785 849 893 q 938 479 938 678 q 893 173 938 281 q 755 23 849 65 q 490 -19 661 -19 q 227 23 321 -19 q 89 173 133 65 q 44 479 44 281 q 89 785 44 678 q 227 935 133 893 q 490 978 321 978 m 594 699 q 581 727 594 699 q 490 754 568 754 q 387 699 413 754 q 361 479 361 644 q 387 259 361 314 q 490 204 413 204 q 594 259 568 204 q 619 479 619 314 q 594 699 619 644 z "},"ő":{"ha":849,"x_min":36,"x_max":813,"o":"m 497 967 l 263 722 l 147 815 l 318 1083 l 497 967 m 796 967 l 560 722 l 446 814 l 617 1083 l 796 967 m 425 714 q 725 631 638 714 q 813 346 813 549 q 725 65 813 146 q 425 -17 638 -17 q 124 65 211 -17 q 36 346 36 146 q 124 631 36 549 q 425 714 211 714 m 425 517 q 358 485 374 517 q 342 346 342 453 q 358 212 342 243 q 425 181 374 181 q 491 212 475 181 q 507 346 507 243 q 491 485 507 453 q 425 517 475 517 z "},"Œ":{"ha":1364,"x_min":46,"x_max":1325,"o":"m 1311 225 l 1325 13 q 836 -6 1190 -6 q 718 26 769 -6 q 485 -19 621 -19 q 226 23 318 -19 q 90 173 133 65 q 46 479 46 281 q 90 785 46 678 q 226 935 133 893 q 485 978 318 978 q 733 940 631 978 q 838 964 781 964 q 1325 946 1190 964 l 1311 733 l 976 733 q 937 719 951 733 q 922 683 922 706 l 922 583 l 1264 583 l 1264 397 l 922 397 l 922 275 q 937 239 922 253 q 976 225 951 225 l 1311 225 m 619 219 l 619 742 q 485 754 572 754 q 388 700 411 754 q 364 479 364 646 q 388 258 364 313 q 485 204 411 204 q 619 219 575 204 z "},"œ":{"ha":1263,"x_min":36,"x_max":1233,"o":"m 963 281 l 796 281 q 830 221 804 238 q 913 204 856 204 q 1188 219 1043 204 l 1214 44 q 881 -19 1090 -19 q 650 25 739 -19 q 418 -17 568 -17 q 122 65 207 -17 q 36 346 36 146 q 122 631 36 549 q 418 714 207 714 q 650 672 568 714 q 879 711 733 711 q 1149 650 1067 711 q 1233 464 1232 589 q 1175 323 1235 365 q 963 281 1115 281 m 792 418 l 882 418 q 942 427 929 418 q 954 471 954 436 q 938 513 954 503 q 883 524 922 524 q 813 506 831 525 q 792 418 794 486 m 357 211 q 364 196 357 211 q 418 181 371 181 q 482 204 465 181 q 501 304 499 228 l 500 339 q 501 383 500 369 q 484 491 500 465 q 422 517 468 517 q 358 485 372 517 q 343 346 343 453 q 357 211 343 242 z "},"Ŕ":{"ha":939,"x_min":72,"x_max":921,"o":"m 408 1000 l 329 1119 l 653 1328 l 763 1143 l 408 1000 m 921 0 l 606 0 l 543 285 q 517 337 535 324 q 461 350 500 350 l 368 350 l 368 0 l 72 0 l 72 958 q 479 972 214 972 q 790 908 696 972 q 883 681 883 844 q 689 453 883 472 l 689 444 q 846 294 819 428 l 921 0 m 368 563 l 472 563 q 559 582 538 563 q 581 661 581 601 q 559 740 581 721 q 472 760 538 760 l 368 760 l 368 563 z "},"ŕ":{"ha":628,"x_min":60,"x_max":638,"o":"m 283 739 l 204 858 l 528 1067 l 638 882 l 283 739 m 288 694 l 314 593 q 585 714 443 714 l 625 714 l 600 447 l 526 447 q 351 433 453 447 l 351 0 l 60 0 l 60 694 l 288 694 z "},"Ŗ":{"ha":939,"x_min":72,"x_max":921,"o":"m 921 0 l 606 0 l 543 285 q 517 337 535 324 q 461 350 500 350 l 368 350 l 368 0 l 72 0 l 72 958 q 479 972 214 972 q 790 908 696 972 q 883 681 883 844 q 689 453 883 472 l 689 444 q 846 294 819 428 l 921 0 m 368 563 l 472 563 q 559 582 538 563 q 581 661 581 601 q 559 740 581 721 q 472 760 538 760 l 368 760 l 368 563 m 456 -67 l 508 -67 q 578 -83 558 -67 q 599 -142 597 -99 l 599 -208 q 578 -330 599 -282 q 514 -429 558 -378 l 415 -403 q 440 -260 438 -349 q 363 -193 365 -260 l 367 -142 q 387 -83 368 -99 q 456 -67 406 -67 z "},"ŗ":{"ha":628,"x_min":60,"x_max":625,"o":"m 625 714 l 600 447 l 526 447 q 351 433 453 447 l 351 0 l 60 0 l 60 694 l 288 694 l 314 593 q 585 714 443 714 l 625 714 m 163 -53 l 215 -53 q 285 -69 265 -53 q 306 -128 304 -85 l 306 -194 q 285 -316 306 -268 q 221 -415 265 -364 l 122 -389 q 147 -246 144 -335 q 69 -179 72 -246 l 74 -128 q 94 -69 75 -85 q 163 -53 113 -53 z "},"Ř":{"ha":939,"x_min":72,"x_max":921,"o":"m 414 1022 l 186 1204 l 256 1311 l 465 1206 l 476 1206 l 688 1311 l 754 1204 l 528 1022 l 414 1022 m 921 0 l 606 0 l 543 285 q 517 337 535 324 q 461 350 500 350 l 368 350 l 368 0 l 72 0 l 72 958 q 479 972 214 972 q 790 908 696 972 q 883 681 883 844 q 689 453 883 472 l 689 444 q 846 294 819 428 l 921 0 m 368 563 l 472 563 q 559 582 538 563 q 581 661 581 601 q 559 740 581 721 q 472 760 538 760 l 368 760 l 368 563 z "},"ř":{"ha":628,"x_min":60,"x_max":629,"o":"m 289 761 l 61 943 l 131 1050 l 340 944 l 351 944 l 563 1050 l 629 943 l 403 761 l 289 761 m 288 694 l 314 593 q 585 714 443 714 l 625 714 l 600 447 l 526 447 q 351 433 453 447 l 351 0 l 60 0 l 60 694 l 288 694 z "},"Ś":{"ha":847,"x_min":42,"x_max":813,"o":"m 728 1143 l 374 1000 l 294 1119 l 618 1328 l 728 1143 m 446 324 l 256 407 q 90 524 139 458 q 42 696 42 590 q 129 917 42 857 q 436 978 217 978 q 785 929 646 978 l 767 736 q 429 739 600 739 q 358 732 376 739 q 340 703 340 725 q 358 670 340 683 q 424 638 375 657 l 597 565 q 764 447 715 514 q 813 274 813 381 q 728 46 813 111 q 421 -19 643 -19 q 50 28 233 -19 l 68 239 q 417 232 343 232 q 492 239 474 232 q 511 265 511 246 q 498 297 511 285 q 446 324 485 310 z "},"ś":{"ha":768,"x_min":33,"x_max":740,"o":"m 682 882 l 328 739 l 249 858 l 572 1067 l 682 882 m 368 242 l 215 283 q 71 368 108 314 q 33 511 33 422 q 107 663 33 611 q 356 714 181 714 q 711 683 563 714 l 693 514 l 419 514 q 330 512 344 514 q 315 497 315 510 q 363 474 315 485 q 397 464 383 468 l 557 424 q 697 349 653 397 q 740 214 740 301 q 665 34 740 83 q 404 -15 589 -15 q 43 14 213 -15 l 61 183 l 308 183 q 435 186 411 183 q 458 204 458 189 q 458 209 458 207 q 455 213 457 211 q 451 217 453 215 q 444 220 449 218 q 435 223 440 222 q 423 226 431 224 q 408 231 415 229 q 390 235 401 232 q 368 242 379 239 z "},"Ş":{"ha":847,"x_min":42,"x_max":813,"o":"m 446 324 l 256 407 q 90 524 139 458 q 42 696 42 590 q 129 917 42 857 q 436 978 217 978 q 785 929 646 978 l 767 736 q 429 739 600 739 q 358 732 376 739 q 340 703 340 725 q 358 670 340 683 q 424 638 375 657 l 597 565 q 764 447 715 514 q 813 274 813 381 q 728 46 813 111 q 421 -19 643 -19 q 50 28 233 -19 l 68 239 q 417 232 343 232 q 492 239 474 232 q 511 265 511 246 q 498 297 511 285 q 446 324 485 310 m 303 -193 l 329 -93 q 519 -89 460 -72 q 574 -183 578 -106 q 476 -352 568 -299 q 249 -387 385 -406 l 279 -279 q 365 -266 335 -279 q 400 -208 396 -253 q 385 -193 401 -194 q 303 -193 382 -193 z "},"ş":{"ha":768,"x_min":33,"x_max":740,"o":"m 368 242 l 215 283 q 71 368 108 314 q 33 511 33 422 q 107 663 33 611 q 356 714 181 714 q 711 683 563 714 l 693 514 l 419 514 q 330 512 344 514 q 315 497 315 510 q 363 474 315 485 q 397 464 383 468 l 557 424 q 697 349 653 397 q 740 214 740 301 q 665 34 740 83 q 404 -15 589 -15 q 43 14 213 -15 l 61 183 l 308 183 q 435 186 411 183 q 458 204 458 189 q 458 209 458 207 q 455 213 457 211 q 451 217 453 215 q 444 220 449 218 q 435 223 440 222 q 423 226 431 224 q 408 231 415 229 q 390 235 401 232 q 368 242 379 239 m 244 -168 l 271 -68 q 460 -64 401 -47 q 515 -158 519 -81 q 418 -327 510 -274 q 190 -362 326 -381 l 221 -254 q 307 -241 276 -254 q 342 -183 338 -228 q 326 -168 343 -169 q 244 -168 324 -168 z "},"Š":{"ha":847,"x_min":42,"x_max":813,"o":"m 719 1204 l 493 1022 l 379 1022 l 151 1204 l 221 1311 l 431 1206 l 442 1206 l 653 1311 l 719 1204 m 446 324 l 256 407 q 90 524 139 458 q 42 696 42 590 q 129 917 42 857 q 436 978 217 978 q 785 929 646 978 l 767 736 q 429 739 600 739 q 358 732 376 739 q 340 703 340 725 q 358 670 340 683 q 424 638 375 657 l 597 565 q 764 447 715 514 q 813 274 813 381 q 728 46 813 111 q 421 -19 643 -19 q 50 28 233 -19 l 68 239 q 417 232 343 232 q 492 239 474 232 q 511 265 511 246 q 498 297 511 285 q 446 324 485 310 z "},"š":{"ha":768,"x_min":33,"x_max":740,"o":"m 674 943 l 447 761 l 333 761 l 106 943 l 175 1050 l 385 944 l 396 944 l 607 1050 l 674 943 m 368 242 l 215 283 q 71 368 108 314 q 33 511 33 422 q 107 663 33 611 q 356 714 181 714 q 711 683 563 714 l 693 514 l 419 514 q 330 512 344 514 q 315 497 315 510 q 363 474 315 485 q 397 464 383 468 l 557 424 q 697 349 653 397 q 740 214 740 301 q 665 34 740 83 q 404 -15 589 -15 q 43 14 213 -15 l 61 183 l 308 183 q 435 186 411 183 q 458 204 458 189 q 458 209 458 207 q 455 213 457 211 q 451 217 453 215 q 444 220 449 218 q 435 223 440 222 q 423 226 431 224 q 408 231 415 229 q 390 235 401 232 q 368 242 379 239 z "},"Ţ":{"ha":865,"x_min":14,"x_max":851,"o":"m 851 733 l 583 733 l 583 0 l 282 0 l 282 733 l 14 733 l 14 958 l 851 958 l 851 733 m 300 -174 l 326 -74 q 516 -69 457 -53 q 571 -164 575 -86 q 474 -333 565 -279 q 246 -368 382 -386 l 276 -260 q 363 -247 332 -260 q 397 -189 393 -233 q 382 -174 399 -175 q 300 -174 379 -174 z "},"ţ":{"ha":608,"x_min":14,"x_max":592,"o":"m 424 519 l 424 253 q 438 215 424 226 q 483 203 451 203 l 557 203 l 589 17 q 353 -19 503 -19 q 192 32 251 -19 q 132 175 132 83 l 132 519 l 14 519 l 14 688 l 131 693 l 131 876 l 424 876 l 424 694 l 592 694 l 592 519 l 424 519 m 213 -172 l 239 -72 q 428 -68 369 -51 q 483 -162 488 -85 q 386 -331 478 -278 q 158 -367 294 -385 l 189 -258 q 275 -245 244 -258 q 310 -187 306 -232 q 294 -172 311 -174 q 213 -172 292 -172 z "},"Ť":{"ha":865,"x_min":14,"x_max":851,"o":"m 375 1022 l 147 1204 l 217 1311 l 426 1206 l 438 1206 l 649 1311 l 715 1204 l 489 1022 l 375 1022 m 851 733 l 583 733 l 583 0 l 282 0 l 282 733 l 14 733 l 14 958 l 851 958 l 851 733 z "},"ť":{"ha":608,"x_min":14,"x_max":653,"o":"m 510 1126 l 563 1126 q 632 1110 613 1126 q 653 1051 651 1094 l 653 985 q 633 863 653 911 q 568 764 613 815 l 469 790 q 494 933 492 844 q 417 1000 419 933 l 421 1051 q 441 1110 422 1094 q 510 1126 460 1126 m 424 694 l 592 694 l 592 519 l 424 519 l 424 253 q 438 215 424 226 q 483 203 451 203 l 557 203 l 589 17 q 353 -19 503 -19 q 192 32 251 -19 q 132 175 132 83 l 132 519 l 14 519 l 14 688 l 131 693 l 131 876 l 424 876 l 424 694 z "},"Ŧ":{"ha":871,"x_min":17,"x_max":854,"o":"m 586 733 l 586 557 l 746 557 l 746 426 l 586 426 l 586 0 l 285 0 l 285 426 l 122 426 l 122 557 l 285 557 l 285 733 l 17 733 l 17 958 l 854 958 l 854 733 l 586 733 z "},"ŧ":{"ha":608,"x_min":14,"x_max":592,"o":"m 424 519 l 424 450 l 538 450 l 538 319 l 424 319 l 424 253 q 438 215 424 226 q 483 203 451 203 l 557 203 l 589 17 q 353 -19 503 -19 q 192 32 251 -19 q 132 175 132 83 l 132 319 l 54 319 l 54 450 l 132 450 l 132 519 l 14 519 l 14 688 l 131 693 l 131 876 l 424 876 l 424 694 l 592 694 l 592 519 l 424 519 z "},"Ū":{"ha":979,"x_min":65,"x_max":914,"o":"m 714 1072 l 269 1072 l 269 1243 l 714 1243 l 714 1072 m 914 958 l 914 396 q 822 74 914 167 q 506 -19 731 -19 q 164 74 263 -19 q 65 396 65 167 l 65 958 l 367 958 l 367 396 q 392 242 367 281 q 490 204 417 204 q 588 242 563 204 q 613 396 613 281 l 613 958 l 914 958 z "},"ū":{"ha":854,"x_min":56,"x_max":794,"o":"m 653 826 l 208 826 l 208 997 l 653 997 l 653 826 m 794 694 l 794 0 l 565 0 l 539 101 q 261 -19 406 -19 q 56 175 56 -19 l 56 694 l 347 694 l 347 268 q 399 225 347 225 q 501 242 449 225 l 501 694 l 794 694 z "},"Ů":{"ha":979,"x_min":65,"x_max":914,"o":"m 364 1287 q 390 1312 364 1287 q 490 1338 417 1338 q 617 1287 564 1338 q 669 1164 669 1236 q 617 1041 669 1092 q 490 990 564 990 q 364 1041 417 990 q 311 1164 311 1092 q 364 1287 311 1236 m 533 1208 q 524 1217 533 1208 q 490 1226 515 1226 q 447 1208 465 1226 q 429 1164 429 1189 q 447 1119 429 1138 q 490 1101 465 1101 q 533 1119 515 1101 q 551 1164 551 1138 q 533 1208 551 1189 m 914 958 l 914 396 q 822 74 914 167 q 506 -19 731 -19 q 164 74 263 -19 q 65 396 65 167 l 65 958 l 367 958 l 367 396 q 392 242 367 281 q 490 204 417 204 q 588 242 563 204 q 613 396 613 281 l 613 958 l 914 958 z "},"ů":{"ha":854,"x_min":56,"x_max":794,"o":"m 556 795 q 529 770 556 795 q 429 744 503 744 q 303 795 356 744 q 250 918 250 846 q 303 1041 250 990 q 429 1092 356 1092 q 556 1041 503 1092 q 608 918 608 990 q 556 795 608 846 m 472 962 q 463 971 472 962 q 429 981 454 981 q 386 962 404 981 q 368 918 368 943 q 386 874 368 892 q 429 856 404 856 q 472 874 454 856 q 490 918 490 892 q 472 962 490 943 m 794 694 l 794 0 l 565 0 l 539 101 q 261 -19 406 -19 q 56 175 56 -19 l 56 694 l 347 694 l 347 268 q 399 225 347 225 q 501 242 449 225 l 501 694 l 794 694 z "},"Ű":{"ha":979,"x_min":65,"x_max":914,"o":"m 558 1228 l 324 983 l 208 1076 l 379 1344 l 558 1228 m 857 1228 l 621 983 l 507 1075 l 678 1344 l 857 1228 m 914 958 l 914 396 q 822 74 914 167 q 506 -19 731 -19 q 164 74 263 -19 q 65 396 65 167 l 65 958 l 367 958 l 367 396 q 392 242 367 281 q 490 204 417 204 q 588 242 563 204 q 613 396 613 281 l 613 958 l 914 958 z "},"ű":{"ha":854,"x_min":56,"x_max":796,"o":"m 263 738 l 147 831 l 318 1099 l 497 982 l 263 738 m 446 829 l 617 1099 l 796 982 l 560 738 l 446 829 m 501 694 l 794 694 l 794 0 l 565 0 l 539 101 q 261 -19 406 -19 q 56 175 56 -19 l 56 694 l 347 694 l 347 268 q 399 225 347 225 q 501 242 449 225 l 501 694 z "},"Ų":{"ha":979,"x_min":65,"x_max":914,"o":"m 914 958 l 914 396 q 832 85 914 179 q 553 -18 750 -10 q 526 -67 549 -26 q 490 -133 503 -108 q 493 -177 474 -168 q 557 -179 513 -186 l 574 -279 q 395 -308 461 -321 q 305 -253 329 -296 q 299 -158 281 -211 q 432 -17 321 -86 q 149 90 232 -4 q 65 396 65 185 l 65 958 l 367 958 l 367 396 q 392 242 367 281 q 490 204 417 204 q 588 242 563 204 q 613 396 613 281 l 613 958 l 914 958 z "},"ų":{"ha":854,"x_min":56,"x_max":813,"o":"m 796 -167 l 813 -267 q 634 -296 700 -308 q 544 -241 568 -283 q 538 -146 519 -199 q 679 0 563 -68 l 565 0 l 539 101 q 261 -19 406 -19 q 56 175 56 -19 l 56 694 l 347 694 l 347 268 q 399 225 347 225 q 501 242 449 225 l 501 694 l 794 694 l 794 0 q 729 -121 739 -100 q 732 -165 713 -156 q 796 -167 751 -174 z "},"Ŵ":{"ha":1393,"x_min":28,"x_max":1365,"o":"m 992 1082 l 925 986 l 704 1115 l 693 1115 l 468 986 l 399 1093 l 593 1278 l 804 1278 l 992 1082 m 1365 958 l 1246 81 q 1211 22 1240 44 q 1143 0 1182 0 l 888 0 q 819 22 849 0 q 785 81 789 44 l 719 610 q 708 750 714 653 l 685 750 q 674 608 679 653 l 610 81 q 576 22 606 44 q 507 0 546 0 l 250 0 q 182 22 211 0 q 147 81 153 44 l 28 958 l 325 958 l 374 371 q 379 211 379 276 l 401 211 q 424 372 421 347 l 488 869 q 520 933 492 908 q 589 958 549 958 l 804 958 q 872 934 844 958 q 906 869 900 910 l 971 369 q 992 211 975 328 l 1014 211 q 1021 368 1014 250 l 1068 958 l 1365 958 z "},"ŵ":{"ha":1217,"x_min":11,"x_max":1206,"o":"m 906 821 l 839 725 l 618 854 l 607 854 l 382 725 l 313 832 l 507 1017 l 718 1017 l 906 821 m 1206 694 l 1064 74 q 1031 20 1057 40 q 969 0 1006 0 l 765 0 q 698 24 726 0 q 665 86 669 49 l 625 401 q 617 524 625 407 l 599 524 q 589 401 593 449 l 549 86 q 516 24 544 49 q 449 0 488 0 l 247 0 q 185 20 211 0 q 153 74 160 40 l 11 694 l 300 694 l 350 304 q 361 181 358 218 l 378 181 q 381 219 379 199 q 386 265 383 240 q 390 304 389 290 l 429 610 q 461 671 433 647 q 528 694 489 694 l 688 694 q 754 671 726 694 q 786 608 782 647 l 824 304 q 831 247 825 290 q 838 181 836 204 l 854 181 q 867 304 867 300 l 915 694 l 1206 694 z "},"Ŷ":{"ha":908,"x_min":-14,"x_max":922,"o":"m 225 986 l 156 1093 l 350 1278 l 561 1278 l 749 1082 l 682 986 l 461 1115 l 450 1115 l 225 986 m 606 299 l 606 0 l 304 0 l 304 296 l -14 958 l 296 958 l 417 657 q 446 522 429 626 l 464 522 q 493 658 481 624 l 613 958 l 922 958 l 606 299 z "},"ŷ":{"ha":836,"x_min":-4,"x_max":839,"o":"m 194 725 l 125 832 l 319 1017 l 531 1017 l 718 821 l 651 725 l 431 854 l 419 854 l 194 725 m 839 694 l 618 19 q 588 -60 606 -22 q 541 -138 569 -97 q 477 -208 513 -179 q 393 -259 442 -236 q 286 -284 344 -282 q 156 -274 228 -286 l 136 -117 q 265 -74 218 -100 q 340 0 313 -47 l 293 0 q 201 68 222 0 l -4 694 l 306 694 l 388 311 q 406 181 393 274 l 418 181 q 447 311 428 214 l 529 694 l 839 694 z "},"Ÿ":{"ha":908,"x_min":-14,"x_max":922,"o":"m 368 1060 l 272 1060 q 218 1114 218 1060 l 218 1201 q 272 1256 218 1256 l 368 1256 q 422 1201 422 1256 l 422 1114 q 368 1060 422 1060 m 631 1060 l 535 1060 q 481 1114 481 1060 l 481 1201 q 535 1256 481 1256 l 631 1256 q 685 1201 685 1256 l 685 1114 q 631 1060 685 1060 m 606 299 l 606 0 l 304 0 l 304 296 l -14 958 l 296 958 l 417 657 q 446 522 429 626 l 464 522 q 493 658 481 624 l 613 958 l 922 958 l 606 299 z "},"Ź":{"ha":840,"x_min":40,"x_max":801,"o":"m 367 1000 l 288 1119 l 611 1328 l 721 1143 l 367 1000 m 801 211 l 801 0 l 40 0 l 40 211 l 454 747 l 54 747 l 54 958 l 788 958 l 788 747 l 374 211 l 801 211 z "},"ź":{"ha":751,"x_min":40,"x_max":711,"o":"m 321 739 l 242 858 l 565 1067 l 675 882 l 321 739 m 711 188 l 711 0 l 40 0 l 40 188 l 363 507 l 49 507 l 49 694 l 703 694 l 703 507 l 381 188 l 711 188 z "},"Ż":{"ha":840,"x_min":40,"x_max":801,"o":"m 474 1044 l 386 1044 q 304 1124 304 1044 l 304 1189 q 386 1268 304 1268 l 474 1268 q 556 1189 556 1268 l 556 1124 q 474 1044 556 1044 m 801 211 l 801 0 l 40 0 l 40 211 l 454 747 l 54 747 l 54 958 l 788 958 l 788 747 l 374 211 l 801 211 z "},"ż":{"ha":751,"x_min":40,"x_max":711,"o":"m 428 783 l 340 783 q 258 863 258 783 l 258 928 q 340 1007 258 1007 l 428 1007 q 510 928 510 1007 l 510 863 q 428 783 510 783 m 711 188 l 711 0 l 40 0 l 40 188 l 363 507 l 49 507 l 49 694 l 703 694 l 703 507 l 381 188 l 711 188 z "},"Ž":{"ha":840,"x_min":40,"x_max":801,"o":"m 372 1022 l 144 1204 l 214 1311 l 424 1206 l 435 1206 l 646 1311 l 713 1204 l 486 1022 l 372 1022 m 801 211 l 801 0 l 40 0 l 40 211 l 454 747 l 54 747 l 54 958 l 788 958 l 788 747 l 374 211 l 801 211 z "},"ž":{"ha":751,"x_min":40,"x_max":711,"o":"m 326 761 l 99 943 l 168 1050 l 378 944 l 389 944 l 600 1050 l 667 943 l 440 761 l 326 761 m 711 188 l 711 0 l 40 0 l 40 188 l 363 507 l 49 507 l 49 694 l 703 694 l 703 507 l 381 188 l 711 188 z "},"ƒ":{"ha":713,"x_min":-37,"x_max":697,"o":"m 654 783 l 569 783 q 524 767 538 783 q 507 711 510 751 l 494 569 l 625 569 l 611 394 l 479 394 l 443 -24 q 176 -250 421 -250 q -37 -231 42 -250 l 6 -56 l 90 -56 q 136 -40 122 -56 q 153 17 150 -24 l 186 394 l 60 394 l 72 563 l 201 569 l 217 751 q 483 978 239 978 q 697 958 618 978 l 654 783 z "},"Ș":{"ha":847,"x_min":42,"x_max":813,"o":"m 446 324 l 256 407 q 90 524 139 458 q 42 696 42 590 q 129 917 42 857 q 436 978 217 978 q 785 929 646 978 l 767 736 q 429 739 600 739 q 358 732 376 739 q 340 703 340 725 q 358 670 340 683 q 424 638 375 657 l 597 565 q 764 447 715 514 q 813 274 813 381 q 728 46 813 111 q 421 -19 643 -19 q 50 28 233 -19 l 68 239 q 417 232 343 232 q 492 239 474 232 q 511 265 511 246 q 498 297 511 285 q 446 324 485 310 m 354 -67 l 407 -67 q 476 -83 457 -67 q 497 -142 496 -99 l 497 -208 q 477 -330 497 -282 q 413 -429 457 -378 l 314 -403 q 339 -260 336 -349 q 261 -193 264 -260 l 265 -142 q 285 -83 267 -99 q 354 -67 304 -67 z "},"ș":{"ha":768,"x_min":33,"x_max":740,"o":"m 368 242 l 215 283 q 71 368 108 314 q 33 511 33 422 q 107 663 33 611 q 356 714 181 714 q 711 683 563 714 l 693 514 l 419 514 q 330 512 344 514 q 315 497 315 510 q 363 474 315 485 q 397 464 383 468 l 557 424 q 697 349 653 397 q 740 214 740 301 q 665 34 740 83 q 404 -15 589 -15 q 43 14 213 -15 l 61 183 l 308 183 q 435 186 411 183 q 458 204 458 189 q 458 209 458 207 q 455 213 457 211 q 451 217 453 215 q 444 220 449 218 q 435 223 440 222 q 423 226 431 224 q 408 231 415 229 q 390 235 401 232 q 368 242 379 239 m 342 -53 l 394 -53 q 464 -69 444 -53 q 485 -128 483 -85 l 485 -194 q 465 -316 485 -268 q 400 -415 444 -364 l 301 -389 q 326 -246 324 -335 q 249 -179 251 -246 l 253 -128 q 273 -69 254 -85 q 342 -53 292 -53 z "},"Ț":{"ha":865,"x_min":14,"x_max":851,"o":"m 851 733 l 583 733 l 583 0 l 282 0 l 282 733 l 14 733 l 14 958 l 851 958 l 851 733 m 397 -67 l 450 -67 q 519 -83 500 -67 q 540 -142 539 -99 l 540 -208 q 520 -330 540 -282 q 456 -429 500 -378 l 357 -403 q 382 -260 379 -349 q 304 -193 307 -260 l 308 -142 q 328 -83 310 -99 q 397 -67 347 -67 z "},"ț":{"ha":608,"x_min":14,"x_max":592,"o":"m 424 519 l 424 253 q 438 215 424 226 q 483 203 451 203 l 557 203 l 589 17 q 353 -19 503 -19 q 192 32 251 -19 q 132 175 132 83 l 132 519 l 14 519 l 14 688 l 131 693 l 131 876 l 424 876 l 424 694 l 592 694 l 592 519 l 424 519 m 307 -67 l 360 -67 q 429 -83 410 -67 q 450 -142 449 -99 l 450 -208 q 430 -330 450 -282 q 365 -429 410 -378 l 267 -403 q 292 -260 289 -349 q 214 -193 217 -260 l 218 -142 q 238 -83 219 -99 q 307 -67 257 -67 z "},"ˆ":{"ha":663,"x_min":33,"x_max":626,"o":"m 626 825 l 560 729 l 339 858 l 328 858 l 103 729 l 33 836 l 228 1021 l 439 1021 l 626 825 z "},"ˇ":{"ha":663,"x_min":49,"x_max":617,"o":"m 617 940 l 390 758 l 276 758 l 49 940 l 118 1047 l 328 942 l 339 942 l 550 1047 l 617 940 z "},"˘":{"ha":571,"x_min":38,"x_max":533,"o":"m 399 999 l 533 981 q 481 813 550 885 q 286 742 411 742 q 91 813 161 742 q 38 981 21 885 l 172 999 q 198 935 172 954 q 286 917 224 917 q 373 935 347 917 q 399 999 399 954 z "},"˙":{"ha":349,"x_min":49,"x_max":300,"o":"m 131 1006 l 218 1006 q 300 926 300 1006 l 300 861 q 218 782 300 782 l 131 782 q 49 861 49 782 l 49 926 q 131 1006 49 1006 z "},"˚":{"ha":442,"x_min":42,"x_max":400,"o":"m 94 1033 q 121 1058 94 1033 q 221 1083 147 1083 q 347 1033 294 1083 q 400 910 400 982 q 347 787 400 838 q 221 736 294 736 q 94 787 147 736 q 42 910 42 838 q 94 1033 42 982 m 264 953 q 255 963 264 953 q 221 972 246 972 q 178 953 196 972 q 160 910 160 935 q 178 865 160 883 q 221 847 196 847 q 264 865 246 847 q 282 910 282 883 q 264 953 282 935 z "},"˛":{"ha":347,"x_min":47,"x_max":322,"o":"m 193 3 l 304 0 q 239 -121 249 -100 q 242 -165 222 -156 q 306 -167 261 -174 l 322 -267 q 144 -296 210 -308 q 53 -241 78 -283 q 47 -146 29 -199 q 193 3 72 -68 z "},"˜":{"ha":639,"x_min":63,"x_max":576,"o":"m 183 771 l 63 771 q 80 948 42 886 q 181 1006 118 1010 q 317 976 236 1001 q 415 946 397 950 q 450 951 444 940 q 456 999 456 961 l 576 999 q 562 823 597 886 q 458 764 526 760 q 322 794 404 768 q 222 824 240 821 q 189 819 194 828 q 183 779 183 811 q 183 771 183 774 z "},"˝":{"ha":760,"x_min":56,"x_max":704,"o":"m 406 933 l 171 689 l 56 782 l 226 1050 l 406 933 m 704 933 l 468 689 l 354 781 l 525 1050 l 704 933 z "},"Δ":{"ha":978,"x_min":24,"x_max":954,"o":"m 954 94 l 954 0 l 24 0 l 24 94 l 340 958 l 638 958 l 954 94 m 619 211 l 517 532 q 489 672 508 564 q 460 532 461 536 l 358 211 l 619 211 z "},"Ω":{"ha":1000,"x_min":50,"x_max":950,"o":"m 50 225 l 144 225 q 249 197 199 225 q 101 363 143 285 q 58 563 58 440 q 161 878 58 778 q 501 978 264 978 q 840 877 739 978 q 942 557 942 776 q 900 355 942 432 q 751 197 858 278 q 856 225 808 225 l 950 225 l 950 0 l 526 0 l 526 211 q 606 335 585 269 q 628 517 628 400 q 603 710 628 665 q 500 756 579 756 q 397 710 421 756 q 372 514 372 664 q 393 333 372 392 q 474 211 414 275 l 474 0 l 50 0 l 50 225 z "},"μ":{"ha":907,"x_min":82,"x_max":821,"o":"m 821 694 l 821 0 l 593 0 l 567 101 q 321 -18 451 -8 q 333 -101 333 -60 l 333 -250 l 82 -250 l 82 694 l 374 694 l 374 268 q 428 225 374 225 q 529 242 476 225 l 529 694 l 821 694 z "},"π":{"ha":910,"x_min":18,"x_max":892,"o":"m 892 507 l 803 507 l 803 0 l 511 0 l 511 507 l 399 507 l 399 0 l 107 0 l 107 507 l 18 507 l 18 696 l 892 696 l 892 507 z "},"Ё":{"ha":831,"x_min":68,"x_max":792,"o":"m 365 1060 l 269 1060 q 215 1114 215 1060 l 215 1201 q 269 1256 215 1256 l 365 1256 q 419 1201 419 1256 l 419 1114 q 365 1060 419 1060 m 628 1060 l 532 1060 q 478 1114 478 1060 l 478 1201 q 532 1256 478 1256 l 628 1256 q 682 1201 682 1256 l 682 1114 q 628 1060 682 1060 m 778 225 l 792 13 q 293 -6 653 -6 q 131 55 194 -6 q 68 213 68 115 l 68 746 q 131 903 68 843 q 293 964 194 964 q 792 946 653 964 l 778 733 l 426 733 q 385 719 400 733 q 369 683 369 706 l 369 590 l 728 590 l 728 390 l 369 390 l 369 275 q 385 239 369 253 q 426 225 400 225 l 778 225 z "},"Ђ":{"ha":1079,"x_min":14,"x_max":1058,"o":"m 579 733 l 579 576 q 811 631 700 631 q 1002 566 946 631 q 1058 333 1058 501 q 1029 160 1058 232 q 946 49 1000 88 q 826 -6 892 11 q 674 -22 760 -22 l 646 186 q 733 233 710 203 q 756 321 756 263 q 744 385 756 372 q 690 399 732 399 q 579 383 632 399 l 579 0 l 278 0 l 278 733 l 14 733 l 14 958 l 843 958 l 843 733 l 579 733 z "},"Ѓ":{"ha":769,"x_min":75,"x_max":764,"o":"m 714 1143 l 360 1000 l 281 1119 l 604 1328 l 714 1143 m 75 0 l 75 746 q 138 903 75 843 q 299 964 200 964 q 764 944 633 964 l 750 733 l 435 733 q 392 719 408 733 q 376 683 376 706 l 376 0 l 75 0 z "},"Є":{"ha":843,"x_min":44,"x_max":811,"o":"m 789 249 l 811 29 q 485 -17 681 -17 q 144 94 243 -17 q 44 479 44 206 q 144 864 44 753 q 485 975 243 975 q 804 938 668 975 l 782 718 q 485 721 585 721 q 393 692 421 721 q 358 583 365 663 l 732 583 l 732 397 l 357 397 q 390 271 363 304 q 485 238 417 238 q 789 249 686 238 z "},"Ѕ":{"ha":847,"x_min":42,"x_max":813,"o":"m 446 324 l 256 407 q 90 524 139 458 q 42 696 42 590 q 129 917 42 857 q 436 978 217 978 q 785 929 646 978 l 767 736 q 429 739 600 739 q 358 732 376 739 q 340 703 340 725 q 358 670 340 683 q 424 638 375 657 l 597 565 q 764 447 715 514 q 813 274 813 381 q 728 46 813 111 q 421 -19 643 -19 q 50 28 233 -19 l 68 239 q 417 232 343 232 q 492 239 474 232 q 511 265 511 246 q 498 297 511 285 q 446 324 485 310 z "},"І":{"ha":457,"x_min":79,"x_max":378,"o":"m 378 0 l 79 0 l 79 958 l 378 958 l 378 0 z "},"Ї":{"ha":457,"x_min":-7,"x_max":460,"o":"m 47 1256 l 143 1256 q 197 1201 197 1256 l 197 1114 q 143 1060 197 1060 l 47 1060 q -7 1114 -7 1060 l -7 1201 q 47 1256 -7 1256 m 310 1256 l 406 1256 q 460 1201 460 1256 l 460 1114 q 406 1060 460 1060 l 310 1060 q 256 1114 256 1060 l 256 1201 q 310 1256 256 1256 m 378 0 l 79 0 l 79 958 l 378 958 l 378 0 z "},"Ј":{"ha":567,"x_min":14,"x_max":492,"o":"m 492 958 l 492 176 q 424 32 492 83 q 238 -19 356 -19 q 115 -10 183 -19 q 14 17 46 0 l 46 206 l 111 206 q 193 254 193 206 l 193 958 l 492 958 z "},"Љ":{"ha":1365,"x_min":14,"x_max":1338,"o":"m 896 629 l 957 629 q 1256 562 1174 629 q 1338 311 1338 494 q 1263 58 1338 128 q 1010 -11 1188 -11 q 607 0 750 -11 l 599 0 l 599 761 l 550 761 q 485 697 492 761 q 419 228 454 347 q 281 18 374 71 q 35 -7 188 -35 l 14 199 q 70 213 50 206 q 112 244 90 221 q 147 308 133 267 q 201 732 176 393 q 438 958 218 958 l 896 958 l 896 629 m 896 197 l 957 197 q 1020 221 1006 197 q 1035 321 1035 244 q 1020 422 1035 397 q 957 447 1006 447 l 896 447 l 896 197 z "},"Њ":{"ha":1353,"x_min":79,"x_max":1326,"o":"m 886 606 l 961 606 q 1247 542 1168 606 q 1326 310 1326 479 q 1254 58 1326 128 q 1015 -11 1182 -11 q 597 0 740 -11 l 589 0 l 589 410 l 382 410 l 382 0 l 79 0 l 79 958 l 382 958 l 382 607 l 589 607 l 589 958 l 886 958 l 886 606 m 886 197 l 961 197 q 1012 219 1000 197 q 1024 313 1024 242 q 1012 402 1024 381 q 961 424 1000 424 l 886 424 l 886 197 z "},"Ћ":{"ha":1125,"x_min":14,"x_max":1086,"o":"m 579 733 l 579 601 q 818 644 715 644 q 1022 584 957 644 q 1086 394 1086 524 l 1086 0 l 783 0 l 783 329 q 769 385 783 372 q 706 399 754 399 l 579 399 l 579 0 l 278 0 l 278 733 l 14 733 l 14 958 l 843 958 l 843 733 l 579 733 z "},"Ќ":{"ha":946,"x_min":79,"x_max":939,"o":"m 431 1000 l 351 1119 l 675 1328 l 785 1143 l 431 1000 m 613 504 l 613 496 q 797 408 753 475 q 924 53 842 342 q 939 0 933 18 l 625 0 q 531 322 551 274 q 460 394 503 383 q 401 400 439 400 l 369 400 q 381 313 381 351 l 381 0 l 79 0 l 79 958 l 381 958 l 381 717 q 367 594 381 651 l 397 594 q 514 649 483 594 q 596 918 544 703 q 606 958 603 944 l 911 958 q 825 672 831 689 q 735 540 789 572 q 613 504 696 515 z "},"Ѝ":{"ha":1019,"x_min":79,"x_max":940,"o":"m 661 1119 l 582 1000 l 228 1143 l 338 1328 l 661 1119 m 940 0 l 654 0 l 654 440 q 669 589 654 497 l 660 589 q 601 442 635 504 l 367 0 l 79 0 l 79 958 l 365 958 l 365 533 q 350 378 365 475 l 360 378 q 421 525 386 461 l 654 958 l 940 958 l 940 0 z "},"Ў":{"ha":865,"x_min":-10,"x_max":875,"o":"m 551 1281 l 686 1263 q 633 1095 703 1167 q 439 1024 564 1024 q 244 1095 314 1024 q 190 1263 174 1167 l 325 1281 q 351 1217 325 1236 q 439 1199 376 1199 q 526 1217 500 1199 q 551 1281 551 1236 m 875 958 l 667 260 q 569 54 625 117 q 403 -19 514 -8 q 107 0 297 -31 l 139 206 q 301 206 249 200 q 364 244 353 211 l 369 267 l 313 267 q 215 300 250 267 q 163 397 181 333 l -10 958 l 299 958 l 407 493 q 429 478 410 478 l 442 478 l 567 958 l 875 958 z "},"Џ":{"ha":1001,"x_min":79,"x_max":922,"o":"m 922 958 l 922 0 l 619 0 l 608 -210 l 403 -210 l 392 0 l 79 0 l 79 958 l 381 958 l 381 197 l 621 197 l 621 958 l 922 958 z "},"А":{"ha":949,"x_min":-12,"x_max":961,"o":"m 606 207 l 343 207 l 294 0 l -12 0 l 236 881 q 274 937 246 915 q 338 958 301 958 l 611 958 q 675 937 647 958 q 713 881 703 915 l 961 0 l 654 0 l 606 207 m 557 418 l 510 624 q 493 733 497 689 l 456 733 q 439 624 447 668 l 392 418 l 557 418 z "},"Б":{"ha":900,"x_min":78,"x_max":872,"o":"m 379 588 l 475 588 q 786 525 700 588 q 872 292 872 463 q 789 55 872 121 q 515 -11 706 -11 q 86 0 235 -11 l 78 0 l 78 958 q 435 969 240 969 q 804 958 613 969 l 782 743 l 379 743 l 379 588 m 379 197 l 475 197 q 553 217 535 197 q 571 301 571 238 q 553 385 571 365 q 475 406 535 406 l 379 406 l 379 197 z "},"В":{"ha":922,"x_min":78,"x_max":885,"o":"m 678 501 l 678 493 q 837 421 789 483 q 885 239 885 358 q 805 42 885 96 q 538 -11 725 -11 q 78 0 233 -11 l 78 958 q 492 969 219 969 q 774 917 696 969 q 853 719 853 865 q 812 563 853 615 q 678 501 771 510 m 372 585 l 479 585 q 549 603 532 585 q 565 676 565 621 q 548 749 565 732 q 476 765 531 765 l 372 765 l 372 585 m 372 193 l 483 193 q 565 214 546 193 q 585 300 585 235 q 565 388 585 367 q 482 408 546 408 l 372 408 l 372 193 z "},"Г":{"ha":769,"x_min":75,"x_max":764,"o":"m 75 0 l 75 746 q 138 903 75 843 q 299 964 200 964 q 764 944 633 964 l 750 733 l 435 733 q 392 719 408 733 q 376 683 376 706 l 376 0 l 75 0 z "},"Д":{"ha":1088,"x_min":15,"x_max":1071,"o":"m 1071 197 l 1071 -210 l 853 -210 l 832 0 l 254 0 l 233 -210 l 15 -210 l 15 197 l 121 197 q 238 746 206 438 q 312 899 247 839 q 475 958 376 958 l 939 958 l 939 197 l 1071 197 m 638 197 l 638 761 l 581 761 q 517 694 522 761 q 472 396 497 506 q 404 197 447 286 l 638 197 z "},"Е":{"ha":831,"x_min":68,"x_max":792,"o":"m 778 225 l 792 13 q 293 -6 653 -6 q 131 55 194 -6 q 68 213 68 115 l 68 746 q 131 903 68 843 q 293 964 194 964 q 792 946 653 964 l 778 733 l 426 733 q 385 719 400 733 q 369 683 369 706 l 369 590 l 728 590 l 728 390 l 369 390 l 369 275 q 385 239 369 253 q 426 225 400 225 l 778 225 z "},"Ж":{"ha":1344,"x_min":10,"x_max":1335,"o":"m 1021 504 l 1021 496 q 1101 480 1071 488 q 1158 451 1131 472 q 1202 406 1186 429 q 1238 329 1218 382 q 1274 222 1258 276 q 1317 67 1289 167 q 1335 0 1328 24 l 1019 0 q 918 333 932 301 q 864 397 896 389 q 836 400 854 400 l 804 400 q 815 313 815 351 l 815 0 l 528 0 l 528 313 q 540 400 528 344 l 507 400 q 455 381 472 400 q 418 308 438 361 q 358 115 399 254 q 325 0 338 43 l 10 0 q 114 349 89 290 q 213 467 151 438 q 324 496 249 485 l 324 504 q 267 514 290 508 q 222 531 243 519 q 188 551 201 543 q 160 585 175 560 q 137 625 144 610 q 115 683 129 640 q 94 754 101 726 q 68 847 86 782 q 38 958 50 913 l 343 958 q 429 664 417 694 q 489 596 453 604 q 508 594 497 594 l 543 594 q 529 717 529 651 l 529 958 l 815 958 l 815 717 q 803 594 815 656 l 833 594 q 903 638 881 594 q 972 854 925 682 q 1001 958 990 919 l 1307 958 q 1276 847 1294 913 q 1251 754 1258 782 q 1229 683 1243 726 q 1208 625 1215 640 q 1185 585 1200 610 q 1156 551 1169 560 q 1122 531 1143 543 q 1078 514 1101 519 q 1021 504 1054 508 z "},"З":{"ha":814,"x_min":28,"x_max":772,"o":"m 65 732 l 43 938 q 393 969 181 969 q 666 917 590 969 q 742 719 742 865 q 703 562 742 614 q 575 501 664 510 l 575 493 q 726 421 681 483 q 772 239 772 358 q 695 42 772 96 q 438 -11 618 -11 q 28 42 190 -11 l 50 238 q 378 206 250 206 q 447 224 429 206 q 464 300 464 243 q 447 378 464 360 q 376 399 429 397 l 165 403 l 165 590 l 374 594 q 431 612 417 596 q 444 676 444 628 q 430 738 444 722 q 372 753 415 753 q 65 732 247 753 z "},"И":{"ha":1019,"x_min":79,"x_max":940,"o":"m 940 0 l 654 0 l 654 440 q 669 589 654 497 l 660 589 q 601 442 635 504 l 367 0 l 79 0 l 79 958 l 365 958 l 365 533 q 350 378 365 475 l 360 378 q 421 525 386 461 l 654 958 l 940 958 l 940 0 z "},"Й":{"ha":1019,"x_min":79,"x_max":940,"o":"m 593 1264 l 769 1264 q 717 1097 788 1171 q 522 1024 646 1024 q 328 1097 399 1024 q 274 1264 257 1171 l 450 1264 q 460 1180 442 1203 q 522 1157 478 1157 q 583 1180 565 1157 q 593 1264 601 1203 m 940 0 l 654 0 l 654 440 q 669 589 654 497 l 660 589 q 601 442 635 504 l 367 0 l 79 0 l 79 958 l 365 958 l 365 533 q 350 378 365 475 l 360 378 q 421 525 386 461 l 654 958 l 940 958 l 940 0 z "},"К":{"ha":946,"x_min":79,"x_max":939,"o":"m 613 504 l 613 496 q 797 408 753 475 q 924 53 842 342 q 939 0 933 18 l 625 0 q 531 322 551 274 q 460 394 503 383 q 401 400 439 400 l 369 400 q 381 313 381 351 l 381 0 l 79 0 l 79 958 l 381 958 l 381 717 q 367 594 381 651 l 397 594 q 514 649 483 594 q 596 918 544 703 q 606 958 603 944 l 911 958 q 825 672 831 689 q 735 540 789 572 q 613 504 696 515 z "},"Л":{"ha":986,"x_min":-6,"x_max":907,"o":"m 907 958 l 907 0 l 606 0 l 606 761 l 547 761 q 474 697 478 761 q 407 228 449 365 q 263 18 361 69 q 15 -7 164 -33 l -6 226 q 55 236 33 231 q 98 259 76 242 q 131 308 119 276 q 189 718 168 419 q 442 958 204 958 l 907 958 z "},"М":{"ha":1333,"x_min":61,"x_max":1272,"o":"m 868 958 l 1133 958 q 1239 854 1235 958 l 1272 0 l 1001 0 l 972 733 l 951 733 l 857 244 q 743 153 842 153 l 588 153 q 472 244 489 153 l 376 733 l 356 733 l 332 0 l 61 0 l 94 854 q 200 958 99 958 l 460 958 q 574 865 557 958 l 643 485 q 658 342 650 440 l 671 342 q 677 401 671 346 q 688 485 683 457 l 753 865 q 868 958 769 958 z "},"Н":{"ha":1003,"x_min":79,"x_max":924,"o":"m 924 958 l 924 0 l 622 0 l 622 403 l 381 403 l 381 0 l 79 0 l 79 958 l 381 958 l 381 614 l 622 614 l 622 958 l 924 958 z "},"О":{"ha":982,"x_min":44,"x_max":938,"o":"m 490 978 q 755 935 661 978 q 893 785 849 893 q 938 479 938 678 q 893 173 938 281 q 755 23 849 65 q 490 -19 661 -19 q 227 23 321 -19 q 89 173 133 65 q 44 479 44 281 q 89 785 44 678 q 227 935 133 893 q 490 978 321 978 m 594 699 q 581 727 594 699 q 490 754 568 754 q 387 699 413 754 q 361 479 361 644 q 387 259 361 314 q 490 204 413 204 q 594 259 568 204 q 619 479 619 314 q 594 699 619 644 z "},"П":{"ha":997,"x_min":79,"x_max":918,"o":"m 918 958 l 918 0 l 617 0 l 617 761 l 381 761 l 381 0 l 79 0 l 79 958 l 918 958 z "},"Р":{"ha":903,"x_min":78,"x_max":881,"o":"m 78 0 l 78 958 q 483 972 219 972 q 797 904 713 972 q 881 646 881 836 q 803 390 881 458 q 525 322 725 322 q 379 331 450 322 l 379 0 l 78 0 m 379 535 l 476 535 q 558 557 538 535 q 579 646 579 579 q 558 737 579 714 q 476 760 538 760 l 379 760 l 379 535 z "},"С":{"ha":840,"x_min":44,"x_max":815,"o":"m 793 249 l 815 29 q 479 -17 682 -17 q 142 94 240 -17 q 44 479 44 206 q 142 864 44 753 q 479 975 240 975 q 794 938 658 975 l 772 718 q 479 721 578 721 q 385 673 408 721 q 361 479 361 625 q 385 285 361 333 q 479 238 408 238 q 793 249 686 238 z "},"Т":{"ha":865,"x_min":14,"x_max":851,"o":"m 851 733 l 583 733 l 583 0 l 282 0 l 282 733 l 14 733 l 14 958 l 851 958 l 851 733 z "},"У":{"ha":865,"x_min":-10,"x_max":875,"o":"m 875 958 l 667 260 q 569 54 625 117 q 403 -19 514 -8 q 107 0 297 -31 l 139 206 q 301 206 249 200 q 364 244 353 211 l 369 267 l 313 267 q 215 300 250 267 q 163 397 181 333 l -10 958 l 299 958 l 407 493 q 429 478 410 478 l 442 478 l 567 958 l 875 958 z "},"Ф":{"ha":1218,"x_min":22,"x_max":1196,"o":"m 760 1019 l 760 904 q 1099 797 1001 888 q 1196 493 1196 706 q 1099 201 1196 289 q 760 96 1001 113 l 760 -19 l 458 -19 l 458 96 q 119 200 217 111 q 22 493 22 289 q 119 797 22 706 q 458 904 217 888 l 458 1019 l 760 1019 m 472 307 l 472 693 q 352 642 381 683 q 324 493 324 601 q 352 355 324 393 q 472 307 381 317 m 746 693 l 746 307 q 866 355 838 317 q 894 493 894 393 q 866 642 894 600 q 746 693 838 683 z "},"Х":{"ha":940,"x_min":-7,"x_max":947,"o":"m 649 0 l 471 403 l 292 0 l -7 0 l 231 489 l 13 958 l 310 958 l 471 579 l 631 958 l 928 958 l 710 489 l 947 0 l 649 0 z "},"Ц":{"ha":1019,"x_min":79,"x_max":1001,"o":"m 1001 197 l 1001 -210 l 783 -210 l 763 0 l 79 0 l 79 958 l 381 958 l 381 197 l 594 197 l 594 958 l 896 958 l 896 197 l 1001 197 z "},"Ч":{"ha":964,"x_min":49,"x_max":885,"o":"m 885 958 l 885 0 l 583 0 l 583 364 q 321 300 444 300 q 115 360 181 300 q 49 550 49 421 l 49 958 l 350 958 l 350 615 q 364 560 347 574 q 432 546 381 546 q 583 565 517 546 l 583 958 l 885 958 z "},"Ш":{"ha":1415,"x_min":79,"x_max":1336,"o":"m 1336 958 l 1336 0 l 79 0 l 79 958 l 374 958 l 374 197 l 561 197 l 561 958 l 854 958 l 854 197 l 1042 197 l 1042 958 l 1336 958 z "},"Щ":{"ha":1456,"x_min":79,"x_max":1436,"o":"m 1436 197 l 1436 -210 l 1218 -210 l 1197 0 l 79 0 l 79 958 l 374 958 l 374 197 l 558 197 l 558 958 l 853 958 l 853 197 l 1038 197 l 1038 958 l 1332 958 l 1332 197 l 1436 197 z "},"Ъ":{"ha":1092,"x_min":13,"x_max":1064,"o":"m 606 629 l 682 629 q 981 562 899 629 q 1064 310 1064 494 q 988 58 1064 128 q 736 -11 913 -11 q 311 0 456 -11 l 303 0 l 303 733 l 13 733 l 13 958 l 606 958 l 606 629 m 606 197 l 682 197 q 747 221 732 197 q 761 321 761 244 q 747 423 761 399 q 682 447 732 447 l 606 447 l 606 197 z "},"Ы":{"ha":1326,"x_min":79,"x_max":1247,"o":"m 382 629 l 460 629 q 760 562 678 629 q 843 310 843 494 q 767 58 843 128 q 514 -11 690 -11 q 88 0 232 -11 l 79 0 l 79 958 l 382 958 l 382 629 m 1247 958 l 1247 0 l 944 0 l 944 958 l 1247 958 m 382 197 l 460 197 q 525 221 510 197 q 540 321 540 244 q 525 423 540 399 q 460 447 510 447 l 382 447 l 382 197 z "},"Ь":{"ha":881,"x_min":79,"x_max":853,"o":"m 381 629 l 465 629 q 769 562 686 629 q 853 310 853 494 q 776 58 853 128 q 519 -11 699 -11 q 88 0 233 -11 l 79 0 l 79 958 l 381 958 l 381 629 m 381 197 l 465 197 q 535 221 519 197 q 551 321 551 244 q 535 422 551 397 q 465 447 519 447 l 381 447 l 381 197 z "},"Э":{"ha":843,"x_min":32,"x_max":799,"o":"m 61 718 l 39 938 q 358 975 175 975 q 699 864 600 975 q 799 479 799 753 q 699 94 799 206 q 358 -17 600 -17 q 32 29 161 -17 l 54 249 q 358 238 157 238 q 453 271 426 238 q 486 397 481 304 l 111 397 l 111 583 l 485 583 q 450 692 478 663 q 358 721 422 721 q 61 718 258 721 z "},"Ю":{"ha":1418,"x_min":79,"x_max":1374,"o":"m 382 593 l 522 593 q 629 896 538 814 q 931 978 721 978 q 1192 935 1100 978 q 1329 785 1285 893 q 1374 479 1374 678 q 1329 173 1374 281 q 1192 23 1285 65 q 931 -19 1100 -19 q 622 69 714 -19 q 519 396 531 157 l 382 396 l 382 0 l 79 0 l 79 958 l 382 958 l 382 593 m 931 204 q 1030 258 1006 204 q 1054 479 1054 313 q 1030 700 1054 646 q 931 754 1006 754 q 835 701 858 754 q 813 479 813 647 q 835 258 813 311 q 931 204 858 204 z "},"Я":{"ha":922,"x_min":18,"x_max":844,"o":"m 243 444 l 243 453 q 57 681 57 472 q 148 908 57 844 q 450 972 239 972 q 844 958 707 972 l 844 0 l 543 0 l 543 350 l 468 350 q 415 337 431 350 q 393 285 400 324 l 333 0 l 18 0 l 90 294 q 243 444 115 426 m 543 563 l 543 760 l 457 760 q 378 740 397 760 q 360 661 360 721 q 378 582 360 601 q 457 563 397 563 l 543 563 z "},"а":{"ha":825,"x_min":31,"x_max":768,"o":"m 94 494 l 68 679 q 464 714 257 714 q 693 650 618 714 q 768 431 768 586 l 768 0 l 536 0 l 510 97 q 269 -19 418 -19 q 99 32 167 -19 q 31 178 31 83 l 31 247 q 92 378 31 331 q 260 426 153 426 l 476 426 l 476 432 q 457 485 475 469 q 394 501 439 501 q 94 494 242 501 m 314 243 l 314 221 q 372 178 314 178 q 476 213 418 178 l 476 286 l 367 286 q 314 243 314 286 z "},"б":{"ha":854,"x_min":49,"x_max":817,"o":"m 738 1029 l 776 808 q 570 765 697 767 q 404 751 443 763 q 296 694 322 729 q 260 589 271 664 l 265 589 q 503 669 351 669 q 747 594 676 669 q 817 343 817 519 q 732 69 817 156 q 447 -17 647 -17 q 303 -4 365 -17 q 199 28 240 8 q 128 83 157 47 q 83 151 99 119 q 60 238 68 183 q 50 333 51 293 q 49 442 49 374 q 59 622 49 546 q 96 767 69 697 q 174 884 122 836 q 304 960 226 932 q 522 993 378 986 q 738 1029 665 1000 m 431 503 q 363 474 378 503 q 347 346 347 444 q 363 212 347 243 q 429 181 379 181 q 495 212 479 181 q 511 346 511 243 q 496 474 511 444 q 431 503 481 503 z "},"в":{"ha":824,"x_min":64,"x_max":794,"o":"m 613 361 l 613 354 q 752 303 710 349 q 794 172 794 257 q 724 27 794 67 q 489 -12 653 -12 q 64 -4 214 -12 l 64 694 q 447 703 199 703 q 697 665 628 703 q 767 518 767 626 q 731 405 767 443 q 613 361 694 367 m 338 428 l 436 428 q 485 438 472 428 q 497 476 497 449 q 484 515 497 506 q 433 525 471 525 l 338 525 l 338 428 m 338 169 l 438 169 q 491 182 476 169 q 506 231 506 194 q 491 276 506 264 q 436 288 476 288 l 338 288 l 338 169 z "},"г":{"ha":685,"x_min":60,"x_max":678,"o":"m 60 0 l 60 522 q 109 662 60 618 q 263 706 158 706 q 678 682 565 706 l 664 479 l 396 479 q 359 470 369 479 q 349 438 349 461 l 349 0 l 60 0 z "},"д":{"ha":935,"x_min":14,"x_max":918,"o":"m 918 189 l 918 -189 l 725 -189 l 706 0 l 226 0 l 207 -189 l 14 -189 l 14 189 l 99 189 q 179 525 144 321 q 383 694 207 694 l 799 694 l 799 189 l 918 189 m 525 189 l 525 517 l 486 517 q 431 468 439 517 q 357 189 401 297 l 525 189 z "},"е":{"ha":819,"x_min":35,"x_max":790,"o":"m 521 283 l 347 283 q 381 224 356 240 q 463 207 407 207 q 744 222 599 207 l 771 47 q 431 -17 644 -17 q 126 72 218 -17 q 35 342 35 160 q 124 630 35 546 q 429 714 213 714 q 705 653 621 714 q 790 467 789 592 q 731 326 792 368 q 521 283 671 283 m 342 421 l 439 421 q 499 430 486 421 q 511 474 511 439 q 495 516 511 506 q 438 526 479 526 q 363 508 382 528 q 342 421 344 489 z "},"ж":{"ha":1189,"x_min":10,"x_max":1181,"o":"m 911 367 l 911 358 q 1036 329 1013 343 q 1111 219 1079 307 q 1181 0 1129 171 l 886 0 q 810 226 826 185 q 771 269 793 267 l 715 269 q 722 214 722 235 l 722 0 l 467 0 l 467 214 q 475 269 467 239 l 419 269 q 381 224 399 267 q 304 0 364 181 l 10 0 q 104 278 78 232 q 185 342 132 328 q 279 358 203 347 l 279 367 l 278 367 l 276 367 q 154 399 179 379 q 88 517 119 422 q 57 615 79 543 q 32 694 42 665 l 318 694 q 396 471 379 496 q 449 450 415 450 l 478 450 q 468 540 468 493 l 468 694 l 722 694 l 722 540 q 713 450 722 503 l 739 450 q 797 476 782 450 q 861 664 811 501 q 871 694 868 683 l 1157 694 q 1078 454 1092 482 q 1011 385 1054 400 q 911 367 988 376 z "},"з":{"ha":743,"x_min":26,"x_max":713,"o":"m 58 490 l 40 676 q 315 714 165 714 q 606 678 526 714 q 685 522 685 643 q 649 404 685 440 q 532 361 614 368 l 532 354 q 670 304 628 349 q 713 174 713 260 q 697 87 713 122 q 657 31 682 51 q 585 -1 632 10 q 491 -16 539 -12 q 369 -19 443 -19 q 26 14 169 -19 l 44 200 q 349 183 206 183 q 403 190 392 183 q 415 228 415 197 q 404 256 415 251 q 347 264 393 261 l 114 269 l 114 432 l 346 438 q 381 441 371 439 q 395 449 390 443 q 400 471 400 456 q 389 501 400 496 q 335 507 378 507 q 58 490 201 507 z "},"и":{"ha":878,"x_min":64,"x_max":814,"o":"m 814 0 l 554 -3 l 554 269 q 565 400 554 322 l 558 400 q 500 275 538 332 l 322 0 l 64 0 l 64 694 l 322 694 l 322 404 q 311 292 322 361 l 318 292 q 372 400 329 331 l 556 694 l 814 694 l 814 0 z "},"й":{"ha":878,"x_min":64,"x_max":814,"o":"m 511 1003 l 688 1003 q 635 836 706 910 q 440 763 564 763 q 246 836 317 763 q 192 1003 175 910 l 368 1003 q 378 919 360 942 q 440 896 396 896 q 501 919 483 896 q 511 1003 519 942 m 814 0 l 554 -3 l 554 269 q 565 400 554 322 l 558 400 q 500 275 538 332 l 322 0 l 64 0 l 64 694 l 322 694 l 322 404 q 311 292 322 361 l 318 292 q 372 400 329 331 l 556 694 l 814 694 l 814 0 z "},"к":{"ha":825,"x_min":64,"x_max":815,"o":"m 557 365 l 557 357 q 585 353 567 356 q 716 295 688 338 q 811 14 744 253 q 815 0 814 4 l 513 0 q 450 221 464 181 q 411 265 436 261 l 347 265 q 354 211 354 233 l 354 0 l 64 0 l 64 694 l 354 694 l 354 543 q 344 451 354 496 l 369 451 q 438 477 422 451 q 486 647 453 503 q 497 694 493 678 l 792 694 q 721 457 726 474 q 660 386 699 401 q 557 365 639 378 z "},"л":{"ha":864,"x_min":4,"x_max":800,"o":"m 800 694 l 800 0 l 510 0 l 510 506 l 474 506 q 415 457 419 506 q 381 183 401 332 q 315 41 368 92 q 189 -15 261 -10 q 33 -7 117 -21 l 4 206 q 35 208 14 207 q 65 212 56 210 q 88 219 75 214 q 108 234 101 224 q 119 261 115 244 q 150 514 136 328 q 340 694 163 694 l 800 694 z "},"м":{"ha":1142,"x_min":56,"x_max":1088,"o":"m 729 694 l 974 694 q 1072 596 1069 694 l 1088 0 l 824 0 l 808 483 l 793 483 l 736 190 q 628 101 722 101 l 513 101 q 403 190 417 101 l 344 483 l 329 483 l 319 0 l 56 0 l 69 596 q 169 694 72 694 l 408 694 q 515 604 503 694 l 556 388 q 565 282 558 374 l 574 282 q 577 330 575 293 q 583 388 579 367 l 621 604 q 729 694 633 694 z "},"н":{"ha":872,"x_min":64,"x_max":808,"o":"m 808 694 l 808 0 l 522 0 l 522 271 l 351 271 l 351 0 l 64 0 l 64 694 l 351 694 l 351 458 l 522 458 l 522 694 l 808 694 z "},"о":{"ha":849,"x_min":36,"x_max":813,"o":"m 425 714 q 725 631 638 714 q 813 346 813 549 q 725 65 813 146 q 425 -17 638 -17 q 124 65 211 -17 q 36 346 36 146 q 124 631 36 549 q 425 714 211 714 m 425 517 q 358 485 374 517 q 342 346 342 453 q 358 212 342 243 q 425 181 374 181 q 491 212 475 181 q 507 346 507 243 q 491 485 507 453 q 425 517 475 517 z "},"п":{"ha":863,"x_min":64,"x_max":799,"o":"m 799 696 l 799 0 l 515 0 l 515 507 l 347 507 l 347 0 l 64 0 l 64 696 l 799 696 z "},"р":{"ha":865,"x_min":64,"x_max":826,"o":"m 297 694 l 321 600 q 425 679 354 647 q 576 711 496 711 q 767 617 708 711 q 826 339 826 522 q 764 57 826 133 q 564 -19 701 -19 q 351 39 429 -19 q 356 -112 357 -60 l 356 -250 l 64 -250 l 64 694 l 297 694 m 356 476 l 356 189 q 447 171 401 171 q 510 201 493 171 q 526 336 526 231 q 510 472 526 442 q 451 501 494 501 q 356 476 406 501 z "},"с":{"ha":733,"x_min":36,"x_max":708,"o":"m 682 224 l 708 42 q 406 -17 597 -17 q 119 65 201 -17 q 36 349 36 147 q 119 632 36 550 q 408 714 203 714 q 699 663 592 714 l 669 482 l 458 482 q 366 455 390 482 q 342 349 342 428 q 366 241 342 268 q 458 214 390 214 q 682 224 594 214 z "},"т":{"ha":746,"x_min":15,"x_max":731,"o":"m 731 478 l 518 478 l 518 0 l 228 0 l 228 478 l 15 478 l 15 694 l 731 694 l 731 478 z "},"у":{"ha":836,"x_min":-4,"x_max":839,"o":"m 839 694 l 618 19 q 510 -182 576 -119 q 342 -274 444 -244 q 56 -274 215 -308 l 78 -89 q 283 -58 218 -90 q 342 0 317 -42 l 293 0 q 201 68 222 0 l -4 694 l 306 694 l 388 311 q 406 181 393 274 l 418 181 q 447 311 429 218 l 529 694 l 839 694 z "},"ф":{"ha":1083,"x_min":35,"x_max":1047,"o":"m 671 972 l 671 710 q 960 608 874 692 q 1047 346 1047 524 q 960 87 1047 169 q 671 -12 874 4 l 671 -250 l 411 -250 l 411 -12 q 122 88 208 6 q 35 346 35 171 q 122 608 35 524 q 411 708 208 692 l 411 972 l 671 972 m 657 524 l 657 174 q 749 222 725 185 q 772 346 772 260 q 749 473 772 435 q 657 524 725 511 m 425 174 l 425 524 q 333 473 357 511 q 310 346 310 435 q 333 222 310 260 q 425 174 357 185 z "},"х":{"ha":842,"x_min":-4,"x_max":846,"o":"m 557 0 l 421 261 l 285 0 l -4 0 l 197 354 l 11 694 l 299 694 l 421 451 l 543 694 l 831 694 l 644 354 l 846 0 l 557 0 z "},"ц":{"ha":915,"x_min":64,"x_max":897,"o":"m 897 189 l 897 -189 l 704 -189 l 685 0 l 64 0 l 64 694 l 351 694 l 351 189 l 499 189 l 499 694 l 786 694 l 786 189 l 897 189 z "},"ч":{"ha":840,"x_min":43,"x_max":776,"o":"m 776 694 l 776 0 l 486 0 l 486 231 q 282 196 386 196 q 101 235 158 196 q 43 361 43 275 l 43 694 l 333 694 l 333 446 q 382 404 333 404 q 486 424 435 404 l 486 694 l 776 694 z "},"ш":{"ha":1208,"x_min":64,"x_max":1144,"o":"m 1144 694 l 1144 0 l 64 0 l 64 694 l 344 694 l 344 189 l 476 189 l 476 694 l 732 694 l 732 189 l 864 189 l 864 694 l 1144 694 z "},"щ":{"ha":1269,"x_min":64,"x_max":1251,"o":"m 1251 189 l 1251 -189 l 1058 -189 l 1039 0 l 64 0 l 64 694 l 344 694 l 344 189 l 475 189 l 475 694 l 731 694 l 731 189 l 861 189 l 861 694 l 1142 694 l 1142 189 l 1251 189 z "},"ъ":{"ha":949,"x_min":15,"x_max":926,"o":"m 521 476 l 568 476 q 850 426 774 476 q 926 235 926 376 q 855 44 926 97 q 619 -8 783 -8 q 249 0 379 -8 l 240 0 l 240 486 l 15 486 l 15 694 l 521 694 l 521 476 m 521 178 l 568 178 q 622 190 610 178 q 633 246 633 203 q 622 303 633 290 q 568 315 611 315 l 521 315 l 521 178 z "},"ы":{"ha":1169,"x_min":64,"x_max":1106,"o":"m 344 476 l 393 476 q 676 426 600 476 q 753 235 753 376 q 681 44 753 97 q 444 -8 610 -8 q 72 0 204 -8 l 64 0 l 64 694 l 344 694 l 344 476 m 1106 694 l 1106 0 l 813 0 l 813 694 l 1106 694 m 344 178 l 393 178 q 448 190 436 178 q 460 246 460 203 q 448 303 460 290 q 393 315 436 315 l 344 315 l 344 178 z "},"ь":{"ha":782,"x_min":64,"x_max":760,"o":"m 343 476 l 397 476 q 683 426 606 476 q 760 235 760 376 q 687 44 760 97 q 447 -8 614 -8 q 72 0 204 -8 l 64 0 l 64 694 l 343 694 l 343 476 m 343 178 l 397 178 q 455 190 442 178 q 468 246 468 203 q 455 303 468 290 q 397 315 442 315 l 343 315 l 343 178 z "},"э":{"ha":783,"x_min":29,"x_max":747,"o":"m 57 496 l 35 671 q 335 714 158 714 q 655 633 563 714 q 747 344 747 551 q 655 62 747 143 q 335 -19 563 -19 q 29 26 154 -19 l 50 206 q 335 200 165 200 q 423 212 400 200 q 451 275 446 224 l 103 275 l 103 428 l 449 428 q 416 483 440 471 q 335 496 392 496 l 57 496 z "},"ю":{"ha":1208,"x_min":64,"x_max":1171,"o":"m 356 449 l 454 449 q 547 659 471 604 q 799 714 624 714 q 972 699 906 714 q 1085 642 1039 683 q 1151 530 1132 601 q 1171 344 1171 458 q 1151 165 1171 235 q 1085 56 1132 96 q 972 0 1039 15 q 799 -15 906 -15 q 542 42 619 -15 q 453 260 465 99 l 356 260 l 356 0 l 64 0 l 64 694 l 356 694 l 356 449 m 794 200 q 856 226 843 200 q 869 349 869 251 q 856 473 869 447 q 794 499 843 499 q 729 473 742 499 q 717 349 717 447 q 729 225 717 250 q 794 200 742 200 z "},"я":{"ha":815,"x_min":17,"x_max":751,"o":"m 201 293 l 201 300 q 50 485 50 332 q 116 669 50 625 q 388 714 182 714 q 751 703 653 714 l 751 0 l 468 0 l 468 218 l 407 218 q 367 213 378 218 q 354 186 357 207 l 314 0 l 17 0 l 68 222 q 201 293 89 285 m 468 389 l 468 514 l 393 514 q 345 504 357 514 q 333 467 333 494 q 345 403 333 418 q 393 389 357 389 l 468 389 z "},"ё":{"ha":819,"x_min":35,"x_max":790,"o":"m 347 799 l 251 799 q 197 853 197 799 l 197 940 q 251 994 197 994 l 347 994 q 401 940 401 994 l 401 853 q 347 799 401 799 m 610 799 l 514 799 q 460 853 460 799 l 460 940 q 514 994 460 994 l 610 994 q 664 940 664 994 l 664 853 q 610 799 664 799 m 521 283 l 347 283 q 381 224 356 240 q 463 207 407 207 q 744 222 599 207 l 771 47 q 431 -17 644 -17 q 126 72 218 -17 q 35 342 35 160 q 124 630 35 546 q 429 714 213 714 q 705 653 621 714 q 790 467 789 592 q 731 326 792 368 q 521 283 671 283 m 342 421 l 439 421 q 499 430 486 421 q 511 474 511 439 q 495 516 511 506 q 438 526 479 526 q 363 508 382 528 q 342 421 344 489 z "},"ђ":{"ha":872,"x_min":14,"x_max":833,"o":"m 385 649 l 385 640 q 371 488 385 560 q 629 589 497 589 q 833 394 833 589 l 833 0 l 540 0 l 540 301 q 529 333 540 324 q 490 343 518 343 q 385 326 436 343 l 385 0 l 92 0 l 92 649 l 14 649 l 14 774 l 92 774 l 92 972 l 385 972 l 385 774 l 615 774 l 615 649 l 385 649 z "},"ѓ":{"ha":685,"x_min":60,"x_max":678,"o":"m 642 882 l 288 739 l 208 858 l 532 1067 l 642 882 m 60 0 l 60 522 q 109 662 60 618 q 263 706 158 706 q 678 682 565 706 l 664 479 l 396 479 q 359 470 369 479 q 349 438 349 461 l 349 0 l 60 0 z "},"є":{"ha":783,"x_min":36,"x_max":754,"o":"m 733 206 l 754 26 q 449 -19 639 -19 q 128 62 221 -19 q 36 344 36 143 q 128 633 36 551 q 449 714 221 714 q 749 671 635 714 l 726 496 q 449 494 635 494 q 367 483 392 496 q 335 428 343 471 l 682 428 l 682 275 l 332 275 q 363 213 339 225 q 449 200 386 200 q 733 206 618 200 z "},"ѕ":{"ha":768,"x_min":33,"x_max":740,"o":"m 368 242 l 215 283 q 71 368 108 314 q 33 511 33 422 q 107 663 33 611 q 356 714 181 714 q 711 683 563 714 l 693 514 l 419 514 q 330 512 344 514 q 315 497 315 510 q 363 474 315 485 q 397 464 383 468 l 557 424 q 697 349 653 397 q 740 214 740 301 q 665 34 740 83 q 404 -15 589 -15 q 43 14 213 -15 l 61 183 l 308 183 q 435 186 411 183 q 458 204 458 189 q 458 209 458 207 q 455 213 457 211 q 451 217 453 215 q 444 220 449 218 q 435 223 440 222 q 423 226 431 224 q 408 231 415 229 q 390 235 401 232 q 368 242 379 239 z "},"і":{"ha":429,"x_min":68,"x_max":361,"o":"m 153 1013 l 276 1013 q 361 926 361 1013 l 361 856 q 276 769 361 769 l 153 769 q 68 856 68 769 l 68 926 q 153 1013 68 1013 m 360 0 l 69 0 l 69 694 l 360 694 l 360 0 z "},"ї":{"ha":432,"x_min":-19,"x_max":447,"o":"m 35 994 l 131 994 q 185 940 185 994 l 185 853 q 131 799 185 799 l 35 799 q -19 853 -19 799 l -19 940 q 35 994 -19 994 m 297 994 l 393 994 q 447 940 447 994 l 447 853 q 393 799 447 799 l 297 799 q 243 853 243 799 l 243 940 q 297 994 243 994 m 363 0 l 69 0 l 69 694 l 363 694 l 363 0 z "},"ј":{"ha":429,"x_min":-26,"x_max":360,"o":"m 149 1026 l 272 1026 q 357 940 357 1026 l 357 869 q 272 783 357 783 l 149 783 q 64 869 64 783 l 64 940 q 149 1026 64 1026 m 360 694 l 360 81 q 299 -126 360 -31 q 135 -264 238 -222 l -26 -136 q 69 81 69 -40 l 69 694 l 360 694 z "},"љ":{"ha":1171,"x_min":18,"x_max":1149,"o":"m 765 471 l 803 471 q 1075 421 1001 471 q 1149 231 1149 371 q 1079 44 1149 96 q 850 -8 1010 -8 q 506 0 714 -8 l 497 0 l 497 522 l 464 522 q 424 510 436 522 q 408 464 411 497 q 360 176 390 281 q 242 13 324 54 q 36 -6 161 -29 l 18 194 q 67 201 50 197 q 103 219 85 204 q 128 261 121 235 q 167 515 146 332 q 367 694 186 694 l 765 694 l 765 471 m 765 172 l 803 172 q 859 185 847 172 q 871 242 871 199 q 859 299 871 286 q 803 311 847 311 l 765 311 l 765 172 z "},"њ":{"ha":1157,"x_min":64,"x_max":1136,"o":"m 753 450 l 804 450 q 1065 404 994 450 q 1136 231 1136 358 q 1070 44 1136 96 q 851 -8 1004 -8 q 486 0 613 -8 l 481 0 l 481 279 l 329 279 l 329 0 l 64 0 l 64 694 l 329 694 l 329 451 l 481 451 l 481 694 l 753 694 l 753 450 m 753 172 l 804 172 q 848 184 838 172 q 858 233 858 196 q 849 281 858 271 q 804 292 839 292 l 753 292 l 753 172 z "},"ћ":{"ha":872,"x_min":14,"x_max":833,"o":"m 385 649 l 385 640 q 371 488 385 560 q 629 589 497 589 q 833 394 833 589 l 833 81 q 776 -126 833 -31 q 621 -264 718 -222 l 458 -136 q 540 81 540 -46 l 540 301 q 529 333 540 324 q 490 343 518 343 q 385 326 436 343 l 385 0 l 92 0 l 92 649 l 14 649 l 14 774 l 92 774 l 92 972 l 385 972 l 385 774 l 615 774 l 615 649 l 385 649 z "},"ќ":{"ha":825,"x_min":64,"x_max":815,"o":"m 369 739 l 290 858 l 614 1067 l 724 882 l 369 739 m 557 365 l 557 357 q 585 353 567 356 q 716 295 688 338 q 811 14 744 253 q 815 0 814 4 l 513 0 q 450 221 464 181 q 411 265 436 261 l 347 265 q 354 211 354 233 l 354 0 l 64 0 l 64 694 l 354 694 l 354 543 q 344 451 354 496 l 369 451 q 438 477 422 451 q 486 647 453 503 q 497 694 493 678 l 792 694 q 721 457 726 474 q 660 386 699 401 q 557 365 639 378 z "},"ѝ":{"ha":878,"x_min":64,"x_max":814,"o":"m 579 858 l 500 739 l 146 882 l 256 1067 l 579 858 m 814 0 l 554 -3 l 554 269 q 565 400 554 322 l 558 400 q 500 275 538 332 l 322 0 l 64 0 l 64 694 l 322 694 l 322 404 q 311 292 322 361 l 318 292 q 372 400 329 331 l 556 694 l 814 694 l 814 0 z "},"ў":{"ha":836,"x_min":-4,"x_max":839,"o":"m 488 1003 l 664 1003 q 611 836 682 910 q 417 763 540 763 q 222 836 293 763 q 168 1003 151 910 l 344 1003 q 354 919 336 942 q 417 896 372 896 q 478 919 460 896 q 488 1003 496 942 m 839 694 l 618 19 q 510 -182 576 -119 q 342 -274 444 -244 q 56 -274 215 -308 l 78 -89 q 283 -58 218 -90 q 342 0 317 -42 l 293 0 q 201 68 222 0 l -4 694 l 306 694 l 388 311 q 406 181 393 274 l 418 181 q 447 311 429 218 l 529 694 l 839 694 z "},"џ":{"ha":868,"x_min":64,"x_max":804,"o":"m 804 0 l 549 0 l 532 -225 l 336 -225 l 318 0 l 64 0 l 64 694 l 353 694 l 353 189 l 518 189 l 518 694 l 804 694 l 804 0 z "},"Ґ":{"ha":771,"x_min":75,"x_max":765,"o":"m 765 1171 l 765 944 l 751 733 l 435 733 q 392 719 408 733 q 376 683 376 706 l 376 0 l 75 0 l 75 746 q 138 903 75 843 q 299 964 200 964 q 544 961 463 964 l 565 1171 l 765 1171 z "},"ґ":{"ha":685,"x_min":60,"x_max":678,"o":"m 678 892 l 678 682 l 664 479 l 396 479 q 359 470 369 479 q 349 438 349 461 l 349 0 l 60 0 l 60 522 q 109 662 60 618 q 263 706 158 706 q 467 703 399 706 l 488 892 l 678 892 z "},"Ұ":{"ha":914,"x_min":-11,"x_max":925,"o":"m 667 419 l 793 419 l 793 275 l 608 275 l 608 0 l 307 0 l 307 275 l 122 275 l 122 419 l 247 419 l -11 958 l 299 958 l 419 657 q 449 522 432 626 l 467 522 q 496 658 483 624 l 615 958 l 925 958 l 667 419 z "},"ұ":{"ha":908,"x_min":-10,"x_max":919,"o":"m 664 163 l 789 163 l 789 -10 l 607 -10 l 607 -250 l 304 -250 l 304 -10 l 122 -10 l 122 163 l 246 163 l -10 694 l 300 694 l 418 400 q 431 360 425 382 q 441 307 436 338 q 447 265 446 276 l 464 265 q 471 307 467 276 q 481 360 475 338 q 493 401 486 383 l 610 694 l 919 694 l 664 163 z "},"Ҷ":{"ha":1026,"x_min":49,"x_max":1010,"o":"m 1010 197 l 1010 -210 l 792 -210 l 771 0 l 578 0 l 578 363 q 319 300 440 300 q 114 360 179 300 q 49 550 49 421 l 49 958 l 350 958 l 350 615 q 364 560 347 574 q 432 546 381 546 q 578 565 513 546 l 578 958 l 879 958 l 879 197 l 1010 197 z "},"ҷ":{"ha":897,"x_min":43,"x_max":879,"o":"m 879 189 l 879 -189 l 686 -189 l 667 0 l 479 0 l 479 231 q 279 196 382 196 q 100 236 157 196 q 43 361 43 276 l 43 694 l 333 694 l 333 446 q 379 404 333 404 q 479 422 429 404 l 479 694 l 768 694 l 768 189 l 879 189 z "},"Һ":{"ha":964,"x_min":79,"x_max":915,"o":"m 381 958 l 381 596 q 643 658 521 658 q 849 598 783 658 q 915 408 915 538 l 915 0 l 614 0 l 614 343 q 600 399 617 385 q 531 413 583 413 q 381 393 446 413 l 381 0 l 79 0 l 79 958 l 381 958 z "},"Ӏ":{"ha":457,"x_min":79,"x_max":378,"o":"m 378 0 l 79 0 l 79 958 l 378 958 l 378 0 z "},"Ẁ":{"ha":1393,"x_min":28,"x_max":1365,"o":"m 836 1119 l 757 1000 l 403 1143 l 513 1328 l 836 1119 m 1365 958 l 1246 81 q 1211 22 1240 44 q 1143 0 1182 0 l 888 0 q 819 22 849 0 q 785 81 789 44 l 719 610 q 708 750 714 653 l 685 750 q 674 608 679 653 l 610 81 q 576 22 606 44 q 507 0 546 0 l 250 0 q 182 22 211 0 q 147 81 153 44 l 28 958 l 325 958 l 374 371 q 379 211 379 276 l 401 211 q 424 372 421 347 l 488 869 q 520 933 492 908 q 589 958 549 958 l 804 958 q 872 934 844 958 q 906 869 900 910 l 971 369 q 992 211 975 328 l 1014 211 q 1021 368 1014 250 l 1068 958 l 1365 958 z "},"ẁ":{"ha":1217,"x_min":11,"x_max":1206,"o":"m 750 858 l 671 739 l 317 882 l 426 1067 l 750 858 m 1206 694 l 1064 74 q 1031 20 1057 40 q 969 0 1006 0 l 765 0 q 698 24 726 0 q 665 86 669 49 l 625 401 q 617 524 625 407 l 599 524 q 589 401 593 449 l 549 86 q 516 24 544 49 q 449 0 488 0 l 247 0 q 185 20 211 0 q 153 74 160 40 l 11 694 l 300 694 l 350 304 q 361 181 358 218 l 378 181 q 381 219 379 199 q 386 265 383 240 q 390 304 389 290 l 429 610 q 461 671 433 647 q 528 694 489 694 l 688 694 q 754 671 726 694 q 786 608 782 647 l 824 304 q 831 247 825 290 q 838 181 836 204 l 854 181 q 867 304 867 300 l 915 694 l 1206 694 z "},"Ẃ":{"ha":1393,"x_min":28,"x_max":1365,"o":"m 989 1143 l 635 1000 l 556 1119 l 879 1328 l 989 1143 m 1365 958 l 1246 81 q 1211 22 1240 44 q 1143 0 1182 0 l 888 0 q 819 22 849 0 q 785 81 789 44 l 719 610 q 708 750 714 653 l 685 750 q 674 608 679 653 l 610 81 q 576 22 606 44 q 507 0 546 0 l 250 0 q 182 22 211 0 q 147 81 153 44 l 28 958 l 325 958 l 374 371 q 379 211 379 276 l 401 211 q 424 372 421 347 l 488 869 q 520 933 492 908 q 589 958 549 958 l 804 958 q 872 934 844 958 q 906 869 900 910 l 971 369 q 992 211 975 328 l 1014 211 q 1021 368 1014 250 l 1068 958 l 1365 958 z "},"ẃ":{"ha":1217,"x_min":11,"x_max":1206,"o":"m 903 882 l 549 739 l 469 858 l 793 1067 l 903 882 m 1206 694 l 1064 74 q 1031 20 1057 40 q 969 0 1006 0 l 765 0 q 698 24 726 0 q 665 86 669 49 l 625 401 q 617 524 625 407 l 599 524 q 589 401 593 449 l 549 86 q 516 24 544 49 q 449 0 488 0 l 247 0 q 185 20 211 0 q 153 74 160 40 l 11 694 l 300 694 l 350 304 q 361 181 358 218 l 378 181 q 381 219 379 199 q 386 265 383 240 q 390 304 389 290 l 429 610 q 461 671 433 647 q 528 694 489 694 l 688 694 q 754 671 726 694 q 786 608 782 647 l 824 304 q 831 247 825 290 q 838 181 836 204 l 854 181 q 867 304 867 300 l 915 694 l 1206 694 z "},"Ẅ":{"ha":1393,"x_min":28,"x_max":1365,"o":"m 515 1256 l 611 1256 q 665 1201 665 1256 l 665 1114 q 611 1060 665 1060 l 515 1060 q 461 1114 461 1060 l 461 1201 q 515 1256 461 1256 m 778 1256 l 874 1256 q 928 1201 928 1256 l 928 1114 q 874 1060 928 1060 l 778 1060 q 724 1114 724 1060 l 724 1201 q 778 1256 724 1256 m 1365 958 l 1246 81 q 1211 22 1240 44 q 1143 0 1182 0 l 888 0 q 819 22 849 0 q 785 81 789 44 l 719 610 q 708 750 714 653 l 685 750 q 674 608 679 653 l 610 81 q 576 22 606 44 q 507 0 546 0 l 250 0 q 182 22 211 0 q 147 81 153 44 l 28 958 l 325 958 l 374 371 q 379 211 379 276 l 401 211 q 424 372 421 347 l 488 869 q 520 933 492 908 q 589 958 549 958 l 804 958 q 872 934 844 958 q 906 869 900 910 l 971 369 q 992 211 975 328 l 1014 211 q 1021 368 1014 250 l 1068 958 l 1365 958 z "},"ẅ":{"ha":1217,"x_min":11,"x_max":1206,"o":"m 429 994 l 525 994 q 579 940 579 994 l 579 853 q 525 799 579 799 l 429 799 q 375 853 375 799 l 375 940 q 429 994 375 994 m 692 994 l 788 994 q 842 940 842 994 l 842 853 q 788 799 842 799 l 692 799 q 638 853 638 799 l 638 940 q 692 994 638 994 m 1206 694 l 1064 74 q 1031 20 1057 40 q 969 0 1006 0 l 765 0 q 698 24 726 0 q 665 86 669 49 l 625 401 q 617 524 625 407 l 599 524 q 589 401 593 449 l 549 86 q 516 24 544 49 q 449 0 488 0 l 247 0 q 185 20 211 0 q 153 74 160 40 l 11 694 l 300 694 l 350 304 q 361 181 358 218 l 378 181 q 381 219 379 199 q 386 265 383 240 q 390 304 389 290 l 429 610 q 461 671 433 647 q 528 694 489 694 l 688 694 q 754 671 726 694 q 786 608 782 647 l 824 304 q 831 247 825 290 q 838 181 836 204 l 854 181 q 867 304 867 300 l 915 694 l 1206 694 z "},"Ỳ":{"ha":908,"x_min":-14,"x_max":922,"o":"m 514 1000 l 160 1143 l 269 1328 l 593 1119 l 514 1000 m 606 299 l 606 0 l 304 0 l 304 296 l -14 958 l 296 958 l 417 657 q 446 522 429 626 l 464 522 q 493 658 481 624 l 613 958 l 922 958 l 606 299 z "},"ỳ":{"ha":836,"x_min":-4,"x_max":839,"o":"m 483 739 l 129 882 l 239 1067 l 563 858 l 483 739 m 839 694 l 618 19 q 588 -60 606 -22 q 541 -138 569 -97 q 477 -208 513 -179 q 393 -259 442 -236 q 286 -284 344 -282 q 156 -274 228 -286 l 136 -117 q 265 -74 218 -100 q 340 0 313 -47 l 293 0 q 201 68 222 0 l -4 694 l 306 694 l 388 311 q 406 181 393 274 l 418 181 q 447 311 428 214 l 529 694 l 839 694 z "},"–":{"ha":735,"x_min":61,"x_max":674,"o":"m 674 272 l 61 272 l 61 442 l 674 442 l 674 272 z "},"—":{"ha":1138,"x_min":61,"x_max":1076,"o":"m 1076 272 l 61 272 l 61 442 l 1076 442 l 1076 272 z "},"‘":{"ha":307,"x_min":46,"x_max":271,"o":"m 182 549 l 133 549 q 66 568 85 549 q 46 639 47 588 l 46 719 q 65 867 46 808 q 126 986 85 926 l 221 956 q 197 782 200 889 q 271 701 268 782 l 268 639 q 249 568 267 588 q 182 549 231 549 z "},"’":{"ha":303,"x_min":35,"x_max":260,"o":"m 124 972 l 172 972 q 240 953 221 972 q 260 882 258 933 l 260 801 q 240 653 260 711 q 179 535 221 594 l 85 565 q 108 739 106 632 q 35 819 38 739 l 38 882 q 57 953 39 933 q 124 972 75 972 z "},"‚":{"ha":322,"x_min":47,"x_max":272,"o":"m 136 257 l 185 257 q 252 235 233 257 q 272 157 271 214 l 272 68 q 253 -94 272 -31 q 192 -225 233 -158 l 97 -190 q 121 0 118 -118 q 47 89 50 0 l 50 157 q 69 235 51 214 q 136 257 88 257 z "},"“":{"ha":583,"x_min":46,"x_max":547,"o":"m 182 549 l 133 549 q 66 568 85 549 q 46 639 47 588 l 46 719 q 65 867 46 808 q 126 986 85 926 l 221 956 q 197 782 200 889 q 271 701 268 782 l 268 639 q 249 568 267 588 q 182 549 231 549 m 458 549 l 410 549 q 342 568 361 549 q 322 639 324 588 l 322 719 q 342 867 322 808 q 403 986 361 926 l 497 956 q 474 782 476 889 q 547 701 544 782 l 544 639 q 525 568 543 588 q 458 549 507 549 z "},"”":{"ha":579,"x_min":35,"x_max":536,"o":"m 124 972 l 172 972 q 240 953 221 972 q 260 882 258 933 l 260 801 q 240 653 260 711 q 179 535 221 594 l 85 565 q 108 739 106 632 q 35 819 38 739 l 38 882 q 57 953 39 933 q 124 972 75 972 m 400 972 l 449 972 q 516 953 497 972 q 536 882 535 933 l 536 801 q 517 653 536 711 q 456 535 497 594 l 361 565 q 385 739 382 632 q 311 819 314 739 l 314 882 q 333 953 315 933 q 400 972 351 972 z "},"„":{"ha":596,"x_min":46,"x_max":547,"o":"m 135 213 l 183 213 q 251 193 232 213 q 271 122 269 174 l 271 42 q 251 -106 271 -47 q 190 -225 232 -165 l 96 -194 q 119 -21 117 -128 q 46 60 49 -21 l 49 122 q 68 193 50 174 q 135 213 86 213 m 411 213 l 460 213 q 527 193 508 213 q 547 122 546 174 l 547 42 q 528 -106 547 -47 q 467 -225 508 -165 l 372 -194 q 396 -21 393 -128 q 322 60 325 -21 l 325 122 q 344 193 326 174 q 411 213 363 213 z "},"†":{"ha":675,"x_min":31,"x_max":644,"o":"m 451 -153 l 224 -153 l 239 546 l 239 672 l 224 960 l 451 960 l 438 672 l 438 546 l 451 -153 m 31 496 l 31 694 l 210 694 l 210 526 l 31 496 m 644 694 l 644 496 l 465 526 l 465 694 l 644 694 z "},"‡":{"ha":725,"x_min":56,"x_max":669,"o":"m 461 694 l 461 135 l 476 -153 l 249 -153 l 263 135 l 263 694 l 249 960 l 476 960 l 461 694 m 235 526 l 56 496 l 56 694 l 235 694 l 235 526 m 669 496 l 490 526 l 490 694 l 669 694 l 669 496 m 235 281 l 235 113 l 56 113 l 56 311 l 235 281 m 669 113 l 490 113 l 490 281 l 669 311 l 669 113 z "},"•":{"ha":529,"x_min":78,"x_max":451,"o":"m 258 558 l 282 558 q 414 521 376 558 q 451 389 451 483 l 451 365 q 415 224 451 263 q 282 185 378 185 l 258 185 q 117 224 156 185 q 78 365 78 263 l 78 389 q 117 522 78 485 q 258 558 156 558 z "},"…":{"ha":1285,"x_min":36,"x_max":1226,"o":"m 136 257 l 201 257 q 280 235 258 257 q 301 157 301 214 l 301 100 q 280 22 301 43 q 201 0 258 0 l 136 0 q 58 22 79 0 q 36 100 36 43 l 36 157 q 58 235 36 214 q 136 257 79 257 m 599 257 l 664 257 q 742 235 721 257 q 764 157 764 214 l 764 100 q 742 22 764 43 q 664 0 721 0 l 599 0 q 520 22 542 0 q 499 100 499 43 l 499 157 q 520 235 499 214 q 599 257 542 257 m 1061 257 l 1126 257 q 1205 235 1183 257 q 1226 157 1226 214 l 1226 100 q 1205 22 1226 43 q 1126 0 1183 0 l 1061 0 q 983 22 1004 0 q 961 100 961 43 l 961 157 q 983 235 961 214 q 1061 257 1004 257 z "},"‰":{"ha":1840,"x_min":31,"x_max":1808,"o":"m 282 978 q 481 917 425 978 q 536 692 536 856 q 481 467 536 528 q 282 406 425 406 q 85 467 140 406 q 31 692 31 528 q 85 917 31 856 q 282 978 140 978 m 463 0 l 288 0 l 815 958 l 990 958 l 463 0 m 282 826 q 249 806 256 826 q 243 692 243 785 q 249 577 243 597 q 282 557 256 557 q 317 578 310 557 q 324 692 324 599 q 317 806 324 785 q 282 826 310 826 m 996 553 q 1194 492 1139 553 q 1250 267 1250 431 q 1194 42 1250 103 q 996 -19 1139 -19 q 799 42 854 -19 q 744 267 744 103 q 799 492 744 431 q 996 553 854 553 m 1554 553 q 1753 492 1697 553 q 1808 267 1808 431 q 1753 42 1808 103 q 1554 -19 1697 -19 q 1358 42 1413 -19 q 1303 267 1303 103 q 1358 492 1303 431 q 1554 553 1413 553 m 996 401 q 963 381 969 401 q 957 267 957 361 q 963 153 957 174 q 996 132 969 132 q 1031 153 1024 132 q 1038 267 1038 174 q 1031 381 1038 360 q 996 401 1024 401 m 1554 401 q 1522 381 1528 401 q 1515 267 1515 361 q 1522 153 1515 174 q 1554 132 1528 132 q 1589 153 1582 132 q 1596 267 1596 174 q 1589 381 1596 360 q 1554 401 1582 401 z "},"‹":{"ha":440,"x_min":29,"x_max":401,"o":"m 401 557 l 282 349 l 401 132 l 249 36 l 29 318 l 29 379 l 249 653 l 401 557 z "},"›":{"ha":440,"x_min":39,"x_max":411,"o":"m 411 379 l 411 318 l 192 36 l 39 132 l 160 349 l 39 557 l 192 653 l 411 379 z "},"⁄":{"ha":222,"x_min":-242,"x_max":461,"o":"m -67 0 l -242 0 l 286 958 l 461 958 l -67 0 z "},"€":{"ha":894,"x_min":38,"x_max":861,"o":"m 711 501 l 39 501 l 39 654 l 132 654 q 267 897 161 819 q 578 975 372 975 q 835 938 719 975 l 811 732 q 554 735 626 750 q 456 654 482 718 l 726 654 l 711 501 m 839 235 l 861 29 q 578 -17 743 -17 q 267 61 372 -17 q 132 307 161 139 l 38 307 l 38 460 l 703 460 l 688 307 l 453 307 q 554 224 478 236 q 686 220 599 217 q 839 235 774 224 z "},"™":{"ha":1383,"x_min":61,"x_max":1321,"o":"m 556 967 l 556 818 l 408 818 l 408 439 l 210 439 l 210 818 l 61 818 l 61 967 l 556 967 m 1321 439 l 1142 439 l 1125 818 l 1114 818 l 1083 592 q 1008 532 1075 532 l 903 532 q 828 592 836 532 l 796 818 l 785 818 l 772 439 l 592 439 l 608 899 q 675 967 611 967 l 851 967 q 925 906 917 967 l 946 735 q 950 691 949 719 q 953 654 951 663 l 958 654 q 962 694 960 668 q 965 735 964 721 l 983 906 q 1058 967 992 967 l 1238 967 q 1306 899 1301 967 l 1321 439 z "},"∂":{"ha":851,"x_min":38,"x_max":813,"o":"m 144 789 l 144 978 q 455 965 331 985 q 665 887 579 944 q 785 728 750 829 q 813 471 819 626 q 776 228 806 325 q 689 78 746 132 q 561 4 632 25 q 388 -17 490 -17 q 235 6 301 -17 q 131 65 169 29 q 69 150 92 101 q 40 246 46 199 q 38 343 33 293 q 60 447 42 399 q 115 540 79 496 q 211 609 150 583 q 353 635 272 635 q 521 590 458 635 q 488 705 518 664 q 376 767 458 746 q 144 789 294 789 m 403 200 q 480 249 460 200 q 511 424 500 297 q 426 431 472 431 q 328 336 336 431 q 338 233 321 265 q 403 200 356 200 z "},"∅":{"ha":951,"x_min":69,"x_max":882,"o":"m 189 760 q 249 820 189 760 q 476 879 308 879 q 763 760 644 879 q 882 474 882 642 q 763 186 882 306 q 476 67 644 67 q 189 186 308 67 q 69 474 69 306 q 189 760 69 642 m 433 335 l 508 335 q 528 424 508 383 q 574 489 549 465 q 619 549 599 513 q 639 628 639 586 q 476 757 639 757 q 307 742 406 757 l 311 679 q 476 692 394 692 q 568 628 568 692 q 547 566 568 599 q 501 507 526 533 q 454 435 475 481 q 433 335 433 389 m 499 238 l 444 238 q 435 226 435 238 l 435 175 q 444 165 435 165 l 499 165 q 510 175 510 165 l 510 226 q 499 238 510 238 z "},"∏":{"ha":985,"x_min":35,"x_max":950,"o":"m 950 756 l 853 756 l 853 -125 l 561 -125 l 561 756 l 424 756 l 424 -125 l 132 -125 l 132 756 l 35 756 l 35 958 l 950 958 l 950 756 z "},"∑":{"ha":831,"x_min":44,"x_max":794,"o":"m 781 761 l 388 761 l 553 446 l 368 -29 l 794 -29 l 794 -226 l 44 -226 l 44 -29 l 228 446 l 61 761 l 61 958 l 781 958 l 781 761 z "},"−":{"ha":793,"x_min":63,"x_max":731,"o":"m 731 304 l 63 304 l 63 507 l 731 507 l 731 304 z "},"√":{"ha":819,"x_min":4,"x_max":824,"o":"m 824 1217 l 558 11 q 540 0 556 0 l 194 0 q 176 11 179 0 l 4 694 l 235 694 l 358 183 l 376 183 l 590 1217 l 824 1217 z "},"∞":{"ha":1050,"x_min":39,"x_max":1011,"o":"m 794 636 q 949 583 886 636 q 1011 426 1011 529 q 944 262 1011 321 q 775 203 876 203 q 525 304 644 203 q 269 203 397 203 q 106 262 174 203 q 39 426 39 321 q 103 583 39 529 q 268 636 168 636 q 526 526 404 636 q 794 636 665 636 m 243 421 q 310 372 243 372 q 417 421 365 372 q 310 465 379 465 q 243 421 243 465 m 742 372 q 807 419 807 372 q 742 465 807 465 q 633 414 678 465 q 742 372 681 372 z "},"∫":{"ha":489,"x_min":31,"x_max":458,"o":"m 151 -54 l 81 807 q 126 943 75 894 q 260 992 176 992 q 458 986 403 992 l 442 776 l 358 776 q 339 771 344 776 q 335 747 333 765 l 408 -124 q 374 -265 417 -221 q 213 -308 331 -308 q 31 -303 65 -308 l 47 -93 l 124 -93 q 147 -85 142 -93 q 151 -54 153 -76 z "},"≈":{"ha":800,"x_min":69,"x_max":724,"o":"m 244 425 l 69 425 q 93 615 39 550 q 256 669 147 679 q 388 641 286 667 q 515 613 489 615 q 530 611 524 614 q 540 613 536 608 q 547 618 544 618 q 549 626 549 618 q 550 636 550 633 q 550 649 550 639 q 550 664 550 658 l 724 664 q 706 477 754 542 q 540 418 657 413 q 408 446 510 419 q 278 475 307 472 q 263 476 269 474 q 253 474 257 478 q 247 469 249 469 q 244 461 244 468 q 244 451 244 454 q 244 440 244 449 q 244 425 244 431 m 244 142 l 69 142 q 93 332 39 267 q 256 388 147 397 q 387 358 285 385 q 515 329 489 332 q 529 328 524 326 q 538 330 535 331 q 544 333 542 329 q 549 339 547 338 q 550 347 550 340 q 550 356 550 353 q 550 368 550 360 q 550 381 550 376 l 724 381 q 706 194 754 260 q 540 135 657 129 q 408 163 510 136 q 278 193 307 190 q 263 194 269 192 q 253 192 257 196 q 247 187 249 188 q 244 179 244 186 q 244 169 244 172 q 244 156 244 165 q 244 142 244 147 z "},"≠":{"ha":851,"x_min":92,"x_max":760,"o":"m 760 671 l 760 468 l 92 468 l 92 671 l 421 671 l 482 842 l 636 786 l 596 671 l 760 671 m 92 371 l 760 371 l 760 168 l 415 168 l 353 -8 l 194 49 l 238 168 l 92 168 l 92 371 z "},"≤":{"ha":769,"x_min":53,"x_max":683,"o":"m 683 592 l 315 546 l 683 497 l 683 271 l 69 435 l 69 658 l 683 818 l 683 592 m 679 33 l 53 33 l 53 253 l 679 253 l 679 33 z "},"≥":{"ha":769,"x_min":86,"x_max":717,"o":"m 700 658 l 700 435 l 86 271 l 86 497 l 454 546 l 86 592 l 86 818 l 700 658 m 717 33 l 90 33 l 90 253 l 717 253 l 717 33 z "},"◊":{"ha":793,"x_min":31,"x_max":763,"o":"m 413 956 l 763 496 q 763 465 772 481 l 413 3 q 382 3 397 -17 l 31 465 q 31 496 21 481 l 382 956 q 413 956 397 975 m 256 481 l 397 283 l 538 481 l 397 675 l 256 481 z "},"ﬁ":{"ha":1010,"x_min":11,"x_max":946,"o":"m 739 1026 l 860 1026 q 946 940 946 1026 l 946 869 q 860 783 946 783 l 739 783 q 653 869 653 783 l 653 940 q 739 1026 653 1026 m 944 694 l 944 0 l 651 0 l 651 519 l 419 519 l 419 0 l 126 0 l 126 519 l 11 519 l 11 688 l 126 694 l 126 779 q 381 1006 126 1006 q 590 986 501 1006 l 590 811 l 485 811 q 433 795 447 811 q 419 739 419 779 l 419 694 l 944 694 z "},"ﬂ":{"ha":1074,"x_min":11,"x_max":1074,"o":"m 1042 203 l 1074 17 q 985 -10 1046 0 q 876 -19 924 -19 q 715 32 774 -19 q 656 175 656 83 l 656 815 l 481 815 q 431 799 444 815 q 417 739 417 782 l 417 694 l 563 694 l 563 519 l 417 519 l 417 0 l 125 0 l 125 519 l 11 519 l 11 688 l 125 694 l 125 779 q 376 1006 125 1006 q 947 972 772 1006 l 947 253 q 1004 203 947 203 l 1042 203 z "}}}
